<mxfile host="Electron" modified="2023-05-25T03:36:06.387Z" agent="Mozilla/5.0 (Macintosh; Intel Mac OS X 10_15_7) AppleWebKit/537.36 (KHTML, like Gecko) draw.io/21.2.8 Chrome/112.0.5615.165 Electron/24.2.0 Safari/537.36" etag="Jur7pDBifGP-PsO6FrgE" version="21.2.8" type="device" pages="3">
  <diagram id="RntQ0L-R71vtcpEbeUlI" name="Multi-Accounts-Setup">
    <mxGraphModel dx="1177" dy="840" grid="1" gridSize="10" guides="1" tooltips="1" connect="1" arrows="1" fold="1" page="1" pageScale="1" pageWidth="850" pageHeight="1100" math="0" shadow="0">
      <root>
        <mxCell id="0" />
        <mxCell id="1" parent="0" />
        <mxCell id="SGmXH1uzqU8MEBnB1vXx-1" value="" style="rounded=0;whiteSpace=wrap;html=1;fillColor=none;strokeColor=#000000;" parent="1" vertex="1">
          <mxGeometry x="720" y="160" width="520" height="200" as="geometry" />
        </mxCell>
        <mxCell id="SGmXH1uzqU8MEBnB1vXx-2" value="" style="group;fillColor=none;strokeColor=#000000;" parent="1" vertex="1" connectable="0">
          <mxGeometry x="40" y="160" width="600" height="440" as="geometry" />
        </mxCell>
        <mxCell id="SGmXH1uzqU8MEBnB1vXx-3" value="CodeCommit&lt;br&gt;Repository" style="sketch=0;points=[[0,0,0],[0.25,0,0],[0.5,0,0],[0.75,0,0],[1,0,0],[0,1,0],[0.25,1,0],[0.5,1,0],[0.75,1,0],[1,1,0],[0,0.25,0],[0,0.5,0],[0,0.75,0],[1,0.25,0],[1,0.5,0],[1,0.75,0]];outlineConnect=0;fontColor=#232F3E;gradientColor=#4D72F3;gradientDirection=north;fillColor=#3334B9;strokeColor=#ffffff;dashed=0;verticalLabelPosition=bottom;verticalAlign=top;align=center;html=1;fontSize=12;fontStyle=0;aspect=fixed;shape=mxgraph.aws4.resourceIcon;resIcon=mxgraph.aws4.codecommit;" parent="SGmXH1uzqU8MEBnB1vXx-2" vertex="1">
          <mxGeometry x="80" y="80" width="80" height="80" as="geometry" />
        </mxCell>
        <mxCell id="SGmXH1uzqU8MEBnB1vXx-4" value="CodePipeline" style="sketch=0;points=[[0,0,0],[0.25,0,0],[0.5,0,0],[0.75,0,0],[1,0,0],[0,1,0],[0.25,1,0],[0.5,1,0],[0.75,1,0],[1,1,0],[0,0.25,0],[0,0.5,0],[0,0.75,0],[1,0.25,0],[1,0.5,0],[1,0.75,0]];outlineConnect=0;fontColor=#232F3E;gradientColor=#4D72F3;gradientDirection=north;fillColor=#3334B9;strokeColor=#ffffff;dashed=0;verticalLabelPosition=bottom;verticalAlign=top;align=center;html=1;fontSize=12;fontStyle=0;aspect=fixed;shape=mxgraph.aws4.resourceIcon;resIcon=mxgraph.aws4.codebuild;" parent="SGmXH1uzqU8MEBnB1vXx-2" vertex="1">
          <mxGeometry x="320" y="80" width="80" height="80" as="geometry" />
        </mxCell>
        <mxCell id="SGmXH1uzqU8MEBnB1vXx-5" value="CodeBuild&lt;br&gt;Project" style="sketch=0;points=[[0,0,0],[0.25,0,0],[0.5,0,0],[0.75,0,0],[1,0,0],[0,1,0],[0.25,1,0],[0.5,1,0],[0.75,1,0],[1,1,0],[0,0.25,0],[0,0.5,0],[0,0.75,0],[1,0.25,0],[1,0.5,0],[1,0.75,0]];outlineConnect=0;fontColor=#232F3E;gradientColor=#4D72F3;gradientDirection=north;fillColor=#3334B9;strokeColor=#ffffff;dashed=0;verticalLabelPosition=bottom;verticalAlign=top;align=center;html=1;fontSize=12;fontStyle=0;aspect=fixed;shape=mxgraph.aws4.resourceIcon;resIcon=mxgraph.aws4.codepipeline;" parent="SGmXH1uzqU8MEBnB1vXx-2" vertex="1">
          <mxGeometry x="200" y="80" width="80" height="80" as="geometry" />
        </mxCell>
        <mxCell id="SGmXH1uzqU8MEBnB1vXx-6" value="" style="shape=image;verticalLabelPosition=bottom;labelBackgroundColor=default;verticalAlign=top;imageAspect=0;image=data:image/svg+xml,PHN2ZyB4bWxucz0iaHR0cDovL3d3dy53My5vcmcvMjAwMC9zdmciIGhlaWdodD0iNDhweCIgd2lkdGg9IjQ4cHgiIHZpZXdCb3g9IjAgMCA0OCA0OCI+PHBhdGggZD0iTTEzLjUyNywyMS41MjljMCwwLjU5NywwLjA2NCwxLjA4LDAuMTc2LDEuNDM1YzAuMTI4LDAuMzU1LDAuMjg3LDAuNzQyLDAuNTExLDEuMTYxIGMwLjA4LDAuMTI5LDAuMTEyLDAuMjU4LDAuMTEyLDAuMzcxYzAsMC4xNjEtMC4wOTYsMC4zMjItMC4zMDMsMC40ODRsLTEuMDA2LDAuNjc3Yy0wLjE0NCwwLjA5Ny0wLjI4NywwLjE0NS0wLjQxNSwwLjE0NSBjLTAuMTYsMC0wLjMxOS0wLjA4MS0wLjQ3OS0wLjIyNmMtMC4yMjQtMC4yNDItMC40MTUtMC41LTAuNTc1LTAuNzU4Yy0wLjE2LTAuMjc0LTAuMzE5LTAuNTgtMC40OTUtMC45NTEgYy0xLjI0NSwxLjQ4My0yLjgxLDIuMjI1LTQuNjk0LDIuMjI1Yy0xLjM0MSwwLTIuNDExLTAuMzg3LTMuMTkzLTEuMTYxcy0xLjE4MS0xLjgwNi0xLjE4MS0zLjA5NmMwLTEuMzcsMC40NzktMi40ODMsMS40NTMtMy4zMjEgczIuMjY3LTEuMjU4LDMuOTExLTEuMjU4YzAuNTQzLDAsMS4xMDIsMC4wNDgsMS42OTIsMC4xMjlzMS4xOTcsMC4yMSwxLjgzNiwwLjM1NXYtMS4xNzdjMC0xLjIyNS0wLjI1NS0yLjA4LTAuNzUtMi41OCBjLTAuNTExLTAuNS0xLjM3My0wLjc0Mi0yLjYwMi0wLjc0MmMtMC41NTksMC0xLjEzMywwLjA2NC0xLjcyNCwwLjIxYy0wLjU5MSwwLjE0NS0xLjE2NSwwLjMyMi0xLjcyNCwwLjU0OCBjLTAuMjU1LDAuMTEzLTAuNDQ3LDAuMTc3LTAuNTU5LDAuMjFjLTAuMTEyLDAuMDMyLTAuMTkyLDAuMDQ4LTAuMjU1LDAuMDQ4Yy0wLjIyNCwwLTAuMzM1LTAuMTYxLTAuMzM1LTAuNXYtMC43OSBjMC0wLjI1OCwwLjAzMi0wLjQ1MSwwLjExMi0wLjU2NGMwLjA4LTAuMTEzLDAuMjI0LTAuMjI2LDAuNDQ3LTAuMzM5YzAuNTU5LTAuMjksMS4yMjktMC41MzIsMi4wMTItMC43MjYgYzAuNzgyLTAuMjEsMS42MTItMC4zMDYsMi40OS0wLjMwNmMxLjksMCwzLjI4OSwwLjQzNSw0LjE4MywxLjMwNmMwLjg3OCwwLjg3MSwxLjMyNSwyLjE5MywxLjMyNSwzLjk2NnY1LjIyNEgxMy41Mjd6IE03LjA0NSwyMy45NzljMC41MjcsMCwxLjA3LTAuMDk3LDEuNjQ0LTAuMjljMC41NzUtMC4xOTMsMS4wODYtMC41NDgsMS41MTctMS4wMzJjMC4yNTUtMC4zMDYsMC40NDctMC42NDUsMC41NDMtMS4wMzIgYzAuMDk2LTAuMzg3LDAuMTYtMC44NTUsMC4xNi0xLjQwM3YtMC42NzdjLTAuNDYzLTAuMTEzLTAuOTU4LTAuMjEtMS40NjktMC4yNzRjLTAuNTExLTAuMDY0LTEuMDA2LTAuMDk3LTEuNTAxLTAuMDk3IGMtMS4wNywwLTEuODUyLDAuMjEtMi4zNzksMC42NDVzLTAuNzgyLDEuMDQ4LTAuNzgyLDEuODU0YzAsMC43NTgsMC4xOTIsMS4zMjIsMC41OTEsMS43MDkgQzUuNzUyLDIzLjc4Niw2LjMxMSwyMy45NzksNy4wNDUsMjMuOTc5eiBNMTkuODY1LDI1LjcyMWMtMC4yODcsMC0wLjQ3OS0wLjA0OC0wLjYwNy0wLjE2MWMtMC4xMjgtMC4wOTctMC4yMzktMC4zMjItMC4zMzUtMC42MjkgbC0zLjc1Mi0xMi40NjNjLTAuMDk2LTAuMzIyLTAuMTQ0LTAuNTMyLTAuMTQ0LTAuNjQ1YzAtMC4yNTgsMC4xMjgtMC40MDMsMC4zODMtMC40MDNoMS41NjVjMC4zMDMsMCwwLjUxMSwwLjA0OCwwLjYyMywwLjE2MSBjMC4xMjgsMC4wOTcsMC4yMjMsMC4zMjIsMC4zMTksMC42MjlsMi42ODIsMTAuNjc0bDIuNDktMTAuNjc0YzAuMDgtMC4zMjIsMC4xNzYtMC41MzIsMC4zMDMtMC42MjkgYzAuMTI4LTAuMDk3LDAuMzUxLTAuMTYxLDAuNjM5LTAuMTYxaDEuMjc3YzAuMzAzLDAsMC41MTEsMC4wNDgsMC42MzksMC4xNjFjMC4xMjgsMC4wOTcsMC4yMzksMC4zMjIsMC4zMDMsMC42MjlsMi41MjIsMTAuODAzIGwyLjc2Mi0xMC44MDNjMC4wOTYtMC4zMjIsMC4yMDgtMC41MzIsMC4zMTktMC42MjljMC4xMjgtMC4wOTcsMC4zMzUtMC4xNjEsMC42MjMtMC4xNjFoMS40ODVjMC4yNTUsMCwwLjM5OSwwLjEyOSwwLjM5OSwwLjQwMyBjMCwwLjA4MS0wLjAxNiwwLjE2MS0wLjAzMiwwLjI1OHMtMC4wNDgsMC4yMjYtMC4xMTIsMC40MDNsLTMuODQ3LDEyLjQ2M2MtMC4wOTYsMC4zMjItMC4yMDgsMC41MzItMC4zMzUsMC42Mjkgcy0wLjMzNSwwLjE2MS0wLjYwNywwLjE2MWgtMS4zNzNjLTAuMzAzLDAtMC41MTEtMC4wNDgtMC42MzktMC4xNjFjLTAuMTI4LTAuMTEzLTAuMjM5LTAuMzIyLTAuMzAzLTAuNjQ1bC0yLjQ3NC0xMC40IEwyMi4xOCwyNC45MTVjLTAuMDgsMC4zMjItMC4xNzYsMC41MzItMC4zMDMsMC42NDVjLTAuMTI4LDAuMTEzLTAuMzUxLDAuMTYxLTAuNjM5LDAuMTYxSDE5Ljg2NXogTTQwLjM3OSwyNi4xNTYgYy0wLjgzLDAtMS42Ni0wLjA5Ny0yLjQ1OC0wLjI5Yy0wLjc5OC0wLjE5My0xLjQyMS0wLjQwMy0xLjgzNi0wLjY0NWMtMC4yNTUtMC4xNDUtMC40MzEtMC4zMDYtMC40OTUtMC40NTEgYy0wLjA2NC0wLjE0NS0wLjA5Ni0wLjMwNi0wLjA5Ni0wLjQ1MXYtMC44MjJjMC0wLjMzOSwwLjEyOC0wLjUsMC4zNjctMC41YzAuMDk2LDAsMC4xOTIsMC4wMTYsMC4yODcsMC4wNDggYzAuMDk2LDAuMDMyLDAuMjM5LDAuMDk3LDAuMzk5LDAuMTYxYzAuNTQzLDAuMjQyLDEuMTMzLDAuNDM1LDEuNzU2LDAuNTY0YzAuNjM5LDAuMTI5LDEuMjYxLDAuMTkzLDEuOSwwLjE5MyBjMS4wMDYsMCwxLjc4OC0wLjE3NywyLjMzMS0wLjUzMmMwLjU0My0wLjM1NSwwLjgzLTAuODcxLDAuODMtMS41MzJjMC0wLjQ1MS0wLjE0NC0wLjgyMi0wLjQzMS0xLjEyOSBjLTAuMjg3LTAuMzA2LTAuODMtMC41OC0xLjYxMi0wLjgzOGwtMi4zMTUtMC43MjZjLTEuMTY1LTAuMzcxLTIuMDI3LTAuOTE5LTIuNTU0LTEuNjQ1Yy0wLjUyNy0wLjcwOS0wLjc5OC0xLjQ5OS0wLjc5OC0yLjMzOCBjMC0wLjY3NywwLjE0NC0xLjI3NCwwLjQzMS0xLjc5czAuNjcxLTAuOTY3LDEuMTQ5LTEuMzIyYzAuNDc5LTAuMzcxLDEuMDIyLTAuNjQ1LDEuNjYtMC44MzhDMzkuNTMzLDExLjA4MSw0MC4yMDMsMTEsNDAuOTA2LDExIGMwLjM1MSwwLDAuNzE4LDAuMDE2LDEuMDcsMC4wNjRjMC4zNjcsMC4wNDgsMC43MDIsMC4xMTMsMS4wMzgsMC4xNzdjMC4zMTksMC4wODEsMC42MjMsMC4xNjEsMC45MSwwLjI1OHMwLjUxMSwwLjE5MywwLjY3MSwwLjI5IGMwLjIyNCwwLjEyOSwwLjM4MywwLjI1OCwwLjQ3OSwwLjQwM2MwLjA5NiwwLjEyOSwwLjE0NCwwLjMwNiwwLjE0NCwwLjUzMnYwLjc1OGMwLDAuMzM5LTAuMTI4LDAuNTE2LTAuMzY3LDAuNTE2IGMtMC4xMjgsMC0wLjMzNS0wLjA2NC0wLjYwNy0wLjE5M2MtMC45MS0wLjQxOS0xLjkzMi0wLjYyOS0zLjA2NS0wLjYyOWMtMC45MSwwLTEuNjI4LDAuMTQ1LTIuMTIzLDAuNDUxIGMtMC40OTUsMC4zMDYtMC43NSwwLjc3NC0wLjc1LDEuNDM1YzAsMC40NTEsMC4xNiwwLjgzOCwwLjQ3OSwxLjE0NWMwLjMxOSwwLjMwNiwwLjkxLDAuNjEzLDEuNzU2LDAuODg3bDIuMjY3LDAuNzI2IGMxLjE0OSwwLjM3MSwxLjk4LDAuODg3LDIuNDc0LDEuNTQ4czAuNzM0LDEuNDE5LDAuNzM0LDIuMjU3YzAsMC42OTMtMC4xNDQsMS4zMjItMC40MTUsMS44NyBjLTAuMjg3LDAuNTQ4LTAuNjcxLDEuMDMyLTEuMTY1LDEuNDE5Yy0wLjQ5NSwwLjQwMy0xLjA4NiwwLjY5My0xLjc3MiwwLjkwM0M0MS45NDMsMjYuMDQzLDQxLjE5MywyNi4xNTYsNDAuMzc5LDI2LjE1NnoiIGZpbGw9IiMyNTJmM2UiLz48cGF0aCBkPSJNNDMuMzk2LDMzLjk5MmMtNS4yNTIsMy45MTgtMTIuODgzLDUuOTk4LTE5LjQ0NSw1Ljk5OGMtOS4xOTUsMC0xNy40ODEtMy40MzQtMjMuNzM5LTkuMTQyIGMtMC40OTUtMC40NTEtMC4wNDgtMS4wNjQsMC41NDMtMC43MDljNi43NjksMy45NjYsMTUuMTE4LDYuMzY5LDIzLjc1NSw2LjM2OWM1LjgyNywwLDEyLjIyOS0xLjIyNSwxOC4xMTktMy43NDEgQzQzLjUwOCwzMi4zNjQsNDQuMjU4LDMzLjM0Nyw0My4zOTYsMzMuOTkyeiBNNDUuNTgzLDMxLjQ3N2MtMC42NzEtMC44NzEtNC40MzgtMC40MTktNi4xNDYtMC4yMSBjLTAuNTExLDAuMDY0LTAuNTkxLTAuMzg3LTAuMTI4LTAuNzI2YzMuMDAxLTIuMTI4LDcuOTM0LTEuNTE2LDguNTA5LTAuODA2YzAuNTc1LDAuNzI2LTAuMTYsNS43MDgtMi45NjksOC4wOTQgYy0wLjQzMSwwLjM3MS0wLjg0NiwwLjE3Ny0wLjY1NS0wLjMwNkM0NC44MzMsMzUuOTI3LDQ2LjI1NCwzMi4zMzEsNDUuNTgzLDMxLjQ3N3oiIGZpbGw9IiNmOTAiLz48L3N2Zz4=;aspect=fixed;imageBorder=none;" parent="SGmXH1uzqU8MEBnB1vXx-2" vertex="1">
          <mxGeometry width="40" height="40" as="geometry" />
        </mxCell>
        <mxCell id="SGmXH1uzqU8MEBnB1vXx-7" value="Code Artifacts&lt;br&gt;Bucket" style="sketch=0;points=[[0,0,0],[0.25,0,0],[0.5,0,0],[0.75,0,0],[1,0,0],[0,1,0],[0.25,1,0],[0.5,1,0],[0.75,1,0],[1,1,0],[0,0.25,0],[0,0.5,0],[0,0.75,0],[1,0.25,0],[1,0.5,0],[1,0.75,0]];outlineConnect=0;fontColor=#232F3E;gradientColor=#60A337;gradientDirection=north;fillColor=#277116;strokeColor=#ffffff;dashed=0;verticalLabelPosition=bottom;verticalAlign=top;align=center;html=1;fontSize=12;fontStyle=0;aspect=fixed;shape=mxgraph.aws4.resourceIcon;resIcon=mxgraph.aws4.s3;" parent="SGmXH1uzqU8MEBnB1vXx-2" vertex="1">
          <mxGeometry x="80" y="240" width="80" height="80" as="geometry" />
        </mxCell>
        <mxCell id="SGmXH1uzqU8MEBnB1vXx-8" value="Lambda Layer" style="sketch=0;outlineConnect=0;fontColor=#232F3E;gradientColor=none;fillColor=#D45B07;strokeColor=none;dashed=0;verticalLabelPosition=bottom;verticalAlign=top;align=center;html=1;fontSize=12;fontStyle=0;aspect=fixed;pointerEvents=1;shape=mxgraph.aws4.lambda_function;" parent="SGmXH1uzqU8MEBnB1vXx-2" vertex="1">
          <mxGeometry x="200" y="240" width="80" height="80" as="geometry" />
        </mxCell>
        <mxCell id="SGmXH1uzqU8MEBnB1vXx-9" value="Master&lt;br&gt;Parameter Store" style="sketch=0;outlineConnect=0;fontColor=#232F3E;gradientColor=none;fillColor=#B0084D;strokeColor=none;dashed=0;verticalLabelPosition=bottom;verticalAlign=top;align=center;html=1;fontSize=12;fontStyle=0;pointerEvents=1;shape=mxgraph.aws4.parameter_store;" parent="SGmXH1uzqU8MEBnB1vXx-2" vertex="1">
          <mxGeometry x="440" y="240" width="80" height="88" as="geometry" />
        </mxCell>
        <mxCell id="SGmXH1uzqU8MEBnB1vXx-10" value="Container&lt;br&gt;Registry" style="sketch=0;points=[[0,0,0],[0.25,0,0],[0.5,0,0],[0.75,0,0],[1,0,0],[0,1,0],[0.25,1,0],[0.5,1,0],[0.75,1,0],[1,1,0],[0,0.25,0],[0,0.5,0],[0,0.75,0],[1,0.25,0],[1,0.5,0],[1,0.75,0]];outlineConnect=0;fontColor=#232F3E;gradientColor=#F78E04;gradientDirection=north;fillColor=#D05C17;strokeColor=#ffffff;dashed=0;verticalLabelPosition=bottom;verticalAlign=top;align=center;html=1;fontSize=12;fontStyle=0;aspect=fixed;shape=mxgraph.aws4.resourceIcon;resIcon=mxgraph.aws4.ecr;" parent="SGmXH1uzqU8MEBnB1vXx-2" vertex="1">
          <mxGeometry x="320" y="240" width="80" height="80" as="geometry" />
        </mxCell>
        <mxCell id="SGmXH1uzqU8MEBnB1vXx-11" value="DevOps Account" style="text;html=1;strokeColor=none;fillColor=none;align=center;verticalAlign=middle;whiteSpace=wrap;rounded=0;" parent="SGmXH1uzqU8MEBnB1vXx-2" vertex="1">
          <mxGeometry x="40" width="120" height="44" as="geometry" />
        </mxCell>
        <mxCell id="SGmXH1uzqU8MEBnB1vXx-12" value="Deployer Role" style="sketch=0;outlineConnect=0;fontColor=#232F3E;gradientColor=none;fillColor=#277116;strokeColor=none;dashed=0;verticalLabelPosition=bottom;verticalAlign=top;align=center;html=1;fontSize=12;fontStyle=0;pointerEvents=1;shape=mxgraph.aws4.role;" parent="SGmXH1uzqU8MEBnB1vXx-2" vertex="1">
          <mxGeometry x="440" y="80" width="80" height="40" as="geometry" />
        </mxCell>
        <mxCell id="zX08OaSTvyxJ8ZxqYfjK-1" value="Lambda&#xa;Source" style="shape=image;verticalLabelPosition=bottom;labelBackgroundColor=default;verticalAlign=top;aspect=fixed;imageAspect=0;image=data:image/svg+xml,PHN2ZyB4bWxucz0iaHR0cDovL3d3dy53My5vcmcvMjAwMC9zdmciIGhlaWdodD0iNDhweCIgd2lkdGg9IjQ4cHgiIHZpZXdCb3g9IjAgMCA0OCA0OCI+PHBhdGggZD0iTTE3IDI0TDcgMTcuNDY3YzAgMCAxLTEuODY1IDEtMy43MzJTNyAxMCA3IDEwbDEwIDYuNTMzVjI0ek0xNyA0MEw3IDMyLjUzM2MwIDAgMS0uOTM0IDEtMi44UzcgMjYgNyAyNmwxMCA2LjUzM1Y0MHpNMTcgMzJMNyAyNC41MzNjMCAwIDEtLjkzNCAxLTIuOFM3IDE4IDcgMThsMTAgNi41MzNWMzJ6IiBmaWxsPSIjQ0ZEOERDIi8+PHBhdGggZD0iTTE3LjYyNCwzNGMtMC4yMTksMC0wLjQ0LTAuMDcxLTAuNjI0LTAuMjE5bC0xMC42MjUtOGMtMC40MzItMC4zNDYtMC41MDEtMC45NzUtMC4xNTYtMS40MDZjMC4zNDQtMC40MzEsMC45NzUtMC41MDEsMS40MDUtMC4xNTZsMTAuNjI1LDhjMC40MzIsMC4zNDYsMC41MDEsMC45NzUsMC4xNTYsMS40MDZDMTguMjA4LDMzLjg3MSwxNy45MTcsMzQsMTcuNjI0LDM0eiIgZmlsbD0iIzNGNTFCNSIvPjxwYXRoIGQ9Ik00MiwyNUgxNmMwLDAsMSwxLjc0MiwxLDQuMjQ2UzE2LDMzLDE2LDMzaDI2YzAsMCwxLTEsMS00UzQyLDI1LDQyLDI1eiIgZmlsbD0iIzNGNTFCNSIvPjxwYXRoIGQ9Ik0xNy42MjQsMjZjLTAuMjE5LDAtMC40NC0wLjA3MS0wLjYyNC0wLjIxOWwtMTAuNjI1LThjLTAuNDMyLTAuMzQ2LTAuNTAxLTAuOTc1LTAuMTU2LTEuNDA2YzAuMzQ0LTAuNDMxLDAuOTc1LTAuNTAyLDEuNDA1LTAuMTU2bDEwLjYyNSw4YzAuNDMyLDAuMzQ2LDAuNTAxLDAuOTc1LDAuMTU2LDEuNDA2QzE4LjIwOCwyNS44NzEsMTcuOTE3LDI2LDE3LjYyNCwyNnoiIGZpbGw9IiM5QzI3QjAiLz48cGF0aCBkPSJNNDIsMTdIMTZjMCwwLDEsMS43NDIsMSw0LjI0NlMxNiwyNSwxNiwyNWgyNmMwLDAsMS0xLDEtNFM0MiwxNyw0MiwxN3oiIGZpbGw9IiM5QzI3QjAiLz48cGF0aCBkPSJNMTguNjA5LDQxYzAtMC4yOTMtMC4xMTMtMC41ODQtMC4zNi0wLjc4MWwtMTAuNjI1LThjLTAuNDMtMC4zNDUtMS4wNjEtMC4yNzQtMS40MDUsMC4xNTZjLTAuMzQ1LDAuNDMyLTAuMjc1LDEuMDYxLDAuMTU2LDEuNDA2TDE1Ljk2Miw0MUgxOC42MDl6IiBmaWxsPSIjOEJDMzRBIi8+PHBhdGggZD0iTTQyLDMzSDE2YzAsMCwxLDEuNzQyLDEsNC4yNDZTMTYsNDEsMTYsNDFoMjZjMCwwLDEtMSwxLTRTNDIsMzMsNDIsMzN6IiBmaWxsPSIjOEJDMzRBIi8+PHBhdGggZD0iTTQyLDMzSDE2YzAsMCwwLjQ0MSwwLjc1NiwwLjczMywyaDI2LjAzNUM0Mi40NzMsMzMuNTU5LDQyLDMzLDQyLDMzeiIgZmlsbD0iIzY4OUYzOCIvPjxwYXRoIGQ9Ik00MiwyNUgxNmMwLDAsMC40NDEsMC43NTYsMC43MzMsMmgyNi4wMzVDNDIuNDczLDI1LjU1OSw0MiwyNSw0MiwyNXoiIGZpbGw9IiMzMDNGOUYiLz48cGF0aCBkPSJNMjEuMDM0IDMyYy4xMS0uNDUuMjk5LTEuMzc5LjI5OS0yLjVzLS4xODktMi4wNS0uMjk5LTIuNUgxOWMuMDAzLjAwOS4zMzMgMS4yNjcuMzMzIDIuNVMxOS4wMDIgMzEuOTkzIDE5IDMySDIxLjAzNHpNMjEuMDM0IDI0Yy4xMS0uNDUuMjk5LTEuMzc5LjI5OS0yLjVzLS4xODktMi4wNS0uMjk5LTIuNUgxOWMuMDAzLjAwOS4zMzMgMS4yNjcuMzMzIDIuNVMxOS4wMDIgMjMuOTkzIDE5IDI0SDIxLjAzNHpNMjEuMDM0IDQwYy4xMS0uNDUuMjk5LTEuMzc5LjI5OS0yLjVzLS4xODktMi4wNS0uMjk5LTIuNUgxOWMuMDAzLjAwOS4zMzMgMS4yNjcuMzMzIDIuNVMxOS4wMDIgMzkuOTkzIDE5IDQwSDIxLjAzNHoiIGZpbGw9IiNGREQ4MzUiLz48cGF0aCBkPSJNNDIuNzY4LDE5QzQyLjQ3MywxNy41NTksNDIsMTcsNDIsMTdMMzAuODQ0LDguNTkxQzMwLjg0NCw4LjU5MSwzMC4wNjMsOCwyOSw4QzI3Ljc3MSw4LDcsOCw3LDhsMC4wMTgsMC4wMThDNi43MDMsOC4wMTIsNi4zOSw4LjEzNyw2LjE5MSw4LjQxMmMtMC4zMjUsMC40NDYtMC4yMjYsMS4wNzIsMC4yMiwxLjM5Nmw5LjczNyw3LjQ3YzAuMTYxLDAuMzI1LDAuNDE4LDAuOTIsMC42MDcsMS43MjJINDIuNzY4eiIgZmlsbD0iIzdCMUZBMiIvPjxwYXRoIGQ9Ik0zMiwxNkwyMSw4aC01bDExLDhjMS43NSwxLjI1LDIsMS42MjUsMiwzczAsMTksMCwxOXMwLDMtMiwzYzEuMDU2LDAsMy42NzgsMCw1LDBjMiwwLDItMywyLTNzMC0xOCwwLTE5QzM0LDE3LDMyLjQzOCwxNi40MzgsMzIsMTZ6IiBmaWxsPSIjQUY3MDAwIi8+PGc+PHBhdGggZD0iTTM0LDI3djRoLTV2LTRIMzQgTTM0LjI1LDI2aC01LjVDMjguMzM2LDI2LDI4LDI2LjMzNiwyOCwyNi43NXY0LjVjMCwwLjQxNCwwLjMzNiwwLjc1LDAuNzUsMC43NWg1LjVjMC40MTQsMCwwLjc1LTAuMzM2LDAuNzUtMC43NXYtNC41QzM1LDI2LjMzNiwzNC42NjQsMjYsMzQuMjUsMjZMMzQuMjUsMjZ6IiBmaWxsPSIjRkZDMTA3Ii8+PC9nPjxwYXRoIGQ9Ik0zMS41IDI4LjVBMC41IDAuNSAwIDEgMCAzMS41IDI5LjVBMC41IDAuNSAwIDEgMCAzMS41IDI4LjVaIiBmaWxsPSIjNUIzQjA3Ii8+PHBhdGggZD0iTTMxLjUsMjljLTAuMjc2LDAtMC41LTAuMjI0LTAuNS0wLjV2LTNjMC0wLjI3NiwwLjIyNC0wLjUsMC41LTAuNXMwLjUsMC4yMjQsMC41LDAuNXYzQzMyLDI4Ljc3NiwzMS43NzYsMjksMzEuNSwyOXoiIGZpbGw9IiNGRkVCM0IiLz48L3N2Zz4=;" parent="SGmXH1uzqU8MEBnB1vXx-2" vertex="1">
          <mxGeometry x="60" y="360" width="40" height="40" as="geometry" />
        </mxCell>
        <mxCell id="zX08OaSTvyxJ8ZxqYfjK-2" value="Lambda&#xa;Layer" style="shape=image;verticalLabelPosition=bottom;labelBackgroundColor=default;verticalAlign=top;aspect=fixed;imageAspect=0;image=data:image/svg+xml,PHN2ZyB4bWxucz0iaHR0cDovL3d3dy53My5vcmcvMjAwMC9zdmciIGhlaWdodD0iNDhweCIgd2lkdGg9IjQ4cHgiIHZpZXdCb3g9IjAgMCA0OCA0OCI+PHBhdGggZD0iTTE3IDI0TDcgMTcuNDY3YzAgMCAxLTEuODY1IDEtMy43MzJTNyAxMCA3IDEwbDEwIDYuNTMzVjI0ek0xNyA0MEw3IDMyLjUzM2MwIDAgMS0uOTM0IDEtMi44UzcgMjYgNyAyNmwxMCA2LjUzM1Y0MHpNMTcgMzJMNyAyNC41MzNjMCAwIDEtLjkzNCAxLTIuOFM3IDE4IDcgMThsMTAgNi41MzNWMzJ6IiBmaWxsPSIjQ0ZEOERDIi8+PHBhdGggZD0iTTE3LjYyNCwzNGMtMC4yMTksMC0wLjQ0LTAuMDcxLTAuNjI0LTAuMjE5bC0xMC42MjUtOGMtMC40MzItMC4zNDYtMC41MDEtMC45NzUtMC4xNTYtMS40MDZjMC4zNDQtMC40MzEsMC45NzUtMC41MDEsMS40MDUtMC4xNTZsMTAuNjI1LDhjMC40MzIsMC4zNDYsMC41MDEsMC45NzUsMC4xNTYsMS40MDZDMTguMjA4LDMzLjg3MSwxNy45MTcsMzQsMTcuNjI0LDM0eiIgZmlsbD0iIzNGNTFCNSIvPjxwYXRoIGQ9Ik00MiwyNUgxNmMwLDAsMSwxLjc0MiwxLDQuMjQ2UzE2LDMzLDE2LDMzaDI2YzAsMCwxLTEsMS00UzQyLDI1LDQyLDI1eiIgZmlsbD0iIzNGNTFCNSIvPjxwYXRoIGQ9Ik0xNy42MjQsMjZjLTAuMjE5LDAtMC40NC0wLjA3MS0wLjYyNC0wLjIxOWwtMTAuNjI1LThjLTAuNDMyLTAuMzQ2LTAuNTAxLTAuOTc1LTAuMTU2LTEuNDA2YzAuMzQ0LTAuNDMxLDAuOTc1LTAuNTAyLDEuNDA1LTAuMTU2bDEwLjYyNSw4YzAuNDMyLDAuMzQ2LDAuNTAxLDAuOTc1LDAuMTU2LDEuNDA2QzE4LjIwOCwyNS44NzEsMTcuOTE3LDI2LDE3LjYyNCwyNnoiIGZpbGw9IiM5QzI3QjAiLz48cGF0aCBkPSJNNDIsMTdIMTZjMCwwLDEsMS43NDIsMSw0LjI0NlMxNiwyNSwxNiwyNWgyNmMwLDAsMS0xLDEtNFM0MiwxNyw0MiwxN3oiIGZpbGw9IiM5QzI3QjAiLz48cGF0aCBkPSJNMTguNjA5LDQxYzAtMC4yOTMtMC4xMTMtMC41ODQtMC4zNi0wLjc4MWwtMTAuNjI1LThjLTAuNDMtMC4zNDUtMS4wNjEtMC4yNzQtMS40MDUsMC4xNTZjLTAuMzQ1LDAuNDMyLTAuMjc1LDEuMDYxLDAuMTU2LDEuNDA2TDE1Ljk2Miw0MUgxOC42MDl6IiBmaWxsPSIjOEJDMzRBIi8+PHBhdGggZD0iTTQyLDMzSDE2YzAsMCwxLDEuNzQyLDEsNC4yNDZTMTYsNDEsMTYsNDFoMjZjMCwwLDEtMSwxLTRTNDIsMzMsNDIsMzN6IiBmaWxsPSIjOEJDMzRBIi8+PHBhdGggZD0iTTQyLDMzSDE2YzAsMCwwLjQ0MSwwLjc1NiwwLjczMywyaDI2LjAzNUM0Mi40NzMsMzMuNTU5LDQyLDMzLDQyLDMzeiIgZmlsbD0iIzY4OUYzOCIvPjxwYXRoIGQ9Ik00MiwyNUgxNmMwLDAsMC40NDEsMC43NTYsMC43MzMsMmgyNi4wMzVDNDIuNDczLDI1LjU1OSw0MiwyNSw0MiwyNXoiIGZpbGw9IiMzMDNGOUYiLz48cGF0aCBkPSJNMjEuMDM0IDMyYy4xMS0uNDUuMjk5LTEuMzc5LjI5OS0yLjVzLS4xODktMi4wNS0uMjk5LTIuNUgxOWMuMDAzLjAwOS4zMzMgMS4yNjcuMzMzIDIuNVMxOS4wMDIgMzEuOTkzIDE5IDMySDIxLjAzNHpNMjEuMDM0IDI0Yy4xMS0uNDUuMjk5LTEuMzc5LjI5OS0yLjVzLS4xODktMi4wNS0uMjk5LTIuNUgxOWMuMDAzLjAwOS4zMzMgMS4yNjcuMzMzIDIuNVMxOS4wMDIgMjMuOTkzIDE5IDI0SDIxLjAzNHpNMjEuMDM0IDQwYy4xMS0uNDUuMjk5LTEuMzc5LjI5OS0yLjVzLS4xODktMi4wNS0uMjk5LTIuNUgxOWMuMDAzLjAwOS4zMzMgMS4yNjcuMzMzIDIuNVMxOS4wMDIgMzkuOTkzIDE5IDQwSDIxLjAzNHoiIGZpbGw9IiNGREQ4MzUiLz48cGF0aCBkPSJNNDIuNzY4LDE5QzQyLjQ3MywxNy41NTksNDIsMTcsNDIsMTdMMzAuODQ0LDguNTkxQzMwLjg0NCw4LjU5MSwzMC4wNjMsOCwyOSw4QzI3Ljc3MSw4LDcsOCw3LDhsMC4wMTgsMC4wMThDNi43MDMsOC4wMTIsNi4zOSw4LjEzNyw2LjE5MSw4LjQxMmMtMC4zMjUsMC40NDYtMC4yMjYsMS4wNzIsMC4yMiwxLjM5Nmw5LjczNyw3LjQ3YzAuMTYxLDAuMzI1LDAuNDE4LDAuOTIsMC42MDcsMS43MjJINDIuNzY4eiIgZmlsbD0iIzdCMUZBMiIvPjxwYXRoIGQ9Ik0zMiwxNkwyMSw4aC01bDExLDhjMS43NSwxLjI1LDIsMS42MjUsMiwzczAsMTksMCwxOXMwLDMtMiwzYzEuMDU2LDAsMy42NzgsMCw1LDBjMiwwLDItMywyLTNzMC0xOCwwLTE5QzM0LDE3LDMyLjQzOCwxNi40MzgsMzIsMTZ6IiBmaWxsPSIjQUY3MDAwIi8+PGc+PHBhdGggZD0iTTM0LDI3djRoLTV2LTRIMzQgTTM0LjI1LDI2aC01LjVDMjguMzM2LDI2LDI4LDI2LjMzNiwyOCwyNi43NXY0LjVjMCwwLjQxNCwwLjMzNiwwLjc1LDAuNzUsMC43NWg1LjVjMC40MTQsMCwwLjc1LTAuMzM2LDAuNzUtMC43NXYtNC41QzM1LDI2LjMzNiwzNC42NjQsMjYsMzQuMjUsMjZMMzQuMjUsMjZ6IiBmaWxsPSIjRkZDMTA3Ii8+PC9nPjxwYXRoIGQ9Ik0zMS41IDI4LjVBMC41IDAuNSAwIDEgMCAzMS41IDI5LjVBMC41IDAuNSAwIDEgMCAzMS41IDI4LjVaIiBmaWxsPSIjNUIzQjA3Ii8+PHBhdGggZD0iTTMxLjUsMjljLTAuMjc2LDAtMC41LTAuMjI0LTAuNS0wLjV2LTNjMC0wLjI3NiwwLjIyNC0wLjUsMC41LTAuNXMwLjUsMC4yMjQsMC41LDAuNXYzQzMyLDI4Ljc3NiwzMS43NzYsMjksMzEuNSwyOXoiIGZpbGw9IiNGRkVCM0IiLz48L3N2Zz4=;" parent="SGmXH1uzqU8MEBnB1vXx-2" vertex="1">
          <mxGeometry x="140" y="360" width="40" height="40" as="geometry" />
        </mxCell>
        <mxCell id="SGmXH1uzqU8MEBnB1vXx-13" value="" style="shape=image;verticalLabelPosition=bottom;labelBackgroundColor=default;verticalAlign=top;imageAspect=0;image=data:image/svg+xml,PHN2ZyB4bWxucz0iaHR0cDovL3d3dy53My5vcmcvMjAwMC9zdmciIGhlaWdodD0iNDhweCIgd2lkdGg9IjQ4cHgiIHZpZXdCb3g9IjAgMCA0OCA0OCI+PHBhdGggZD0iTTEzLjUyNywyMS41MjljMCwwLjU5NywwLjA2NCwxLjA4LDAuMTc2LDEuNDM1YzAuMTI4LDAuMzU1LDAuMjg3LDAuNzQyLDAuNTExLDEuMTYxIGMwLjA4LDAuMTI5LDAuMTEyLDAuMjU4LDAuMTEyLDAuMzcxYzAsMC4xNjEtMC4wOTYsMC4zMjItMC4zMDMsMC40ODRsLTEuMDA2LDAuNjc3Yy0wLjE0NCwwLjA5Ny0wLjI4NywwLjE0NS0wLjQxNSwwLjE0NSBjLTAuMTYsMC0wLjMxOS0wLjA4MS0wLjQ3OS0wLjIyNmMtMC4yMjQtMC4yNDItMC40MTUtMC41LTAuNTc1LTAuNzU4Yy0wLjE2LTAuMjc0LTAuMzE5LTAuNTgtMC40OTUtMC45NTEgYy0xLjI0NSwxLjQ4My0yLjgxLDIuMjI1LTQuNjk0LDIuMjI1Yy0xLjM0MSwwLTIuNDExLTAuMzg3LTMuMTkzLTEuMTYxcy0xLjE4MS0xLjgwNi0xLjE4MS0zLjA5NmMwLTEuMzcsMC40NzktMi40ODMsMS40NTMtMy4zMjEgczIuMjY3LTEuMjU4LDMuOTExLTEuMjU4YzAuNTQzLDAsMS4xMDIsMC4wNDgsMS42OTIsMC4xMjlzMS4xOTcsMC4yMSwxLjgzNiwwLjM1NXYtMS4xNzdjMC0xLjIyNS0wLjI1NS0yLjA4LTAuNzUtMi41OCBjLTAuNTExLTAuNS0xLjM3My0wLjc0Mi0yLjYwMi0wLjc0MmMtMC41NTksMC0xLjEzMywwLjA2NC0xLjcyNCwwLjIxYy0wLjU5MSwwLjE0NS0xLjE2NSwwLjMyMi0xLjcyNCwwLjU0OCBjLTAuMjU1LDAuMTEzLTAuNDQ3LDAuMTc3LTAuNTU5LDAuMjFjLTAuMTEyLDAuMDMyLTAuMTkyLDAuMDQ4LTAuMjU1LDAuMDQ4Yy0wLjIyNCwwLTAuMzM1LTAuMTYxLTAuMzM1LTAuNXYtMC43OSBjMC0wLjI1OCwwLjAzMi0wLjQ1MSwwLjExMi0wLjU2NGMwLjA4LTAuMTEzLDAuMjI0LTAuMjI2LDAuNDQ3LTAuMzM5YzAuNTU5LTAuMjksMS4yMjktMC41MzIsMi4wMTItMC43MjYgYzAuNzgyLTAuMjEsMS42MTItMC4zMDYsMi40OS0wLjMwNmMxLjksMCwzLjI4OSwwLjQzNSw0LjE4MywxLjMwNmMwLjg3OCwwLjg3MSwxLjMyNSwyLjE5MywxLjMyNSwzLjk2NnY1LjIyNEgxMy41Mjd6IE03LjA0NSwyMy45NzljMC41MjcsMCwxLjA3LTAuMDk3LDEuNjQ0LTAuMjljMC41NzUtMC4xOTMsMS4wODYtMC41NDgsMS41MTctMS4wMzJjMC4yNTUtMC4zMDYsMC40NDctMC42NDUsMC41NDMtMS4wMzIgYzAuMDk2LTAuMzg3LDAuMTYtMC44NTUsMC4xNi0xLjQwM3YtMC42NzdjLTAuNDYzLTAuMTEzLTAuOTU4LTAuMjEtMS40NjktMC4yNzRjLTAuNTExLTAuMDY0LTEuMDA2LTAuMDk3LTEuNTAxLTAuMDk3IGMtMS4wNywwLTEuODUyLDAuMjEtMi4zNzksMC42NDVzLTAuNzgyLDEuMDQ4LTAuNzgyLDEuODU0YzAsMC43NTgsMC4xOTIsMS4zMjIsMC41OTEsMS43MDkgQzUuNzUyLDIzLjc4Niw2LjMxMSwyMy45NzksNy4wNDUsMjMuOTc5eiBNMTkuODY1LDI1LjcyMWMtMC4yODcsMC0wLjQ3OS0wLjA0OC0wLjYwNy0wLjE2MWMtMC4xMjgtMC4wOTctMC4yMzktMC4zMjItMC4zMzUtMC42MjkgbC0zLjc1Mi0xMi40NjNjLTAuMDk2LTAuMzIyLTAuMTQ0LTAuNTMyLTAuMTQ0LTAuNjQ1YzAtMC4yNTgsMC4xMjgtMC40MDMsMC4zODMtMC40MDNoMS41NjVjMC4zMDMsMCwwLjUxMSwwLjA0OCwwLjYyMywwLjE2MSBjMC4xMjgsMC4wOTcsMC4yMjMsMC4zMjIsMC4zMTksMC42MjlsMi42ODIsMTAuNjc0bDIuNDktMTAuNjc0YzAuMDgtMC4zMjIsMC4xNzYtMC41MzIsMC4zMDMtMC42MjkgYzAuMTI4LTAuMDk3LDAuMzUxLTAuMTYxLDAuNjM5LTAuMTYxaDEuMjc3YzAuMzAzLDAsMC41MTEsMC4wNDgsMC42MzksMC4xNjFjMC4xMjgsMC4wOTcsMC4yMzksMC4zMjIsMC4zMDMsMC42MjlsMi41MjIsMTAuODAzIGwyLjc2Mi0xMC44MDNjMC4wOTYtMC4zMjIsMC4yMDgtMC41MzIsMC4zMTktMC42MjljMC4xMjgtMC4wOTcsMC4zMzUtMC4xNjEsMC42MjMtMC4xNjFoMS40ODVjMC4yNTUsMCwwLjM5OSwwLjEyOSwwLjM5OSwwLjQwMyBjMCwwLjA4MS0wLjAxNiwwLjE2MS0wLjAzMiwwLjI1OHMtMC4wNDgsMC4yMjYtMC4xMTIsMC40MDNsLTMuODQ3LDEyLjQ2M2MtMC4wOTYsMC4zMjItMC4yMDgsMC41MzItMC4zMzUsMC42Mjkgcy0wLjMzNSwwLjE2MS0wLjYwNywwLjE2MWgtMS4zNzNjLTAuMzAzLDAtMC41MTEtMC4wNDgtMC42MzktMC4xNjFjLTAuMTI4LTAuMTEzLTAuMjM5LTAuMzIyLTAuMzAzLTAuNjQ1bC0yLjQ3NC0xMC40IEwyMi4xOCwyNC45MTVjLTAuMDgsMC4zMjItMC4xNzYsMC41MzItMC4zMDMsMC42NDVjLTAuMTI4LDAuMTEzLTAuMzUxLDAuMTYxLTAuNjM5LDAuMTYxSDE5Ljg2NXogTTQwLjM3OSwyNi4xNTYgYy0wLjgzLDAtMS42Ni0wLjA5Ny0yLjQ1OC0wLjI5Yy0wLjc5OC0wLjE5My0xLjQyMS0wLjQwMy0xLjgzNi0wLjY0NWMtMC4yNTUtMC4xNDUtMC40MzEtMC4zMDYtMC40OTUtMC40NTEgYy0wLjA2NC0wLjE0NS0wLjA5Ni0wLjMwNi0wLjA5Ni0wLjQ1MXYtMC44MjJjMC0wLjMzOSwwLjEyOC0wLjUsMC4zNjctMC41YzAuMDk2LDAsMC4xOTIsMC4wMTYsMC4yODcsMC4wNDggYzAuMDk2LDAuMDMyLDAuMjM5LDAuMDk3LDAuMzk5LDAuMTYxYzAuNTQzLDAuMjQyLDEuMTMzLDAuNDM1LDEuNzU2LDAuNTY0YzAuNjM5LDAuMTI5LDEuMjYxLDAuMTkzLDEuOSwwLjE5MyBjMS4wMDYsMCwxLjc4OC0wLjE3NywyLjMzMS0wLjUzMmMwLjU0My0wLjM1NSwwLjgzLTAuODcxLDAuODMtMS41MzJjMC0wLjQ1MS0wLjE0NC0wLjgyMi0wLjQzMS0xLjEyOSBjLTAuMjg3LTAuMzA2LTAuODMtMC41OC0xLjYxMi0wLjgzOGwtMi4zMTUtMC43MjZjLTEuMTY1LTAuMzcxLTIuMDI3LTAuOTE5LTIuNTU0LTEuNjQ1Yy0wLjUyNy0wLjcwOS0wLjc5OC0xLjQ5OS0wLjc5OC0yLjMzOCBjMC0wLjY3NywwLjE0NC0xLjI3NCwwLjQzMS0xLjc5czAuNjcxLTAuOTY3LDEuMTQ5LTEuMzIyYzAuNDc5LTAuMzcxLDEuMDIyLTAuNjQ1LDEuNjYtMC44MzhDMzkuNTMzLDExLjA4MSw0MC4yMDMsMTEsNDAuOTA2LDExIGMwLjM1MSwwLDAuNzE4LDAuMDE2LDEuMDcsMC4wNjRjMC4zNjcsMC4wNDgsMC43MDIsMC4xMTMsMS4wMzgsMC4xNzdjMC4zMTksMC4wODEsMC42MjMsMC4xNjEsMC45MSwwLjI1OHMwLjUxMSwwLjE5MywwLjY3MSwwLjI5IGMwLjIyNCwwLjEyOSwwLjM4MywwLjI1OCwwLjQ3OSwwLjQwM2MwLjA5NiwwLjEyOSwwLjE0NCwwLjMwNiwwLjE0NCwwLjUzMnYwLjc1OGMwLDAuMzM5LTAuMTI4LDAuNTE2LTAuMzY3LDAuNTE2IGMtMC4xMjgsMC0wLjMzNS0wLjA2NC0wLjYwNy0wLjE5M2MtMC45MS0wLjQxOS0xLjkzMi0wLjYyOS0zLjA2NS0wLjYyOWMtMC45MSwwLTEuNjI4LDAuMTQ1LTIuMTIzLDAuNDUxIGMtMC40OTUsMC4zMDYtMC43NSwwLjc3NC0wLjc1LDEuNDM1YzAsMC40NTEsMC4xNiwwLjgzOCwwLjQ3OSwxLjE0NWMwLjMxOSwwLjMwNiwwLjkxLDAuNjEzLDEuNzU2LDAuODg3bDIuMjY3LDAuNzI2IGMxLjE0OSwwLjM3MSwxLjk4LDAuODg3LDIuNDc0LDEuNTQ4czAuNzM0LDEuNDE5LDAuNzM0LDIuMjU3YzAsMC42OTMtMC4xNDQsMS4zMjItMC40MTUsMS44NyBjLTAuMjg3LDAuNTQ4LTAuNjcxLDEuMDMyLTEuMTY1LDEuNDE5Yy0wLjQ5NSwwLjQwMy0xLjA4NiwwLjY5My0xLjc3MiwwLjkwM0M0MS45NDMsMjYuMDQzLDQxLjE5MywyNi4xNTYsNDAuMzc5LDI2LjE1NnoiIGZpbGw9IiMyNTJmM2UiLz48cGF0aCBkPSJNNDMuMzk2LDMzLjk5MmMtNS4yNTIsMy45MTgtMTIuODgzLDUuOTk4LTE5LjQ0NSw1Ljk5OGMtOS4xOTUsMC0xNy40ODEtMy40MzQtMjMuNzM5LTkuMTQyIGMtMC40OTUtMC40NTEtMC4wNDgtMS4wNjQsMC41NDMtMC43MDljNi43NjksMy45NjYsMTUuMTE4LDYuMzY5LDIzLjc1NSw2LjM2OWM1LjgyNywwLDEyLjIyOS0xLjIyNSwxOC4xMTktMy43NDEgQzQzLjUwOCwzMi4zNjQsNDQuMjU4LDMzLjM0Nyw0My4zOTYsMzMuOTkyeiBNNDUuNTgzLDMxLjQ3N2MtMC42NzEtMC44NzEtNC40MzgtMC40MTktNi4xNDYtMC4yMSBjLTAuNTExLDAuMDY0LTAuNTkxLTAuMzg3LTAuMTI4LTAuNzI2YzMuMDAxLTIuMTI4LDcuOTM0LTEuNTE2LDguNTA5LTAuODA2YzAuNTc1LDAuNzI2LTAuMTYsNS43MDgtMi45NjksOC4wOTQgYy0wLjQzMSwwLjM3MS0wLjg0NiwwLjE3Ny0wLjY1NS0wLjMwNkM0NC44MzMsMzUuOTI3LDQ2LjI1NCwzMi4zMzEsNDUuNTgzLDMxLjQ3N3oiIGZpbGw9IiNmOTAiLz48L3N2Zz4=;aspect=fixed;" parent="1" vertex="1">
          <mxGeometry x="720" y="160" width="40" height="40" as="geometry" />
        </mxCell>
        <mxCell id="SGmXH1uzqU8MEBnB1vXx-14" value="Sandbox Account" style="text;html=1;strokeColor=none;fillColor=none;align=center;verticalAlign=middle;whiteSpace=wrap;rounded=0;" parent="1" vertex="1">
          <mxGeometry x="760" y="160" width="120" height="40" as="geometry" />
        </mxCell>
        <mxCell id="SGmXH1uzqU8MEBnB1vXx-15" value="Lambda&lt;br&gt;Functions" style="sketch=0;points=[[0,0,0],[0.25,0,0],[0.5,0,0],[0.75,0,0],[1,0,0],[0,1,0],[0.25,1,0],[0.5,1,0],[0.75,1,0],[1,1,0],[0,0.25,0],[0,0.5,0],[0,0.75,0],[1,0.25,0],[1,0.5,0],[1,0.75,0]];outlineConnect=0;fontColor=#232F3E;gradientColor=#F78E04;gradientDirection=north;fillColor=#D05C17;strokeColor=#ffffff;dashed=0;verticalLabelPosition=bottom;verticalAlign=top;align=center;html=1;fontSize=12;fontStyle=0;aspect=fixed;shape=mxgraph.aws4.resourceIcon;resIcon=mxgraph.aws4.lambda;" parent="1" vertex="1">
          <mxGeometry x="1000" y="240" width="80" height="80" as="geometry" />
        </mxCell>
        <mxCell id="SGmXH1uzqU8MEBnB1vXx-16" value="Sandbox&lt;br&gt;Parameter Store" style="sketch=0;outlineConnect=0;fontColor=#232F3E;gradientColor=none;fillColor=#B0084D;strokeColor=none;dashed=0;verticalLabelPosition=bottom;verticalAlign=top;align=center;html=1;fontSize=12;fontStyle=0;pointerEvents=1;shape=mxgraph.aws4.parameter_store;" parent="1" vertex="1">
          <mxGeometry x="1120" y="240" width="80" height="80" as="geometry" />
        </mxCell>
        <mxCell id="SGmXH1uzqU8MEBnB1vXx-17" value="CloudFormation&lt;br&gt;Stack" style="sketch=0;points=[[0,0,0],[0.25,0,0],[0.5,0,0],[0.75,0,0],[1,0,0],[0,1,0],[0.25,1,0],[0.5,1,0],[0.75,1,0],[1,1,0],[0,0.25,0],[0,0.5,0],[0,0.75,0],[1,0.25,0],[1,0.5,0],[1,0.75,0]];points=[[0,0,0],[0.25,0,0],[0.5,0,0],[0.75,0,0],[1,0,0],[0,1,0],[0.25,1,0],[0.5,1,0],[0.75,1,0],[1,1,0],[0,0.25,0],[0,0.5,0],[0,0.75,0],[1,0.25,0],[1,0.5,0],[1,0.75,0]];outlineConnect=0;fontColor=#232F3E;gradientColor=#F34482;gradientDirection=north;fillColor=#BC1356;strokeColor=#ffffff;dashed=0;verticalLabelPosition=bottom;verticalAlign=top;align=center;html=1;fontSize=12;fontStyle=0;aspect=fixed;shape=mxgraph.aws4.resourceIcon;resIcon=mxgraph.aws4.cloudformation;" parent="1" vertex="1">
          <mxGeometry x="880" y="240" width="80" height="80" as="geometry" />
        </mxCell>
        <mxCell id="SGmXH1uzqU8MEBnB1vXx-18" value="Deployer Role" style="sketch=0;outlineConnect=0;fontColor=#232F3E;gradientColor=none;fillColor=#277116;strokeColor=none;dashed=0;verticalLabelPosition=bottom;verticalAlign=top;align=center;html=1;fontSize=12;fontStyle=0;pointerEvents=1;shape=mxgraph.aws4.role;" parent="1" vertex="1">
          <mxGeometry x="760" y="240" width="80" height="40" as="geometry" />
        </mxCell>
        <mxCell id="SGmXH1uzqU8MEBnB1vXx-19" value="" style="rounded=0;whiteSpace=wrap;html=1;fillColor=none;" parent="1" vertex="1">
          <mxGeometry x="720" y="400" width="520" height="200" as="geometry" />
        </mxCell>
        <mxCell id="SGmXH1uzqU8MEBnB1vXx-20" value="" style="shape=image;verticalLabelPosition=bottom;labelBackgroundColor=default;verticalAlign=top;imageAspect=0;image=data:image/svg+xml,PHN2ZyB4bWxucz0iaHR0cDovL3d3dy53My5vcmcvMjAwMC9zdmciIGhlaWdodD0iNDhweCIgd2lkdGg9IjQ4cHgiIHZpZXdCb3g9IjAgMCA0OCA0OCI+PHBhdGggZD0iTTEzLjUyNywyMS41MjljMCwwLjU5NywwLjA2NCwxLjA4LDAuMTc2LDEuNDM1YzAuMTI4LDAuMzU1LDAuMjg3LDAuNzQyLDAuNTExLDEuMTYxIGMwLjA4LDAuMTI5LDAuMTEyLDAuMjU4LDAuMTEyLDAuMzcxYzAsMC4xNjEtMC4wOTYsMC4zMjItMC4zMDMsMC40ODRsLTEuMDA2LDAuNjc3Yy0wLjE0NCwwLjA5Ny0wLjI4NywwLjE0NS0wLjQxNSwwLjE0NSBjLTAuMTYsMC0wLjMxOS0wLjA4MS0wLjQ3OS0wLjIyNmMtMC4yMjQtMC4yNDItMC40MTUtMC41LTAuNTc1LTAuNzU4Yy0wLjE2LTAuMjc0LTAuMzE5LTAuNTgtMC40OTUtMC45NTEgYy0xLjI0NSwxLjQ4My0yLjgxLDIuMjI1LTQuNjk0LDIuMjI1Yy0xLjM0MSwwLTIuNDExLTAuMzg3LTMuMTkzLTEuMTYxcy0xLjE4MS0xLjgwNi0xLjE4MS0zLjA5NmMwLTEuMzcsMC40NzktMi40ODMsMS40NTMtMy4zMjEgczIuMjY3LTEuMjU4LDMuOTExLTEuMjU4YzAuNTQzLDAsMS4xMDIsMC4wNDgsMS42OTIsMC4xMjlzMS4xOTcsMC4yMSwxLjgzNiwwLjM1NXYtMS4xNzdjMC0xLjIyNS0wLjI1NS0yLjA4LTAuNzUtMi41OCBjLTAuNTExLTAuNS0xLjM3My0wLjc0Mi0yLjYwMi0wLjc0MmMtMC41NTksMC0xLjEzMywwLjA2NC0xLjcyNCwwLjIxYy0wLjU5MSwwLjE0NS0xLjE2NSwwLjMyMi0xLjcyNCwwLjU0OCBjLTAuMjU1LDAuMTEzLTAuNDQ3LDAuMTc3LTAuNTU5LDAuMjFjLTAuMTEyLDAuMDMyLTAuMTkyLDAuMDQ4LTAuMjU1LDAuMDQ4Yy0wLjIyNCwwLTAuMzM1LTAuMTYxLTAuMzM1LTAuNXYtMC43OSBjMC0wLjI1OCwwLjAzMi0wLjQ1MSwwLjExMi0wLjU2NGMwLjA4LTAuMTEzLDAuMjI0LTAuMjI2LDAuNDQ3LTAuMzM5YzAuNTU5LTAuMjksMS4yMjktMC41MzIsMi4wMTItMC43MjYgYzAuNzgyLTAuMjEsMS42MTItMC4zMDYsMi40OS0wLjMwNmMxLjksMCwzLjI4OSwwLjQzNSw0LjE4MywxLjMwNmMwLjg3OCwwLjg3MSwxLjMyNSwyLjE5MywxLjMyNSwzLjk2NnY1LjIyNEgxMy41Mjd6IE03LjA0NSwyMy45NzljMC41MjcsMCwxLjA3LTAuMDk3LDEuNjQ0LTAuMjljMC41NzUtMC4xOTMsMS4wODYtMC41NDgsMS41MTctMS4wMzJjMC4yNTUtMC4zMDYsMC40NDctMC42NDUsMC41NDMtMS4wMzIgYzAuMDk2LTAuMzg3LDAuMTYtMC44NTUsMC4xNi0xLjQwM3YtMC42NzdjLTAuNDYzLTAuMTEzLTAuOTU4LTAuMjEtMS40NjktMC4yNzRjLTAuNTExLTAuMDY0LTEuMDA2LTAuMDk3LTEuNTAxLTAuMDk3IGMtMS4wNywwLTEuODUyLDAuMjEtMi4zNzksMC42NDVzLTAuNzgyLDEuMDQ4LTAuNzgyLDEuODU0YzAsMC43NTgsMC4xOTIsMS4zMjIsMC41OTEsMS43MDkgQzUuNzUyLDIzLjc4Niw2LjMxMSwyMy45NzksNy4wNDUsMjMuOTc5eiBNMTkuODY1LDI1LjcyMWMtMC4yODcsMC0wLjQ3OS0wLjA0OC0wLjYwNy0wLjE2MWMtMC4xMjgtMC4wOTctMC4yMzktMC4zMjItMC4zMzUtMC42MjkgbC0zLjc1Mi0xMi40NjNjLTAuMDk2LTAuMzIyLTAuMTQ0LTAuNTMyLTAuMTQ0LTAuNjQ1YzAtMC4yNTgsMC4xMjgtMC40MDMsMC4zODMtMC40MDNoMS41NjVjMC4zMDMsMCwwLjUxMSwwLjA0OCwwLjYyMywwLjE2MSBjMC4xMjgsMC4wOTcsMC4yMjMsMC4zMjIsMC4zMTksMC42MjlsMi42ODIsMTAuNjc0bDIuNDktMTAuNjc0YzAuMDgtMC4zMjIsMC4xNzYtMC41MzIsMC4zMDMtMC42MjkgYzAuMTI4LTAuMDk3LDAuMzUxLTAuMTYxLDAuNjM5LTAuMTYxaDEuMjc3YzAuMzAzLDAsMC41MTEsMC4wNDgsMC42MzksMC4xNjFjMC4xMjgsMC4wOTcsMC4yMzksMC4zMjIsMC4zMDMsMC42MjlsMi41MjIsMTAuODAzIGwyLjc2Mi0xMC44MDNjMC4wOTYtMC4zMjIsMC4yMDgtMC41MzIsMC4zMTktMC42MjljMC4xMjgtMC4wOTcsMC4zMzUtMC4xNjEsMC42MjMtMC4xNjFoMS40ODVjMC4yNTUsMCwwLjM5OSwwLjEyOSwwLjM5OSwwLjQwMyBjMCwwLjA4MS0wLjAxNiwwLjE2MS0wLjAzMiwwLjI1OHMtMC4wNDgsMC4yMjYtMC4xMTIsMC40MDNsLTMuODQ3LDEyLjQ2M2MtMC4wOTYsMC4zMjItMC4yMDgsMC41MzItMC4zMzUsMC42Mjkgcy0wLjMzNSwwLjE2MS0wLjYwNywwLjE2MWgtMS4zNzNjLTAuMzAzLDAtMC41MTEtMC4wNDgtMC42MzktMC4xNjFjLTAuMTI4LTAuMTEzLTAuMjM5LTAuMzIyLTAuMzAzLTAuNjQ1bC0yLjQ3NC0xMC40IEwyMi4xOCwyNC45MTVjLTAuMDgsMC4zMjItMC4xNzYsMC41MzItMC4zMDMsMC42NDVjLTAuMTI4LDAuMTEzLTAuMzUxLDAuMTYxLTAuNjM5LDAuMTYxSDE5Ljg2NXogTTQwLjM3OSwyNi4xNTYgYy0wLjgzLDAtMS42Ni0wLjA5Ny0yLjQ1OC0wLjI5Yy0wLjc5OC0wLjE5My0xLjQyMS0wLjQwMy0xLjgzNi0wLjY0NWMtMC4yNTUtMC4xNDUtMC40MzEtMC4zMDYtMC40OTUtMC40NTEgYy0wLjA2NC0wLjE0NS0wLjA5Ni0wLjMwNi0wLjA5Ni0wLjQ1MXYtMC44MjJjMC0wLjMzOSwwLjEyOC0wLjUsMC4zNjctMC41YzAuMDk2LDAsMC4xOTIsMC4wMTYsMC4yODcsMC4wNDggYzAuMDk2LDAuMDMyLDAuMjM5LDAuMDk3LDAuMzk5LDAuMTYxYzAuNTQzLDAuMjQyLDEuMTMzLDAuNDM1LDEuNzU2LDAuNTY0YzAuNjM5LDAuMTI5LDEuMjYxLDAuMTkzLDEuOSwwLjE5MyBjMS4wMDYsMCwxLjc4OC0wLjE3NywyLjMzMS0wLjUzMmMwLjU0My0wLjM1NSwwLjgzLTAuODcxLDAuODMtMS41MzJjMC0wLjQ1MS0wLjE0NC0wLjgyMi0wLjQzMS0xLjEyOSBjLTAuMjg3LTAuMzA2LTAuODMtMC41OC0xLjYxMi0wLjgzOGwtMi4zMTUtMC43MjZjLTEuMTY1LTAuMzcxLTIuMDI3LTAuOTE5LTIuNTU0LTEuNjQ1Yy0wLjUyNy0wLjcwOS0wLjc5OC0xLjQ5OS0wLjc5OC0yLjMzOCBjMC0wLjY3NywwLjE0NC0xLjI3NCwwLjQzMS0xLjc5czAuNjcxLTAuOTY3LDEuMTQ5LTEuMzIyYzAuNDc5LTAuMzcxLDEuMDIyLTAuNjQ1LDEuNjYtMC44MzhDMzkuNTMzLDExLjA4MSw0MC4yMDMsMTEsNDAuOTA2LDExIGMwLjM1MSwwLDAuNzE4LDAuMDE2LDEuMDcsMC4wNjRjMC4zNjcsMC4wNDgsMC43MDIsMC4xMTMsMS4wMzgsMC4xNzdjMC4zMTksMC4wODEsMC42MjMsMC4xNjEsMC45MSwwLjI1OHMwLjUxMSwwLjE5MywwLjY3MSwwLjI5IGMwLjIyNCwwLjEyOSwwLjM4MywwLjI1OCwwLjQ3OSwwLjQwM2MwLjA5NiwwLjEyOSwwLjE0NCwwLjMwNiwwLjE0NCwwLjUzMnYwLjc1OGMwLDAuMzM5LTAuMTI4LDAuNTE2LTAuMzY3LDAuNTE2IGMtMC4xMjgsMC0wLjMzNS0wLjA2NC0wLjYwNy0wLjE5M2MtMC45MS0wLjQxOS0xLjkzMi0wLjYyOS0zLjA2NS0wLjYyOWMtMC45MSwwLTEuNjI4LDAuMTQ1LTIuMTIzLDAuNDUxIGMtMC40OTUsMC4zMDYtMC43NSwwLjc3NC0wLjc1LDEuNDM1YzAsMC40NTEsMC4xNiwwLjgzOCwwLjQ3OSwxLjE0NWMwLjMxOSwwLjMwNiwwLjkxLDAuNjEzLDEuNzU2LDAuODg3bDIuMjY3LDAuNzI2IGMxLjE0OSwwLjM3MSwxLjk4LDAuODg3LDIuNDc0LDEuNTQ4czAuNzM0LDEuNDE5LDAuNzM0LDIuMjU3YzAsMC42OTMtMC4xNDQsMS4zMjItMC40MTUsMS44NyBjLTAuMjg3LDAuNTQ4LTAuNjcxLDEuMDMyLTEuMTY1LDEuNDE5Yy0wLjQ5NSwwLjQwMy0xLjA4NiwwLjY5My0xLjc3MiwwLjkwM0M0MS45NDMsMjYuMDQzLDQxLjE5MywyNi4xNTYsNDAuMzc5LDI2LjE1NnoiIGZpbGw9IiMyNTJmM2UiLz48cGF0aCBkPSJNNDMuMzk2LDMzLjk5MmMtNS4yNTIsMy45MTgtMTIuODgzLDUuOTk4LTE5LjQ0NSw1Ljk5OGMtOS4xOTUsMC0xNy40ODEtMy40MzQtMjMuNzM5LTkuMTQyIGMtMC40OTUtMC40NTEtMC4wNDgtMS4wNjQsMC41NDMtMC43MDljNi43NjksMy45NjYsMTUuMTE4LDYuMzY5LDIzLjc1NSw2LjM2OWM1LjgyNywwLDEyLjIyOS0xLjIyNSwxOC4xMTktMy43NDEgQzQzLjUwOCwzMi4zNjQsNDQuMjU4LDMzLjM0Nyw0My4zOTYsMzMuOTkyeiBNNDUuNTgzLDMxLjQ3N2MtMC42NzEtMC44NzEtNC40MzgtMC40MTktNi4xNDYtMC4yMSBjLTAuNTExLDAuMDY0LTAuNTkxLTAuMzg3LTAuMTI4LTAuNzI2YzMuMDAxLTIuMTI4LDcuOTM0LTEuNTE2LDguNTA5LTAuODA2YzAuNTc1LDAuNzI2LTAuMTYsNS43MDgtMi45NjksOC4wOTQgYy0wLjQzMSwwLjM3MS0wLjg0NiwwLjE3Ny0wLjY1NS0wLjMwNkM0NC44MzMsMzUuOTI3LDQ2LjI1NCwzMi4zMzEsNDUuNTgzLDMxLjQ3N3oiIGZpbGw9IiNmOTAiLz48L3N2Zz4=;aspect=fixed;" parent="1" vertex="1">
          <mxGeometry x="720" y="400" width="40" height="40" as="geometry" />
        </mxCell>
        <mxCell id="SGmXH1uzqU8MEBnB1vXx-21" value="Test Account" style="text;html=1;strokeColor=none;fillColor=none;align=center;verticalAlign=middle;whiteSpace=wrap;rounded=0;" parent="1" vertex="1">
          <mxGeometry x="760" y="400" width="120" height="40" as="geometry" />
        </mxCell>
        <mxCell id="SGmXH1uzqU8MEBnB1vXx-22" value="Lambda&lt;br&gt;Functions" style="sketch=0;points=[[0,0,0],[0.25,0,0],[0.5,0,0],[0.75,0,0],[1,0,0],[0,1,0],[0.25,1,0],[0.5,1,0],[0.75,1,0],[1,1,0],[0,0.25,0],[0,0.5,0],[0,0.75,0],[1,0.25,0],[1,0.5,0],[1,0.75,0]];outlineConnect=0;fontColor=#232F3E;gradientColor=#F78E04;gradientDirection=north;fillColor=#D05C17;strokeColor=#ffffff;dashed=0;verticalLabelPosition=bottom;verticalAlign=top;align=center;html=1;fontSize=12;fontStyle=0;aspect=fixed;shape=mxgraph.aws4.resourceIcon;resIcon=mxgraph.aws4.lambda;" parent="1" vertex="1">
          <mxGeometry x="1000" y="480" width="80" height="80" as="geometry" />
        </mxCell>
        <mxCell id="SGmXH1uzqU8MEBnB1vXx-23" value="Test&lt;br&gt;Parameter Store" style="sketch=0;outlineConnect=0;fontColor=#232F3E;gradientColor=none;fillColor=#B0084D;strokeColor=none;dashed=0;verticalLabelPosition=bottom;verticalAlign=top;align=center;html=1;fontSize=12;fontStyle=0;pointerEvents=1;shape=mxgraph.aws4.parameter_store;" parent="1" vertex="1">
          <mxGeometry x="1120" y="480" width="80" height="80" as="geometry" />
        </mxCell>
        <mxCell id="SGmXH1uzqU8MEBnB1vXx-24" value="CloudFormation&lt;br&gt;Stack" style="sketch=0;points=[[0,0,0],[0.25,0,0],[0.5,0,0],[0.75,0,0],[1,0,0],[0,1,0],[0.25,1,0],[0.5,1,0],[0.75,1,0],[1,1,0],[0,0.25,0],[0,0.5,0],[0,0.75,0],[1,0.25,0],[1,0.5,0],[1,0.75,0]];points=[[0,0,0],[0.25,0,0],[0.5,0,0],[0.75,0,0],[1,0,0],[0,1,0],[0.25,1,0],[0.5,1,0],[0.75,1,0],[1,1,0],[0,0.25,0],[0,0.5,0],[0,0.75,0],[1,0.25,0],[1,0.5,0],[1,0.75,0]];outlineConnect=0;fontColor=#232F3E;gradientColor=#F34482;gradientDirection=north;fillColor=#BC1356;strokeColor=#ffffff;dashed=0;verticalLabelPosition=bottom;verticalAlign=top;align=center;html=1;fontSize=12;fontStyle=0;aspect=fixed;shape=mxgraph.aws4.resourceIcon;resIcon=mxgraph.aws4.cloudformation;" parent="1" vertex="1">
          <mxGeometry x="880" y="480" width="80" height="80" as="geometry" />
        </mxCell>
        <mxCell id="SGmXH1uzqU8MEBnB1vXx-25" value="Deployer Role" style="sketch=0;outlineConnect=0;fontColor=#232F3E;gradientColor=none;fillColor=#277116;strokeColor=none;dashed=0;verticalLabelPosition=bottom;verticalAlign=top;align=center;html=1;fontSize=12;fontStyle=0;pointerEvents=1;shape=mxgraph.aws4.role;" parent="1" vertex="1">
          <mxGeometry x="760" y="480" width="80" height="40" as="geometry" />
        </mxCell>
        <mxCell id="SGmXH1uzqU8MEBnB1vXx-26" value="" style="rounded=0;whiteSpace=wrap;html=1;fillColor=none;" parent="1" vertex="1">
          <mxGeometry x="720" y="640" width="520" height="200" as="geometry" />
        </mxCell>
        <mxCell id="SGmXH1uzqU8MEBnB1vXx-27" value="" style="shape=image;verticalLabelPosition=bottom;labelBackgroundColor=default;verticalAlign=top;imageAspect=0;image=data:image/svg+xml,PHN2ZyB4bWxucz0iaHR0cDovL3d3dy53My5vcmcvMjAwMC9zdmciIGhlaWdodD0iNDhweCIgd2lkdGg9IjQ4cHgiIHZpZXdCb3g9IjAgMCA0OCA0OCI+PHBhdGggZD0iTTEzLjUyNywyMS41MjljMCwwLjU5NywwLjA2NCwxLjA4LDAuMTc2LDEuNDM1YzAuMTI4LDAuMzU1LDAuMjg3LDAuNzQyLDAuNTExLDEuMTYxIGMwLjA4LDAuMTI5LDAuMTEyLDAuMjU4LDAuMTEyLDAuMzcxYzAsMC4xNjEtMC4wOTYsMC4zMjItMC4zMDMsMC40ODRsLTEuMDA2LDAuNjc3Yy0wLjE0NCwwLjA5Ny0wLjI4NywwLjE0NS0wLjQxNSwwLjE0NSBjLTAuMTYsMC0wLjMxOS0wLjA4MS0wLjQ3OS0wLjIyNmMtMC4yMjQtMC4yNDItMC40MTUtMC41LTAuNTc1LTAuNzU4Yy0wLjE2LTAuMjc0LTAuMzE5LTAuNTgtMC40OTUtMC45NTEgYy0xLjI0NSwxLjQ4My0yLjgxLDIuMjI1LTQuNjk0LDIuMjI1Yy0xLjM0MSwwLTIuNDExLTAuMzg3LTMuMTkzLTEuMTYxcy0xLjE4MS0xLjgwNi0xLjE4MS0zLjA5NmMwLTEuMzcsMC40NzktMi40ODMsMS40NTMtMy4zMjEgczIuMjY3LTEuMjU4LDMuOTExLTEuMjU4YzAuNTQzLDAsMS4xMDIsMC4wNDgsMS42OTIsMC4xMjlzMS4xOTcsMC4yMSwxLjgzNiwwLjM1NXYtMS4xNzdjMC0xLjIyNS0wLjI1NS0yLjA4LTAuNzUtMi41OCBjLTAuNTExLTAuNS0xLjM3My0wLjc0Mi0yLjYwMi0wLjc0MmMtMC41NTksMC0xLjEzMywwLjA2NC0xLjcyNCwwLjIxYy0wLjU5MSwwLjE0NS0xLjE2NSwwLjMyMi0xLjcyNCwwLjU0OCBjLTAuMjU1LDAuMTEzLTAuNDQ3LDAuMTc3LTAuNTU5LDAuMjFjLTAuMTEyLDAuMDMyLTAuMTkyLDAuMDQ4LTAuMjU1LDAuMDQ4Yy0wLjIyNCwwLTAuMzM1LTAuMTYxLTAuMzM1LTAuNXYtMC43OSBjMC0wLjI1OCwwLjAzMi0wLjQ1MSwwLjExMi0wLjU2NGMwLjA4LTAuMTEzLDAuMjI0LTAuMjI2LDAuNDQ3LTAuMzM5YzAuNTU5LTAuMjksMS4yMjktMC41MzIsMi4wMTItMC43MjYgYzAuNzgyLTAuMjEsMS42MTItMC4zMDYsMi40OS0wLjMwNmMxLjksMCwzLjI4OSwwLjQzNSw0LjE4MywxLjMwNmMwLjg3OCwwLjg3MSwxLjMyNSwyLjE5MywxLjMyNSwzLjk2NnY1LjIyNEgxMy41Mjd6IE03LjA0NSwyMy45NzljMC41MjcsMCwxLjA3LTAuMDk3LDEuNjQ0LTAuMjljMC41NzUtMC4xOTMsMS4wODYtMC41NDgsMS41MTctMS4wMzJjMC4yNTUtMC4zMDYsMC40NDctMC42NDUsMC41NDMtMS4wMzIgYzAuMDk2LTAuMzg3LDAuMTYtMC44NTUsMC4xNi0xLjQwM3YtMC42NzdjLTAuNDYzLTAuMTEzLTAuOTU4LTAuMjEtMS40NjktMC4yNzRjLTAuNTExLTAuMDY0LTEuMDA2LTAuMDk3LTEuNTAxLTAuMDk3IGMtMS4wNywwLTEuODUyLDAuMjEtMi4zNzksMC42NDVzLTAuNzgyLDEuMDQ4LTAuNzgyLDEuODU0YzAsMC43NTgsMC4xOTIsMS4zMjIsMC41OTEsMS43MDkgQzUuNzUyLDIzLjc4Niw2LjMxMSwyMy45NzksNy4wNDUsMjMuOTc5eiBNMTkuODY1LDI1LjcyMWMtMC4yODcsMC0wLjQ3OS0wLjA0OC0wLjYwNy0wLjE2MWMtMC4xMjgtMC4wOTctMC4yMzktMC4zMjItMC4zMzUtMC42MjkgbC0zLjc1Mi0xMi40NjNjLTAuMDk2LTAuMzIyLTAuMTQ0LTAuNTMyLTAuMTQ0LTAuNjQ1YzAtMC4yNTgsMC4xMjgtMC40MDMsMC4zODMtMC40MDNoMS41NjVjMC4zMDMsMCwwLjUxMSwwLjA0OCwwLjYyMywwLjE2MSBjMC4xMjgsMC4wOTcsMC4yMjMsMC4zMjIsMC4zMTksMC42MjlsMi42ODIsMTAuNjc0bDIuNDktMTAuNjc0YzAuMDgtMC4zMjIsMC4xNzYtMC41MzIsMC4zMDMtMC42MjkgYzAuMTI4LTAuMDk3LDAuMzUxLTAuMTYxLDAuNjM5LTAuMTYxaDEuMjc3YzAuMzAzLDAsMC41MTEsMC4wNDgsMC42MzksMC4xNjFjMC4xMjgsMC4wOTcsMC4yMzksMC4zMjIsMC4zMDMsMC42MjlsMi41MjIsMTAuODAzIGwyLjc2Mi0xMC44MDNjMC4wOTYtMC4zMjIsMC4yMDgtMC41MzIsMC4zMTktMC42MjljMC4xMjgtMC4wOTcsMC4zMzUtMC4xNjEsMC42MjMtMC4xNjFoMS40ODVjMC4yNTUsMCwwLjM5OSwwLjEyOSwwLjM5OSwwLjQwMyBjMCwwLjA4MS0wLjAxNiwwLjE2MS0wLjAzMiwwLjI1OHMtMC4wNDgsMC4yMjYtMC4xMTIsMC40MDNsLTMuODQ3LDEyLjQ2M2MtMC4wOTYsMC4zMjItMC4yMDgsMC41MzItMC4zMzUsMC42Mjkgcy0wLjMzNSwwLjE2MS0wLjYwNywwLjE2MWgtMS4zNzNjLTAuMzAzLDAtMC41MTEtMC4wNDgtMC42MzktMC4xNjFjLTAuMTI4LTAuMTEzLTAuMjM5LTAuMzIyLTAuMzAzLTAuNjQ1bC0yLjQ3NC0xMC40IEwyMi4xOCwyNC45MTVjLTAuMDgsMC4zMjItMC4xNzYsMC41MzItMC4zMDMsMC42NDVjLTAuMTI4LDAuMTEzLTAuMzUxLDAuMTYxLTAuNjM5LDAuMTYxSDE5Ljg2NXogTTQwLjM3OSwyNi4xNTYgYy0wLjgzLDAtMS42Ni0wLjA5Ny0yLjQ1OC0wLjI5Yy0wLjc5OC0wLjE5My0xLjQyMS0wLjQwMy0xLjgzNi0wLjY0NWMtMC4yNTUtMC4xNDUtMC40MzEtMC4zMDYtMC40OTUtMC40NTEgYy0wLjA2NC0wLjE0NS0wLjA5Ni0wLjMwNi0wLjA5Ni0wLjQ1MXYtMC44MjJjMC0wLjMzOSwwLjEyOC0wLjUsMC4zNjctMC41YzAuMDk2LDAsMC4xOTIsMC4wMTYsMC4yODcsMC4wNDggYzAuMDk2LDAuMDMyLDAuMjM5LDAuMDk3LDAuMzk5LDAuMTYxYzAuNTQzLDAuMjQyLDEuMTMzLDAuNDM1LDEuNzU2LDAuNTY0YzAuNjM5LDAuMTI5LDEuMjYxLDAuMTkzLDEuOSwwLjE5MyBjMS4wMDYsMCwxLjc4OC0wLjE3NywyLjMzMS0wLjUzMmMwLjU0My0wLjM1NSwwLjgzLTAuODcxLDAuODMtMS41MzJjMC0wLjQ1MS0wLjE0NC0wLjgyMi0wLjQzMS0xLjEyOSBjLTAuMjg3LTAuMzA2LTAuODMtMC41OC0xLjYxMi0wLjgzOGwtMi4zMTUtMC43MjZjLTEuMTY1LTAuMzcxLTIuMDI3LTAuOTE5LTIuNTU0LTEuNjQ1Yy0wLjUyNy0wLjcwOS0wLjc5OC0xLjQ5OS0wLjc5OC0yLjMzOCBjMC0wLjY3NywwLjE0NC0xLjI3NCwwLjQzMS0xLjc5czAuNjcxLTAuOTY3LDEuMTQ5LTEuMzIyYzAuNDc5LTAuMzcxLDEuMDIyLTAuNjQ1LDEuNjYtMC44MzhDMzkuNTMzLDExLjA4MSw0MC4yMDMsMTEsNDAuOTA2LDExIGMwLjM1MSwwLDAuNzE4LDAuMDE2LDEuMDcsMC4wNjRjMC4zNjcsMC4wNDgsMC43MDIsMC4xMTMsMS4wMzgsMC4xNzdjMC4zMTksMC4wODEsMC42MjMsMC4xNjEsMC45MSwwLjI1OHMwLjUxMSwwLjE5MywwLjY3MSwwLjI5IGMwLjIyNCwwLjEyOSwwLjM4MywwLjI1OCwwLjQ3OSwwLjQwM2MwLjA5NiwwLjEyOSwwLjE0NCwwLjMwNiwwLjE0NCwwLjUzMnYwLjc1OGMwLDAuMzM5LTAuMTI4LDAuNTE2LTAuMzY3LDAuNTE2IGMtMC4xMjgsMC0wLjMzNS0wLjA2NC0wLjYwNy0wLjE5M2MtMC45MS0wLjQxOS0xLjkzMi0wLjYyOS0zLjA2NS0wLjYyOWMtMC45MSwwLTEuNjI4LDAuMTQ1LTIuMTIzLDAuNDUxIGMtMC40OTUsMC4zMDYtMC43NSwwLjc3NC0wLjc1LDEuNDM1YzAsMC40NTEsMC4xNiwwLjgzOCwwLjQ3OSwxLjE0NWMwLjMxOSwwLjMwNiwwLjkxLDAuNjEzLDEuNzU2LDAuODg3bDIuMjY3LDAuNzI2IGMxLjE0OSwwLjM3MSwxLjk4LDAuODg3LDIuNDc0LDEuNTQ4czAuNzM0LDEuNDE5LDAuNzM0LDIuMjU3YzAsMC42OTMtMC4xNDQsMS4zMjItMC40MTUsMS44NyBjLTAuMjg3LDAuNTQ4LTAuNjcxLDEuMDMyLTEuMTY1LDEuNDE5Yy0wLjQ5NSwwLjQwMy0xLjA4NiwwLjY5My0xLjc3MiwwLjkwM0M0MS45NDMsMjYuMDQzLDQxLjE5MywyNi4xNTYsNDAuMzc5LDI2LjE1NnoiIGZpbGw9IiMyNTJmM2UiLz48cGF0aCBkPSJNNDMuMzk2LDMzLjk5MmMtNS4yNTIsMy45MTgtMTIuODgzLDUuOTk4LTE5LjQ0NSw1Ljk5OGMtOS4xOTUsMC0xNy40ODEtMy40MzQtMjMuNzM5LTkuMTQyIGMtMC40OTUtMC40NTEtMC4wNDgtMS4wNjQsMC41NDMtMC43MDljNi43NjksMy45NjYsMTUuMTE4LDYuMzY5LDIzLjc1NSw2LjM2OWM1LjgyNywwLDEyLjIyOS0xLjIyNSwxOC4xMTktMy43NDEgQzQzLjUwOCwzMi4zNjQsNDQuMjU4LDMzLjM0Nyw0My4zOTYsMzMuOTkyeiBNNDUuNTgzLDMxLjQ3N2MtMC42NzEtMC44NzEtNC40MzgtMC40MTktNi4xNDYtMC4yMSBjLTAuNTExLDAuMDY0LTAuNTkxLTAuMzg3LTAuMTI4LTAuNzI2YzMuMDAxLTIuMTI4LDcuOTM0LTEuNTE2LDguNTA5LTAuODA2YzAuNTc1LDAuNzI2LTAuMTYsNS43MDgtMi45NjksOC4wOTQgYy0wLjQzMSwwLjM3MS0wLjg0NiwwLjE3Ny0wLjY1NS0wLjMwNkM0NC44MzMsMzUuOTI3LDQ2LjI1NCwzMi4zMzEsNDUuNTgzLDMxLjQ3N3oiIGZpbGw9IiNmOTAiLz48L3N2Zz4=;aspect=fixed;" parent="1" vertex="1">
          <mxGeometry x="720" y="640" width="40" height="40" as="geometry" />
        </mxCell>
        <mxCell id="SGmXH1uzqU8MEBnB1vXx-28" value="Staging Account" style="text;html=1;strokeColor=none;fillColor=none;align=center;verticalAlign=middle;whiteSpace=wrap;rounded=0;" parent="1" vertex="1">
          <mxGeometry x="760" y="640" width="120" height="40" as="geometry" />
        </mxCell>
        <mxCell id="SGmXH1uzqU8MEBnB1vXx-29" value="Lambda&lt;br&gt;Functions" style="sketch=0;points=[[0,0,0],[0.25,0,0],[0.5,0,0],[0.75,0,0],[1,0,0],[0,1,0],[0.25,1,0],[0.5,1,0],[0.75,1,0],[1,1,0],[0,0.25,0],[0,0.5,0],[0,0.75,0],[1,0.25,0],[1,0.5,0],[1,0.75,0]];outlineConnect=0;fontColor=#232F3E;gradientColor=#F78E04;gradientDirection=north;fillColor=#D05C17;strokeColor=#ffffff;dashed=0;verticalLabelPosition=bottom;verticalAlign=top;align=center;html=1;fontSize=12;fontStyle=0;aspect=fixed;shape=mxgraph.aws4.resourceIcon;resIcon=mxgraph.aws4.lambda;" parent="1" vertex="1">
          <mxGeometry x="1000" y="720" width="80" height="80" as="geometry" />
        </mxCell>
        <mxCell id="SGmXH1uzqU8MEBnB1vXx-30" value="Staging&lt;br&gt;Parameter Store" style="sketch=0;outlineConnect=0;fontColor=#232F3E;gradientColor=none;fillColor=#B0084D;strokeColor=none;dashed=0;verticalLabelPosition=bottom;verticalAlign=top;align=center;html=1;fontSize=12;fontStyle=0;pointerEvents=1;shape=mxgraph.aws4.parameter_store;" parent="1" vertex="1">
          <mxGeometry x="1120" y="720" width="80" height="80" as="geometry" />
        </mxCell>
        <mxCell id="SGmXH1uzqU8MEBnB1vXx-31" value="CloudFormation&lt;br&gt;Stack" style="sketch=0;points=[[0,0,0],[0.25,0,0],[0.5,0,0],[0.75,0,0],[1,0,0],[0,1,0],[0.25,1,0],[0.5,1,0],[0.75,1,0],[1,1,0],[0,0.25,0],[0,0.5,0],[0,0.75,0],[1,0.25,0],[1,0.5,0],[1,0.75,0]];points=[[0,0,0],[0.25,0,0],[0.5,0,0],[0.75,0,0],[1,0,0],[0,1,0],[0.25,1,0],[0.5,1,0],[0.75,1,0],[1,1,0],[0,0.25,0],[0,0.5,0],[0,0.75,0],[1,0.25,0],[1,0.5,0],[1,0.75,0]];outlineConnect=0;fontColor=#232F3E;gradientColor=#F34482;gradientDirection=north;fillColor=#BC1356;strokeColor=#ffffff;dashed=0;verticalLabelPosition=bottom;verticalAlign=top;align=center;html=1;fontSize=12;fontStyle=0;aspect=fixed;shape=mxgraph.aws4.resourceIcon;resIcon=mxgraph.aws4.cloudformation;" parent="1" vertex="1">
          <mxGeometry x="880" y="720" width="80" height="80" as="geometry" />
        </mxCell>
        <mxCell id="SGmXH1uzqU8MEBnB1vXx-32" value="Deployer Role" style="sketch=0;outlineConnect=0;fontColor=#232F3E;gradientColor=none;fillColor=#277116;strokeColor=none;dashed=0;verticalLabelPosition=bottom;verticalAlign=top;align=center;html=1;fontSize=12;fontStyle=0;pointerEvents=1;shape=mxgraph.aws4.role;" parent="1" vertex="1">
          <mxGeometry x="760" y="720" width="80" height="40" as="geometry" />
        </mxCell>
        <mxCell id="SGmXH1uzqU8MEBnB1vXx-33" value="" style="rounded=0;whiteSpace=wrap;html=1;fillColor=none;" parent="1" vertex="1">
          <mxGeometry x="720" y="880" width="520" height="200" as="geometry" />
        </mxCell>
        <mxCell id="SGmXH1uzqU8MEBnB1vXx-34" value="" style="shape=image;verticalLabelPosition=bottom;labelBackgroundColor=default;verticalAlign=top;imageAspect=0;image=data:image/svg+xml,PHN2ZyB4bWxucz0iaHR0cDovL3d3dy53My5vcmcvMjAwMC9zdmciIGhlaWdodD0iNDhweCIgd2lkdGg9IjQ4cHgiIHZpZXdCb3g9IjAgMCA0OCA0OCI+PHBhdGggZD0iTTEzLjUyNywyMS41MjljMCwwLjU5NywwLjA2NCwxLjA4LDAuMTc2LDEuNDM1YzAuMTI4LDAuMzU1LDAuMjg3LDAuNzQyLDAuNTExLDEuMTYxIGMwLjA4LDAuMTI5LDAuMTEyLDAuMjU4LDAuMTEyLDAuMzcxYzAsMC4xNjEtMC4wOTYsMC4zMjItMC4zMDMsMC40ODRsLTEuMDA2LDAuNjc3Yy0wLjE0NCwwLjA5Ny0wLjI4NywwLjE0NS0wLjQxNSwwLjE0NSBjLTAuMTYsMC0wLjMxOS0wLjA4MS0wLjQ3OS0wLjIyNmMtMC4yMjQtMC4yNDItMC40MTUtMC41LTAuNTc1LTAuNzU4Yy0wLjE2LTAuMjc0LTAuMzE5LTAuNTgtMC40OTUtMC45NTEgYy0xLjI0NSwxLjQ4My0yLjgxLDIuMjI1LTQuNjk0LDIuMjI1Yy0xLjM0MSwwLTIuNDExLTAuMzg3LTMuMTkzLTEuMTYxcy0xLjE4MS0xLjgwNi0xLjE4MS0zLjA5NmMwLTEuMzcsMC40NzktMi40ODMsMS40NTMtMy4zMjEgczIuMjY3LTEuMjU4LDMuOTExLTEuMjU4YzAuNTQzLDAsMS4xMDIsMC4wNDgsMS42OTIsMC4xMjlzMS4xOTcsMC4yMSwxLjgzNiwwLjM1NXYtMS4xNzdjMC0xLjIyNS0wLjI1NS0yLjA4LTAuNzUtMi41OCBjLTAuNTExLTAuNS0xLjM3My0wLjc0Mi0yLjYwMi0wLjc0MmMtMC41NTksMC0xLjEzMywwLjA2NC0xLjcyNCwwLjIxYy0wLjU5MSwwLjE0NS0xLjE2NSwwLjMyMi0xLjcyNCwwLjU0OCBjLTAuMjU1LDAuMTEzLTAuNDQ3LDAuMTc3LTAuNTU5LDAuMjFjLTAuMTEyLDAuMDMyLTAuMTkyLDAuMDQ4LTAuMjU1LDAuMDQ4Yy0wLjIyNCwwLTAuMzM1LTAuMTYxLTAuMzM1LTAuNXYtMC43OSBjMC0wLjI1OCwwLjAzMi0wLjQ1MSwwLjExMi0wLjU2NGMwLjA4LTAuMTEzLDAuMjI0LTAuMjI2LDAuNDQ3LTAuMzM5YzAuNTU5LTAuMjksMS4yMjktMC41MzIsMi4wMTItMC43MjYgYzAuNzgyLTAuMjEsMS42MTItMC4zMDYsMi40OS0wLjMwNmMxLjksMCwzLjI4OSwwLjQzNSw0LjE4MywxLjMwNmMwLjg3OCwwLjg3MSwxLjMyNSwyLjE5MywxLjMyNSwzLjk2NnY1LjIyNEgxMy41Mjd6IE03LjA0NSwyMy45NzljMC41MjcsMCwxLjA3LTAuMDk3LDEuNjQ0LTAuMjljMC41NzUtMC4xOTMsMS4wODYtMC41NDgsMS41MTctMS4wMzJjMC4yNTUtMC4zMDYsMC40NDctMC42NDUsMC41NDMtMS4wMzIgYzAuMDk2LTAuMzg3LDAuMTYtMC44NTUsMC4xNi0xLjQwM3YtMC42NzdjLTAuNDYzLTAuMTEzLTAuOTU4LTAuMjEtMS40NjktMC4yNzRjLTAuNTExLTAuMDY0LTEuMDA2LTAuMDk3LTEuNTAxLTAuMDk3IGMtMS4wNywwLTEuODUyLDAuMjEtMi4zNzksMC42NDVzLTAuNzgyLDEuMDQ4LTAuNzgyLDEuODU0YzAsMC43NTgsMC4xOTIsMS4zMjIsMC41OTEsMS43MDkgQzUuNzUyLDIzLjc4Niw2LjMxMSwyMy45NzksNy4wNDUsMjMuOTc5eiBNMTkuODY1LDI1LjcyMWMtMC4yODcsMC0wLjQ3OS0wLjA0OC0wLjYwNy0wLjE2MWMtMC4xMjgtMC4wOTctMC4yMzktMC4zMjItMC4zMzUtMC42MjkgbC0zLjc1Mi0xMi40NjNjLTAuMDk2LTAuMzIyLTAuMTQ0LTAuNTMyLTAuMTQ0LTAuNjQ1YzAtMC4yNTgsMC4xMjgtMC40MDMsMC4zODMtMC40MDNoMS41NjVjMC4zMDMsMCwwLjUxMSwwLjA0OCwwLjYyMywwLjE2MSBjMC4xMjgsMC4wOTcsMC4yMjMsMC4zMjIsMC4zMTksMC42MjlsMi42ODIsMTAuNjc0bDIuNDktMTAuNjc0YzAuMDgtMC4zMjIsMC4xNzYtMC41MzIsMC4zMDMtMC42MjkgYzAuMTI4LTAuMDk3LDAuMzUxLTAuMTYxLDAuNjM5LTAuMTYxaDEuMjc3YzAuMzAzLDAsMC41MTEsMC4wNDgsMC42MzksMC4xNjFjMC4xMjgsMC4wOTcsMC4yMzksMC4zMjIsMC4zMDMsMC42MjlsMi41MjIsMTAuODAzIGwyLjc2Mi0xMC44MDNjMC4wOTYtMC4zMjIsMC4yMDgtMC41MzIsMC4zMTktMC42MjljMC4xMjgtMC4wOTcsMC4zMzUtMC4xNjEsMC42MjMtMC4xNjFoMS40ODVjMC4yNTUsMCwwLjM5OSwwLjEyOSwwLjM5OSwwLjQwMyBjMCwwLjA4MS0wLjAxNiwwLjE2MS0wLjAzMiwwLjI1OHMtMC4wNDgsMC4yMjYtMC4xMTIsMC40MDNsLTMuODQ3LDEyLjQ2M2MtMC4wOTYsMC4zMjItMC4yMDgsMC41MzItMC4zMzUsMC42Mjkgcy0wLjMzNSwwLjE2MS0wLjYwNywwLjE2MWgtMS4zNzNjLTAuMzAzLDAtMC41MTEtMC4wNDgtMC42MzktMC4xNjFjLTAuMTI4LTAuMTEzLTAuMjM5LTAuMzIyLTAuMzAzLTAuNjQ1bC0yLjQ3NC0xMC40IEwyMi4xOCwyNC45MTVjLTAuMDgsMC4zMjItMC4xNzYsMC41MzItMC4zMDMsMC42NDVjLTAuMTI4LDAuMTEzLTAuMzUxLDAuMTYxLTAuNjM5LDAuMTYxSDE5Ljg2NXogTTQwLjM3OSwyNi4xNTYgYy0wLjgzLDAtMS42Ni0wLjA5Ny0yLjQ1OC0wLjI5Yy0wLjc5OC0wLjE5My0xLjQyMS0wLjQwMy0xLjgzNi0wLjY0NWMtMC4yNTUtMC4xNDUtMC40MzEtMC4zMDYtMC40OTUtMC40NTEgYy0wLjA2NC0wLjE0NS0wLjA5Ni0wLjMwNi0wLjA5Ni0wLjQ1MXYtMC44MjJjMC0wLjMzOSwwLjEyOC0wLjUsMC4zNjctMC41YzAuMDk2LDAsMC4xOTIsMC4wMTYsMC4yODcsMC4wNDggYzAuMDk2LDAuMDMyLDAuMjM5LDAuMDk3LDAuMzk5LDAuMTYxYzAuNTQzLDAuMjQyLDEuMTMzLDAuNDM1LDEuNzU2LDAuNTY0YzAuNjM5LDAuMTI5LDEuMjYxLDAuMTkzLDEuOSwwLjE5MyBjMS4wMDYsMCwxLjc4OC0wLjE3NywyLjMzMS0wLjUzMmMwLjU0My0wLjM1NSwwLjgzLTAuODcxLDAuODMtMS41MzJjMC0wLjQ1MS0wLjE0NC0wLjgyMi0wLjQzMS0xLjEyOSBjLTAuMjg3LTAuMzA2LTAuODMtMC41OC0xLjYxMi0wLjgzOGwtMi4zMTUtMC43MjZjLTEuMTY1LTAuMzcxLTIuMDI3LTAuOTE5LTIuNTU0LTEuNjQ1Yy0wLjUyNy0wLjcwOS0wLjc5OC0xLjQ5OS0wLjc5OC0yLjMzOCBjMC0wLjY3NywwLjE0NC0xLjI3NCwwLjQzMS0xLjc5czAuNjcxLTAuOTY3LDEuMTQ5LTEuMzIyYzAuNDc5LTAuMzcxLDEuMDIyLTAuNjQ1LDEuNjYtMC44MzhDMzkuNTMzLDExLjA4MSw0MC4yMDMsMTEsNDAuOTA2LDExIGMwLjM1MSwwLDAuNzE4LDAuMDE2LDEuMDcsMC4wNjRjMC4zNjcsMC4wNDgsMC43MDIsMC4xMTMsMS4wMzgsMC4xNzdjMC4zMTksMC4wODEsMC42MjMsMC4xNjEsMC45MSwwLjI1OHMwLjUxMSwwLjE5MywwLjY3MSwwLjI5IGMwLjIyNCwwLjEyOSwwLjM4MywwLjI1OCwwLjQ3OSwwLjQwM2MwLjA5NiwwLjEyOSwwLjE0NCwwLjMwNiwwLjE0NCwwLjUzMnYwLjc1OGMwLDAuMzM5LTAuMTI4LDAuNTE2LTAuMzY3LDAuNTE2IGMtMC4xMjgsMC0wLjMzNS0wLjA2NC0wLjYwNy0wLjE5M2MtMC45MS0wLjQxOS0xLjkzMi0wLjYyOS0zLjA2NS0wLjYyOWMtMC45MSwwLTEuNjI4LDAuMTQ1LTIuMTIzLDAuNDUxIGMtMC40OTUsMC4zMDYtMC43NSwwLjc3NC0wLjc1LDEuNDM1YzAsMC40NTEsMC4xNiwwLjgzOCwwLjQ3OSwxLjE0NWMwLjMxOSwwLjMwNiwwLjkxLDAuNjEzLDEuNzU2LDAuODg3bDIuMjY3LDAuNzI2IGMxLjE0OSwwLjM3MSwxLjk4LDAuODg3LDIuNDc0LDEuNTQ4czAuNzM0LDEuNDE5LDAuNzM0LDIuMjU3YzAsMC42OTMtMC4xNDQsMS4zMjItMC40MTUsMS44NyBjLTAuMjg3LDAuNTQ4LTAuNjcxLDEuMDMyLTEuMTY1LDEuNDE5Yy0wLjQ5NSwwLjQwMy0xLjA4NiwwLjY5My0xLjc3MiwwLjkwM0M0MS45NDMsMjYuMDQzLDQxLjE5MywyNi4xNTYsNDAuMzc5LDI2LjE1NnoiIGZpbGw9IiMyNTJmM2UiLz48cGF0aCBkPSJNNDMuMzk2LDMzLjk5MmMtNS4yNTIsMy45MTgtMTIuODgzLDUuOTk4LTE5LjQ0NSw1Ljk5OGMtOS4xOTUsMC0xNy40ODEtMy40MzQtMjMuNzM5LTkuMTQyIGMtMC40OTUtMC40NTEtMC4wNDgtMS4wNjQsMC41NDMtMC43MDljNi43NjksMy45NjYsMTUuMTE4LDYuMzY5LDIzLjc1NSw2LjM2OWM1LjgyNywwLDEyLjIyOS0xLjIyNSwxOC4xMTktMy43NDEgQzQzLjUwOCwzMi4zNjQsNDQuMjU4LDMzLjM0Nyw0My4zOTYsMzMuOTkyeiBNNDUuNTgzLDMxLjQ3N2MtMC42NzEtMC44NzEtNC40MzgtMC40MTktNi4xNDYtMC4yMSBjLTAuNTExLDAuMDY0LTAuNTkxLTAuMzg3LTAuMTI4LTAuNzI2YzMuMDAxLTIuMTI4LDcuOTM0LTEuNTE2LDguNTA5LTAuODA2YzAuNTc1LDAuNzI2LTAuMTYsNS43MDgtMi45NjksOC4wOTQgYy0wLjQzMSwwLjM3MS0wLjg0NiwwLjE3Ny0wLjY1NS0wLjMwNkM0NC44MzMsMzUuOTI3LDQ2LjI1NCwzMi4zMzEsNDUuNTgzLDMxLjQ3N3oiIGZpbGw9IiNmOTAiLz48L3N2Zz4=;aspect=fixed;" parent="1" vertex="1">
          <mxGeometry x="720" y="880" width="40" height="40" as="geometry" />
        </mxCell>
        <mxCell id="SGmXH1uzqU8MEBnB1vXx-35" value="Prod Account" style="text;html=1;strokeColor=none;fillColor=none;align=center;verticalAlign=middle;whiteSpace=wrap;rounded=0;" parent="1" vertex="1">
          <mxGeometry x="760" y="880" width="120" height="40" as="geometry" />
        </mxCell>
        <mxCell id="SGmXH1uzqU8MEBnB1vXx-36" value="Lambda&lt;br&gt;Functions" style="sketch=0;points=[[0,0,0],[0.25,0,0],[0.5,0,0],[0.75,0,0],[1,0,0],[0,1,0],[0.25,1,0],[0.5,1,0],[0.75,1,0],[1,1,0],[0,0.25,0],[0,0.5,0],[0,0.75,0],[1,0.25,0],[1,0.5,0],[1,0.75,0]];outlineConnect=0;fontColor=#232F3E;gradientColor=#F78E04;gradientDirection=north;fillColor=#D05C17;strokeColor=#ffffff;dashed=0;verticalLabelPosition=bottom;verticalAlign=top;align=center;html=1;fontSize=12;fontStyle=0;aspect=fixed;shape=mxgraph.aws4.resourceIcon;resIcon=mxgraph.aws4.lambda;" parent="1" vertex="1">
          <mxGeometry x="1000" y="960" width="80" height="80" as="geometry" />
        </mxCell>
        <mxCell id="SGmXH1uzqU8MEBnB1vXx-37" value="Prod&lt;br&gt;Parameter Store" style="sketch=0;outlineConnect=0;fontColor=#232F3E;gradientColor=none;fillColor=#B0084D;strokeColor=none;dashed=0;verticalLabelPosition=bottom;verticalAlign=top;align=center;html=1;fontSize=12;fontStyle=0;pointerEvents=1;shape=mxgraph.aws4.parameter_store;" parent="1" vertex="1">
          <mxGeometry x="1120" y="960" width="80" height="80" as="geometry" />
        </mxCell>
        <mxCell id="SGmXH1uzqU8MEBnB1vXx-38" value="CloudFormation&lt;br&gt;Stack" style="sketch=0;points=[[0,0,0],[0.25,0,0],[0.5,0,0],[0.75,0,0],[1,0,0],[0,1,0],[0.25,1,0],[0.5,1,0],[0.75,1,0],[1,1,0],[0,0.25,0],[0,0.5,0],[0,0.75,0],[1,0.25,0],[1,0.5,0],[1,0.75,0]];points=[[0,0,0],[0.25,0,0],[0.5,0,0],[0.75,0,0],[1,0,0],[0,1,0],[0.25,1,0],[0.5,1,0],[0.75,1,0],[1,1,0],[0,0.25,0],[0,0.5,0],[0,0.75,0],[1,0.25,0],[1,0.5,0],[1,0.75,0]];outlineConnect=0;fontColor=#232F3E;gradientColor=#F34482;gradientDirection=north;fillColor=#BC1356;strokeColor=#ffffff;dashed=0;verticalLabelPosition=bottom;verticalAlign=top;align=center;html=1;fontSize=12;fontStyle=0;aspect=fixed;shape=mxgraph.aws4.resourceIcon;resIcon=mxgraph.aws4.cloudformation;" parent="1" vertex="1">
          <mxGeometry x="880" y="960" width="80" height="80" as="geometry" />
        </mxCell>
        <mxCell id="SGmXH1uzqU8MEBnB1vXx-39" value="Deployer Role" style="sketch=0;outlineConnect=0;fontColor=#232F3E;gradientColor=none;fillColor=#277116;strokeColor=none;dashed=0;verticalLabelPosition=bottom;verticalAlign=top;align=center;html=1;fontSize=12;fontStyle=0;pointerEvents=1;shape=mxgraph.aws4.role;" parent="1" vertex="1">
          <mxGeometry x="760" y="960" width="80" height="40" as="geometry" />
        </mxCell>
        <mxCell id="SGmXH1uzqU8MEBnB1vXx-40" style="edgeStyle=orthogonalEdgeStyle;rounded=0;orthogonalLoop=1;jettySize=auto;html=1;" parent="1" source="SGmXH1uzqU8MEBnB1vXx-12" target="SGmXH1uzqU8MEBnB1vXx-18" edge="1">
          <mxGeometry relative="1" as="geometry" />
        </mxCell>
        <mxCell id="SGmXH1uzqU8MEBnB1vXx-41" style="edgeStyle=orthogonalEdgeStyle;rounded=0;orthogonalLoop=1;jettySize=auto;html=1;" parent="1" source="SGmXH1uzqU8MEBnB1vXx-12" target="SGmXH1uzqU8MEBnB1vXx-25" edge="1">
          <mxGeometry relative="1" as="geometry">
            <Array as="points">
              <mxPoint x="680" y="260" />
              <mxPoint x="680" y="500" />
            </Array>
          </mxGeometry>
        </mxCell>
        <mxCell id="SGmXH1uzqU8MEBnB1vXx-42" style="edgeStyle=orthogonalEdgeStyle;rounded=0;orthogonalLoop=1;jettySize=auto;html=1;" parent="1" source="SGmXH1uzqU8MEBnB1vXx-12" target="SGmXH1uzqU8MEBnB1vXx-32" edge="1">
          <mxGeometry relative="1" as="geometry">
            <Array as="points">
              <mxPoint x="680" y="260" />
              <mxPoint x="680" y="740" />
            </Array>
          </mxGeometry>
        </mxCell>
        <mxCell id="SGmXH1uzqU8MEBnB1vXx-43" value="Assume" style="edgeStyle=orthogonalEdgeStyle;rounded=0;orthogonalLoop=1;jettySize=auto;html=1;" parent="1" source="SGmXH1uzqU8MEBnB1vXx-12" target="SGmXH1uzqU8MEBnB1vXx-39" edge="1">
          <mxGeometry relative="1" as="geometry">
            <Array as="points">
              <mxPoint x="680" y="260" />
              <mxPoint x="680" y="980" />
            </Array>
          </mxGeometry>
        </mxCell>
        <mxCell id="SGmXH1uzqU8MEBnB1vXx-44" value="Multi AWS Account Setup" style="text;html=1;strokeColor=default;fillColor=none;align=center;verticalAlign=middle;whiteSpace=wrap;rounded=0;" parent="1" vertex="1">
          <mxGeometry x="40" y="40" width="600" height="40" as="geometry" />
        </mxCell>
        <mxCell id="vOl664j5kSCNELGRVPRj-1" value="&lt;h1&gt;Lambda Layer&lt;/h1&gt;&lt;div style=&quot;background-color: rgb(39, 40, 34); color: rgb(248, 248, 242); font-family: &amp;quot;JetBrains Mono&amp;quot;, monospace; font-size: 9.8pt;&quot;&gt;# Layer artifacts&lt;br&gt;s3&lt;span style=&quot;color:#f92672;&quot;&gt;://&lt;/span&gt;bucket&lt;span style=&quot;color:#f92672;&quot;&gt;/&lt;/span&gt;projects&lt;span style=&quot;color:#f92672;&quot;&gt;/&lt;/span&gt;${project_name&lt;span style=&quot;color:#e8ba36;&quot;&gt;}&lt;/span&gt;&lt;span style=&quot;color:#f92672;&quot;&gt;/&lt;/span&gt;&lt;span style=&quot;color:#66d9ef;font-style:italic;&quot;&gt;lambda&lt;/span&gt;&lt;span style=&quot;color:#f92672;&quot;&gt;/&lt;/span&gt;layer&lt;span style=&quot;color:#f92672;&quot;&gt;/&lt;/span&gt;&lt;span style=&quot;color:#ae81ff;&quot;&gt;000001&lt;/span&gt;&lt;span style=&quot;color:#f92672;&quot;&gt;/&lt;/span&gt;layer.zip&lt;br&gt;s3&lt;span style=&quot;color:#f92672;&quot;&gt;://&lt;/span&gt;bucket&lt;span style=&quot;color:#f92672;&quot;&gt;/&lt;/span&gt;projects&lt;span style=&quot;color:#f92672;&quot;&gt;/&lt;/span&gt;${project_name&lt;span style=&quot;color:#e8ba36;&quot;&gt;}&lt;/span&gt;&lt;span style=&quot;color:#f92672;&quot;&gt;/&lt;/span&gt;&lt;span style=&quot;color:#66d9ef;font-style:italic;&quot;&gt;lambda&lt;/span&gt;&lt;span style=&quot;color:#f92672;&quot;&gt;/&lt;/span&gt;layer&lt;span style=&quot;color:#f92672;&quot;&gt;/&lt;/span&gt;&lt;span style=&quot;color:#ae81ff;&quot;&gt;000001&lt;/span&gt;&lt;span style=&quot;color:#f92672;&quot;&gt;/&lt;/span&gt;requirements.zip&lt;br&gt;&lt;br&gt;s3&lt;span style=&quot;color:#f92672;&quot;&gt;://&lt;/span&gt;bucket&lt;span style=&quot;color:#f92672;&quot;&gt;/&lt;/span&gt;projects&lt;span style=&quot;color:#f92672;&quot;&gt;/&lt;/span&gt;${project_name&lt;span style=&quot;color:#e8ba36;&quot;&gt;}&lt;/span&gt;&lt;span style=&quot;color:#f92672;&quot;&gt;/&lt;/span&gt;&lt;span style=&quot;color:#66d9ef;font-style:italic;&quot;&gt;lambda&lt;/span&gt;&lt;span style=&quot;color:#f92672;&quot;&gt;/&lt;/span&gt;layer&lt;span style=&quot;color:#f92672;&quot;&gt;/&lt;/span&gt;&lt;span style=&quot;color:#ae81ff;&quot;&gt;000002&lt;/span&gt;&lt;span style=&quot;color:#f92672;&quot;&gt;/&lt;/span&gt;layer.zip&lt;br&gt;s3&lt;span style=&quot;color:#f92672;&quot;&gt;://&lt;/span&gt;bucket&lt;span style=&quot;color:#f92672;&quot;&gt;/&lt;/span&gt;projects&lt;span style=&quot;color:#f92672;&quot;&gt;/&lt;/span&gt;${project_name&lt;span style=&quot;color:#e8ba36;&quot;&gt;}&lt;/span&gt;&lt;span style=&quot;color:#f92672;&quot;&gt;/&lt;/span&gt;&lt;span style=&quot;color:#66d9ef;font-style:italic;&quot;&gt;lambda&lt;/span&gt;&lt;span style=&quot;color:#f92672;&quot;&gt;/&lt;/span&gt;layer&lt;span style=&quot;color:#f92672;&quot;&gt;/&lt;/span&gt;&lt;span style=&quot;color:#ae81ff;&quot;&gt;000002&lt;/span&gt;&lt;span style=&quot;color:#f92672;&quot;&gt;/&lt;/span&gt;requirements.zip&lt;br&gt;&lt;br&gt;s3&lt;span style=&quot;color:#f92672;&quot;&gt;://&lt;/span&gt;bucket&lt;span style=&quot;color:#f92672;&quot;&gt;/&lt;/span&gt;projects&lt;span style=&quot;color:#f92672;&quot;&gt;/&lt;/span&gt;${project_name&lt;span style=&quot;color:#e8ba36;&quot;&gt;}&lt;/span&gt;&lt;span style=&quot;color:#f92672;&quot;&gt;/&lt;/span&gt;&lt;span style=&quot;color:#66d9ef;font-style:italic;&quot;&gt;lambda&lt;/span&gt;&lt;span style=&quot;color:#f92672;&quot;&gt;/&lt;/span&gt;layer&lt;span style=&quot;color:#f92672;&quot;&gt;/&lt;/span&gt;&lt;span style=&quot;color:#ae81ff;&quot;&gt;000003&lt;/span&gt;&lt;span style=&quot;color:#f92672;&quot;&gt;/&lt;/span&gt;layer.zip&lt;br&gt;s3&lt;span style=&quot;color:#f92672;&quot;&gt;://&lt;/span&gt;bucket&lt;span style=&quot;color:#f92672;&quot;&gt;/&lt;/span&gt;projects&lt;span style=&quot;color:#f92672;&quot;&gt;/&lt;/span&gt;${project_name&lt;span style=&quot;color:#e8ba36;&quot;&gt;}&lt;/span&gt;&lt;span style=&quot;color:#f92672;&quot;&gt;/&lt;/span&gt;&lt;span style=&quot;color:#66d9ef;font-style:italic;&quot;&gt;lambda&lt;/span&gt;&lt;span style=&quot;color:#f92672;&quot;&gt;/&lt;/span&gt;layer&lt;span style=&quot;color:#f92672;&quot;&gt;/&lt;/span&gt;&lt;span style=&quot;color:#ae81ff;&quot;&gt;000003&lt;/span&gt;&lt;span style=&quot;color:#f92672;&quot;&gt;/&lt;/span&gt;requirements.zip&lt;/div&gt;" style="text;html=1;strokeColor=default;fillColor=none;spacing=5;spacingTop=-20;whiteSpace=wrap;overflow=hidden;rounded=0;" parent="1" vertex="1">
          <mxGeometry x="40" y="1400" width="760" height="200" as="geometry" />
        </mxCell>
        <mxCell id="vOl664j5kSCNELGRVPRj-2" value="&lt;h1&gt;Lambda Source&lt;/h1&gt;&lt;div style=&quot;background-color: rgb(39, 40, 34); color: rgb(248, 248, 242); font-family: &amp;quot;JetBrains Mono&amp;quot;, monospace; font-size: 9.8pt;&quot;&gt;# Source artifacts&lt;br&gt;s3&lt;span style=&quot;color:#f92672;&quot;&gt;://&lt;/span&gt;bucket&lt;span style=&quot;color:#f92672;&quot;&gt;/&lt;/span&gt;projects&lt;span style=&quot;color:#f92672;&quot;&gt;/&lt;/span&gt;${project_name&lt;span style=&quot;color:#e8ba36;&quot;&gt;}&lt;/span&gt;&lt;span style=&quot;color:#f92672;&quot;&gt;/&lt;/span&gt;&lt;span style=&quot;color:#66d9ef;font-style:italic;&quot;&gt;lambda&lt;/span&gt;&lt;span style=&quot;color:#f92672;&quot;&gt;/&lt;/span&gt;source&lt;span style=&quot;color:#f92672;&quot;&gt;/&lt;/span&gt;&lt;span style=&quot;color:#ae81ff;&quot;&gt;0.1.1&lt;/span&gt;&lt;span style=&quot;color:#f92672;&quot;&gt;/&lt;/span&gt;${project_name&lt;span style=&quot;color:#e8ba36;&quot;&gt;}&lt;/span&gt;&lt;span style=&quot;color:#f92672;&quot;&gt;-&lt;/span&gt;&lt;span style=&quot;color:#ae81ff;&quot;&gt;0.1.1&lt;/span&gt;&lt;span style=&quot;color:#f92672;&quot;&gt;-&lt;/span&gt;py3&lt;span style=&quot;color:#f92672;&quot;&gt;-&lt;/span&gt;none&lt;span style=&quot;color:#f92672;&quot;&gt;-&lt;/span&gt;&lt;span style=&quot;color:#66d9ef;&quot;&gt;any&lt;/span&gt;.whl&lt;br&gt;s3&lt;span style=&quot;color:#f92672;&quot;&gt;://&lt;/span&gt;bucket&lt;span style=&quot;color:#f92672;&quot;&gt;/&lt;/span&gt;projects&lt;span style=&quot;color:#f92672;&quot;&gt;/&lt;/span&gt;${project_name&lt;span style=&quot;color:#e8ba36;&quot;&gt;}&lt;/span&gt;&lt;span style=&quot;color:#f92672;&quot;&gt;/&lt;/span&gt;&lt;span style=&quot;color:#66d9ef;font-style:italic;&quot;&gt;lambda&lt;/span&gt;&lt;span style=&quot;color:#f92672;&quot;&gt;/&lt;/span&gt;source&lt;span style=&quot;color:#f92672;&quot;&gt;/&lt;/span&gt;&lt;span style=&quot;color:#ae81ff;&quot;&gt;0.1.1&lt;/span&gt;&lt;span style=&quot;color:#f92672;&quot;&gt;/&lt;/span&gt;${project_name&lt;span style=&quot;color:#e8ba36;&quot;&gt;}&lt;/span&gt;&lt;span style=&quot;color:#f92672;&quot;&gt;-&lt;/span&gt;&lt;span style=&quot;color:#ae81ff;&quot;&gt;0.1.1&lt;/span&gt;.tar.gz&lt;br&gt;&lt;br&gt;s3&lt;span style=&quot;color:#f92672;&quot;&gt;://&lt;/span&gt;bucket&lt;span style=&quot;color:#f92672;&quot;&gt;/&lt;/span&gt;projects&lt;span style=&quot;color:#f92672;&quot;&gt;/&lt;/span&gt;${project_name&lt;span style=&quot;color:#e8ba36;&quot;&gt;}&lt;/span&gt;&lt;span style=&quot;color:#f92672;&quot;&gt;/&lt;/span&gt;&lt;span style=&quot;color:#66d9ef;font-style:italic;&quot;&gt;lambda&lt;/span&gt;&lt;span style=&quot;color:#f92672;&quot;&gt;/&lt;/span&gt;source&lt;span style=&quot;color:#f92672;&quot;&gt;/&lt;/span&gt;&lt;span style=&quot;color:#ae81ff;&quot;&gt;0.2.1&lt;/span&gt;&lt;span style=&quot;color:#f92672;&quot;&gt;/&lt;/span&gt;${project_name&lt;span style=&quot;color:#e8ba36;&quot;&gt;}&lt;/span&gt;&lt;span style=&quot;color:#f92672;&quot;&gt;-&lt;/span&gt;&lt;span style=&quot;color:#ae81ff;&quot;&gt;0.2.1&lt;/span&gt;&lt;span style=&quot;color:#f92672;&quot;&gt;-&lt;/span&gt;py3&lt;span style=&quot;color:#f92672;&quot;&gt;-&lt;/span&gt;none&lt;span style=&quot;color:#f92672;&quot;&gt;-&lt;/span&gt;&lt;span style=&quot;color:#66d9ef;&quot;&gt;any&lt;/span&gt;.whl&lt;br&gt;s3&lt;span style=&quot;color:#f92672;&quot;&gt;://&lt;/span&gt;bucket&lt;span style=&quot;color:#f92672;&quot;&gt;/&lt;/span&gt;projects&lt;span style=&quot;color:#f92672;&quot;&gt;/&lt;/span&gt;${project_name&lt;span style=&quot;color:#e8ba36;&quot;&gt;}&lt;/span&gt;&lt;span style=&quot;color:#f92672;&quot;&gt;/&lt;/span&gt;&lt;span style=&quot;color:#66d9ef;font-style:italic;&quot;&gt;lambda&lt;/span&gt;&lt;span style=&quot;color:#f92672;&quot;&gt;/&lt;/span&gt;source&lt;span style=&quot;color:#f92672;&quot;&gt;/&lt;/span&gt;&lt;span style=&quot;color:#ae81ff;&quot;&gt;0.2.1&lt;/span&gt;&lt;span style=&quot;color:#f92672;&quot;&gt;/&lt;/span&gt;${project_name&lt;span style=&quot;color:#e8ba36;&quot;&gt;}&lt;/span&gt;&lt;span style=&quot;color:#f92672;&quot;&gt;-&lt;/span&gt;&lt;span style=&quot;color:#ae81ff;&quot;&gt;0.2.1&lt;/span&gt;.tar.gz&lt;br&gt;&lt;br&gt;s3&lt;span style=&quot;color:#f92672;&quot;&gt;://&lt;/span&gt;bucket&lt;span style=&quot;color:#f92672;&quot;&gt;/&lt;/span&gt;projects&lt;span style=&quot;color:#f92672;&quot;&gt;/&lt;/span&gt;${project_name&lt;span style=&quot;color:#e8ba36;&quot;&gt;}&lt;/span&gt;&lt;span style=&quot;color:#f92672;&quot;&gt;/&lt;/span&gt;&lt;span style=&quot;color:#66d9ef;font-style:italic;&quot;&gt;lambda&lt;/span&gt;&lt;span style=&quot;color:#f92672;&quot;&gt;/&lt;/span&gt;source&lt;span style=&quot;color:#f92672;&quot;&gt;/&lt;/span&gt;&lt;span style=&quot;color:#ae81ff;&quot;&gt;0.3.1&lt;/span&gt;&lt;span style=&quot;color:#f92672;&quot;&gt;/&lt;/span&gt;${project_name&lt;span style=&quot;color:#e8ba36;&quot;&gt;}&lt;/span&gt;&lt;span style=&quot;color:#f92672;&quot;&gt;-&lt;/span&gt;&lt;span style=&quot;color:#ae81ff;&quot;&gt;0.3.1&lt;/span&gt;&lt;span style=&quot;color:#f92672;&quot;&gt;-&lt;/span&gt;py3&lt;span style=&quot;color:#f92672;&quot;&gt;-&lt;/span&gt;none&lt;span style=&quot;color:#f92672;&quot;&gt;-&lt;/span&gt;&lt;span style=&quot;color:#66d9ef;&quot;&gt;any&lt;/span&gt;.whl&lt;br&gt;s3&lt;span style=&quot;color:#f92672;&quot;&gt;://&lt;/span&gt;bucket&lt;span style=&quot;color:#f92672;&quot;&gt;/&lt;/span&gt;projects&lt;span style=&quot;color:#f92672;&quot;&gt;/&lt;/span&gt;${project_name&lt;span style=&quot;color:#e8ba36;&quot;&gt;}&lt;/span&gt;&lt;span style=&quot;color:#f92672;&quot;&gt;/&lt;/span&gt;&lt;span style=&quot;color:#66d9ef;font-style:italic;&quot;&gt;lambda&lt;/span&gt;&lt;span style=&quot;color:#f92672;&quot;&gt;/&lt;/span&gt;source&lt;span style=&quot;color:#f92672;&quot;&gt;/&lt;/span&gt;&lt;span style=&quot;color:#ae81ff;&quot;&gt;0.3.1&lt;/span&gt;&lt;span style=&quot;color:#f92672;&quot;&gt;/&lt;/span&gt;${project_name&lt;span style=&quot;color:#e8ba36;&quot;&gt;}&lt;/span&gt;&lt;span style=&quot;color:#f92672;&quot;&gt;-&lt;/span&gt;&lt;span style=&quot;color:#ae81ff;&quot;&gt;0.3.1&lt;/span&gt;.tar.gz&lt;/div&gt;" style="text;html=1;strokeColor=default;fillColor=none;spacing=5;spacingTop=-20;whiteSpace=wrap;overflow=hidden;rounded=0;strokeWidth=1;" parent="1" vertex="1">
          <mxGeometry x="40" y="1160" width="760" height="200" as="geometry" />
        </mxCell>
      </root>
    </mxGraphModel>
  </diagram>
  <diagram name="CI/CD" id="27OHapksOx90TytGZBka">
    <mxGraphModel dx="1177" dy="840" grid="1" gridSize="10" guides="1" tooltips="1" connect="1" arrows="1" fold="1" page="1" pageScale="1" pageWidth="850" pageHeight="1100" math="0" shadow="0">
      <root>
        <mxCell id="0" />
        <mxCell id="1" parent="0" />
        <mxCell id="j-Hx3OOfOkBVIH8NAeES-5" style="edgeStyle=orthogonalEdgeStyle;rounded=0;orthogonalLoop=1;jettySize=auto;html=1;exitX=1;exitY=0.5;exitDx=0;exitDy=0;entryX=0;entryY=0.5;entryDx=0;entryDy=0;entryPerimeter=0;" parent="1" source="x8Q6a-Iog0RQKUIWiD5T-9" target="cqU8UiAglcBpgTtfCBDt-2" edge="1">
          <mxGeometry relative="1" as="geometry" />
        </mxCell>
        <mxCell id="x8Q6a-Iog0RQKUIWiD5T-9" value="main" style="shape=image;verticalLabelPosition=bottom;labelBackgroundColor=default;verticalAlign=top;aspect=fixed;imageAspect=0;image=data:image/svg+xml,PHN2ZyB4bWxucz0iaHR0cDovL3d3dy53My5vcmcvMjAwMC9zdmciIGhlaWdodD0iNDhweCIgd2lkdGg9IjQ4cHgiIHZpZXdCb3g9IjAgMCA0OCA0OCI+PHBhdGggZD0iTTQyLjIsMjIuMUwyNS45LDUuOEMyNS40LDUuMywyNC43LDUsMjQsNWMwLDAsMCwwLDAsMGMtMC43LDAtMS40LDAuMy0xLjksMC44bC0zLjUsMy41bDQuMSw0LjFjMC40LTAuMiwwLjgtMC4zLDEuMy0wLjNjMS43LDAsMywxLjMsMywzYzAsMC41LTAuMSwwLjktMC4zLDEuM2w0LDRjMC40LTAuMiwwLjgtMC4zLDEuMy0wLjNjMS43LDAsMywxLjMsMywzcy0xLjMsMy0zLDNjLTEuNywwLTMtMS4zLTMtM2MwLTAuNSwwLjEtMC45LDAuMy0xLjNsLTQtNGMtMC4xLDAtMC4yLDAuMS0wLjMsMC4xdjEwLjRjMS4yLDAuNCwyLDEuNSwyLDIuOGMwLDEuNy0xLjMsMy0zLDNzLTMtMS4zLTMtM2MwLTEuMywwLjgtMi40LDItMi44VjE4LjhjLTEuMi0wLjQtMi0xLjUtMi0yLjhjMC0wLjUsMC4xLTAuOSwwLjMtMS4zbC00LjEtNC4xTDUuOCwyMi4xQzUuMywyMi42LDUsMjMuMyw1LDI0YzAsMC43LDAuMywxLjQsMC44LDEuOWwxNi4zLDE2LjNjMCwwLDAsMCwwLDBjMC41LDAuNSwxLjIsMC44LDEuOSwwLjhzMS40LTAuMywxLjktMC44bDE2LjMtMTYuM2MwLjUtMC41LDAuOC0xLjIsMC44LTEuOUM0MywyMy4zLDQyLjcsMjIuNiw0Mi4yLDIyLjF6IiBmaWxsPSIjRjQ1MTFFIi8+PC9zdmc+;" parent="1" vertex="1">
          <mxGeometry x="120" y="1040" width="80" height="80" as="geometry" />
        </mxCell>
        <mxCell id="cqU8UiAglcBpgTtfCBDt-27" style="edgeStyle=orthogonalEdgeStyle;rounded=0;orthogonalLoop=1;jettySize=auto;html=1;exitX=1;exitY=0.5;exitDx=0;exitDy=0;entryX=0;entryY=0.5;entryDx=0;entryDy=0;entryPerimeter=0;" parent="1" source="x8Q6a-Iog0RQKUIWiD5T-10" target="cqU8UiAglcBpgTtfCBDt-1" edge="1">
          <mxGeometry relative="1" as="geometry" />
        </mxCell>
        <mxCell id="x8Q6a-Iog0RQKUIWiD5T-10" value="release/project1" style="shape=image;verticalLabelPosition=bottom;labelBackgroundColor=default;verticalAlign=top;aspect=fixed;imageAspect=0;image=data:image/svg+xml,PHN2ZyB4bWxucz0iaHR0cDovL3d3dy53My5vcmcvMjAwMC9zdmciIGhlaWdodD0iNDhweCIgd2lkdGg9IjQ4cHgiIHZpZXdCb3g9IjAgMCA0OCA0OCI+PHBhdGggZD0iTTQyLjIsMjIuMUwyNS45LDUuOEMyNS40LDUuMywyNC43LDUsMjQsNWMwLDAsMCwwLDAsMGMtMC43LDAtMS40LDAuMy0xLjksMC44bC0zLjUsMy41bDQuMSw0LjFjMC40LTAuMiwwLjgtMC4zLDEuMy0wLjNjMS43LDAsMywxLjMsMywzYzAsMC41LTAuMSwwLjktMC4zLDEuM2w0LDRjMC40LTAuMiwwLjgtMC4zLDEuMy0wLjNjMS43LDAsMywxLjMsMywzcy0xLjMsMy0zLDNjLTEuNywwLTMtMS4zLTMtM2MwLTAuNSwwLjEtMC45LDAuMy0xLjNsLTQtNGMtMC4xLDAtMC4yLDAuMS0wLjMsMC4xdjEwLjRjMS4yLDAuNCwyLDEuNSwyLDIuOGMwLDEuNy0xLjMsMy0zLDNzLTMtMS4zLTMtM2MwLTEuMywwLjgtMi40LDItMi44VjE4LjhjLTEuMi0wLjQtMi0xLjUtMi0yLjhjMC0wLjUsMC4xLTAuOSwwLjMtMS4zbC00LjEtNC4xTDUuOCwyMi4xQzUuMywyMi42LDUsMjMuMyw1LDI0YzAsMC43LDAuMywxLjQsMC44LDEuOWwxNi4zLDE2LjNjMCwwLDAsMCwwLDBjMC41LDAuNSwxLjIsMC44LDEuOSwwLjhzMS40LTAuMywxLjktMC44bDE2LjMtMTYuM2MwLjUtMC41LDAuOC0xLjIsMC44LTEuOUM0MywyMy4zLDQyLjcsMjIuNiw0Mi4yLDIyLjF6IiBmaWxsPSIjRjQ1MTFFIi8+PC9zdmc+;" parent="1" vertex="1">
          <mxGeometry x="120" y="1480" width="80" height="80" as="geometry" />
        </mxCell>
        <mxCell id="cqU8UiAglcBpgTtfCBDt-1" value="CodePipeline&lt;br&gt;project1" style="sketch=0;points=[[0,0,0],[0.25,0,0],[0.5,0,0],[0.75,0,0],[1,0,0],[0,1,0],[0.25,1,0],[0.5,1,0],[0.75,1,0],[1,1,0],[0,0.25,0],[0,0.5,0],[0,0.75,0],[1,0.25,0],[1,0.5,0],[1,0.75,0]];outlineConnect=0;fontColor=#232F3E;gradientColor=#4D72F3;gradientDirection=north;fillColor=#3334B9;strokeColor=#ffffff;dashed=0;verticalLabelPosition=bottom;verticalAlign=top;align=center;html=1;fontSize=12;fontStyle=0;aspect=fixed;shape=mxgraph.aws4.resourceIcon;resIcon=mxgraph.aws4.codebuild;" parent="1" vertex="1">
          <mxGeometry x="240" y="1480" width="80" height="80" as="geometry" />
        </mxCell>
        <mxCell id="cqU8UiAglcBpgTtfCBDt-2" value="CodeBuild&lt;br&gt;Project" style="sketch=0;points=[[0,0,0],[0.25,0,0],[0.5,0,0],[0.75,0,0],[1,0,0],[0,1,0],[0.25,1,0],[0.5,1,0],[0.75,1,0],[1,1,0],[0,0.25,0],[0,0.5,0],[0,0.75,0],[1,0.25,0],[1,0.5,0],[1,0.75,0]];outlineConnect=0;fontColor=#232F3E;gradientColor=#4D72F3;gradientDirection=north;fillColor=#3334B9;strokeColor=#ffffff;dashed=0;verticalLabelPosition=bottom;verticalAlign=top;align=center;html=1;fontSize=12;fontStyle=0;aspect=fixed;shape=mxgraph.aws4.resourceIcon;resIcon=mxgraph.aws4.codepipeline;" parent="1" vertex="1">
          <mxGeometry x="240" y="1040" width="80" height="80" as="geometry" />
        </mxCell>
        <mxCell id="cqU8UiAglcBpgTtfCBDt-28" style="edgeStyle=orthogonalEdgeStyle;rounded=0;orthogonalLoop=1;jettySize=auto;html=1;exitX=1;exitY=0.5;exitDx=0;exitDy=0;entryX=0;entryY=0.5;entryDx=0;entryDy=0;entryPerimeter=0;" parent="1" source="cqU8UiAglcBpgTtfCBDt-14" target="cqU8UiAglcBpgTtfCBDt-15" edge="1">
          <mxGeometry relative="1" as="geometry" />
        </mxCell>
        <mxCell id="cqU8UiAglcBpgTtfCBDt-14" value="release/project2" style="shape=image;verticalLabelPosition=bottom;labelBackgroundColor=default;verticalAlign=top;aspect=fixed;imageAspect=0;image=data:image/svg+xml,PHN2ZyB4bWxucz0iaHR0cDovL3d3dy53My5vcmcvMjAwMC9zdmciIGhlaWdodD0iNDhweCIgd2lkdGg9IjQ4cHgiIHZpZXdCb3g9IjAgMCA0OCA0OCI+PHBhdGggZD0iTTQyLjIsMjIuMUwyNS45LDUuOEMyNS40LDUuMywyNC43LDUsMjQsNWMwLDAsMCwwLDAsMGMtMC43LDAtMS40LDAuMy0xLjksMC44bC0zLjUsMy41bDQuMSw0LjFjMC40LTAuMiwwLjgtMC4zLDEuMy0wLjNjMS43LDAsMywxLjMsMywzYzAsMC41LTAuMSwwLjktMC4zLDEuM2w0LDRjMC40LTAuMiwwLjgtMC4zLDEuMy0wLjNjMS43LDAsMywxLjMsMywzcy0xLjMsMy0zLDNjLTEuNywwLTMtMS4zLTMtM2MwLTAuNSwwLjEtMC45LDAuMy0xLjNsLTQtNGMtMC4xLDAtMC4yLDAuMS0wLjMsMC4xdjEwLjRjMS4yLDAuNCwyLDEuNSwyLDIuOGMwLDEuNy0xLjMsMy0zLDNzLTMtMS4zLTMtM2MwLTEuMywwLjgtMi40LDItMi44VjE4LjhjLTEuMi0wLjQtMi0xLjUtMi0yLjhjMC0wLjUsMC4xLTAuOSwwLjMtMS4zbC00LjEtNC4xTDUuOCwyMi4xQzUuMywyMi42LDUsMjMuMyw1LDI0YzAsMC43LDAuMywxLjQsMC44LDEuOWwxNi4zLDE2LjNjMCwwLDAsMCwwLDBjMC41LDAuNSwxLjIsMC44LDEuOSwwLjhzMS40LTAuMywxLjktMC44bDE2LjMtMTYuM2MwLjUtMC41LDAuOC0xLjIsMC44LTEuOUM0MywyMy4zLDQyLjcsMjIuNiw0Mi4yLDIyLjF6IiBmaWxsPSIjRjQ1MTFFIi8+PC9zdmc+;" parent="1" vertex="1">
          <mxGeometry x="120" y="1600" width="80" height="80" as="geometry" />
        </mxCell>
        <mxCell id="cqU8UiAglcBpgTtfCBDt-15" value="CodePipeline&lt;br&gt;project2" style="sketch=0;points=[[0,0,0],[0.25,0,0],[0.5,0,0],[0.75,0,0],[1,0,0],[0,1,0],[0.25,1,0],[0.5,1,0],[0.75,1,0],[1,1,0],[0,0.25,0],[0,0.5,0],[0,0.75,0],[1,0.25,0],[1,0.5,0],[1,0.75,0]];outlineConnect=0;fontColor=#232F3E;gradientColor=#4D72F3;gradientDirection=north;fillColor=#3334B9;strokeColor=#ffffff;dashed=0;verticalLabelPosition=bottom;verticalAlign=top;align=center;html=1;fontSize=12;fontStyle=0;aspect=fixed;shape=mxgraph.aws4.resourceIcon;resIcon=mxgraph.aws4.codebuild;" parent="1" vertex="1">
          <mxGeometry x="240" y="1600" width="80" height="80" as="geometry" />
        </mxCell>
        <mxCell id="cqU8UiAglcBpgTtfCBDt-29" style="edgeStyle=orthogonalEdgeStyle;rounded=0;orthogonalLoop=1;jettySize=auto;html=1;exitX=1;exitY=0.5;exitDx=0;exitDy=0;entryX=0;entryY=0.5;entryDx=0;entryDy=0;entryPerimeter=0;" parent="1" source="cqU8UiAglcBpgTtfCBDt-16" target="cqU8UiAglcBpgTtfCBDt-17" edge="1">
          <mxGeometry relative="1" as="geometry" />
        </mxCell>
        <mxCell id="cqU8UiAglcBpgTtfCBDt-16" value="release/project3" style="shape=image;verticalLabelPosition=bottom;labelBackgroundColor=default;verticalAlign=top;aspect=fixed;imageAspect=0;image=data:image/svg+xml,PHN2ZyB4bWxucz0iaHR0cDovL3d3dy53My5vcmcvMjAwMC9zdmciIGhlaWdodD0iNDhweCIgd2lkdGg9IjQ4cHgiIHZpZXdCb3g9IjAgMCA0OCA0OCI+PHBhdGggZD0iTTQyLjIsMjIuMUwyNS45LDUuOEMyNS40LDUuMywyNC43LDUsMjQsNWMwLDAsMCwwLDAsMGMtMC43LDAtMS40LDAuMy0xLjksMC44bC0zLjUsMy41bDQuMSw0LjFjMC40LTAuMiwwLjgtMC4zLDEuMy0wLjNjMS43LDAsMywxLjMsMywzYzAsMC41LTAuMSwwLjktMC4zLDEuM2w0LDRjMC40LTAuMiwwLjgtMC4zLDEuMy0wLjNjMS43LDAsMywxLjMsMywzcy0xLjMsMy0zLDNjLTEuNywwLTMtMS4zLTMtM2MwLTAuNSwwLjEtMC45LDAuMy0xLjNsLTQtNGMtMC4xLDAtMC4yLDAuMS0wLjMsMC4xdjEwLjRjMS4yLDAuNCwyLDEuNSwyLDIuOGMwLDEuNy0xLjMsMy0zLDNzLTMtMS4zLTMtM2MwLTEuMywwLjgtMi40LDItMi44VjE4LjhjLTEuMi0wLjQtMi0xLjUtMi0yLjhjMC0wLjUsMC4xLTAuOSwwLjMtMS4zbC00LjEtNC4xTDUuOCwyMi4xQzUuMywyMi42LDUsMjMuMyw1LDI0YzAsMC43LDAuMywxLjQsMC44LDEuOWwxNi4zLDE2LjNjMCwwLDAsMCwwLDBjMC41LDAuNSwxLjIsMC44LDEuOSwwLjhzMS40LTAuMywxLjktMC44bDE2LjMtMTYuM2MwLjUtMC41LDAuOC0xLjIsMC44LTEuOUM0MywyMy4zLDQyLjcsMjIuNiw0Mi4yLDIyLjF6IiBmaWxsPSIjRjQ1MTFFIi8+PC9zdmc+;" parent="1" vertex="1">
          <mxGeometry x="120" y="1720" width="80" height="80" as="geometry" />
        </mxCell>
        <mxCell id="cqU8UiAglcBpgTtfCBDt-17" value="CodePipeline&lt;br&gt;project3" style="sketch=0;points=[[0,0,0],[0.25,0,0],[0.5,0,0],[0.75,0,0],[1,0,0],[0,1,0],[0.25,1,0],[0.5,1,0],[0.75,1,0],[1,1,0],[0,0.25,0],[0,0.5,0],[0,0.75,0],[1,0.25,0],[1,0.5,0],[1,0.75,0]];outlineConnect=0;fontColor=#232F3E;gradientColor=#4D72F3;gradientDirection=north;fillColor=#3334B9;strokeColor=#ffffff;dashed=0;verticalLabelPosition=bottom;verticalAlign=top;align=center;html=1;fontSize=12;fontStyle=0;aspect=fixed;shape=mxgraph.aws4.resourceIcon;resIcon=mxgraph.aws4.codebuild;" parent="1" vertex="1">
          <mxGeometry x="240" y="1720" width="80" height="80" as="geometry" />
        </mxCell>
        <mxCell id="cqU8UiAglcBpgTtfCBDt-24" style="edgeStyle=orthogonalEdgeStyle;rounded=0;orthogonalLoop=1;jettySize=auto;html=1;exitX=1;exitY=0.5;exitDx=0;exitDy=0;entryX=0;entryY=0.5;entryDx=0;entryDy=0;entryPerimeter=0;" parent="1" source="cqU8UiAglcBpgTtfCBDt-18" target="cqU8UiAglcBpgTtfCBDt-21" edge="1">
          <mxGeometry relative="1" as="geometry" />
        </mxCell>
        <mxCell id="cqU8UiAglcBpgTtfCBDt-18" value="dev/project1/description" style="shape=image;verticalLabelPosition=bottom;labelBackgroundColor=default;verticalAlign=top;aspect=fixed;imageAspect=0;image=data:image/svg+xml,PHN2ZyB4bWxucz0iaHR0cDovL3d3dy53My5vcmcvMjAwMC9zdmciIGhlaWdodD0iNDhweCIgd2lkdGg9IjQ4cHgiIHZpZXdCb3g9IjAgMCA0OCA0OCI+PHBhdGggZD0iTTQyLjIsMjIuMUwyNS45LDUuOEMyNS40LDUuMywyNC43LDUsMjQsNWMwLDAsMCwwLDAsMGMtMC43LDAtMS40LDAuMy0xLjksMC44bC0zLjUsMy41bDQuMSw0LjFjMC40LTAuMiwwLjgtMC4zLDEuMy0wLjNjMS43LDAsMywxLjMsMywzYzAsMC41LTAuMSwwLjktMC4zLDEuM2w0LDRjMC40LTAuMiwwLjgtMC4zLDEuMy0wLjNjMS43LDAsMywxLjMsMywzcy0xLjMsMy0zLDNjLTEuNywwLTMtMS4zLTMtM2MwLTAuNSwwLjEtMC45LDAuMy0xLjNsLTQtNGMtMC4xLDAtMC4yLDAuMS0wLjMsMC4xdjEwLjRjMS4yLDAuNCwyLDEuNSwyLDIuOGMwLDEuNy0xLjMsMy0zLDNzLTMtMS4zLTMtM2MwLTEuMywwLjgtMi40LDItMi44VjE4LjhjLTEuMi0wLjQtMi0xLjUtMi0yLjhjMC0wLjUsMC4xLTAuOSwwLjMtMS4zbC00LjEtNC4xTDUuOCwyMi4xQzUuMywyMi42LDUsMjMuMyw1LDI0YzAsMC43LDAuMywxLjQsMC44LDEuOWwxNi4zLDE2LjNjMCwwLDAsMCwwLDBjMC41LDAuNSwxLjIsMC44LDEuOSwwLjhzMS40LTAuMywxLjktMC44bDE2LjMtMTYuM2MwLjUtMC41LDAuOC0xLjIsMC44LTEuOUM0MywyMy4zLDQyLjcsMjIuNiw0Mi4yLDIyLjF6IiBmaWxsPSIjRjQ1MTFFIi8+PC9zdmc+;" parent="1" vertex="1">
          <mxGeometry x="120" y="480" width="80" height="80" as="geometry" />
        </mxCell>
        <mxCell id="cqU8UiAglcBpgTtfCBDt-25" style="edgeStyle=orthogonalEdgeStyle;rounded=0;orthogonalLoop=1;jettySize=auto;html=1;exitX=1;exitY=0.5;exitDx=0;exitDy=0;entryX=0;entryY=0.5;entryDx=0;entryDy=0;entryPerimeter=0;" parent="1" source="cqU8UiAglcBpgTtfCBDt-19" target="cqU8UiAglcBpgTtfCBDt-22" edge="1">
          <mxGeometry relative="1" as="geometry" />
        </mxCell>
        <mxCell id="cqU8UiAglcBpgTtfCBDt-19" value="dev/project2/description" style="shape=image;verticalLabelPosition=bottom;labelBackgroundColor=default;verticalAlign=top;aspect=fixed;imageAspect=0;image=data:image/svg+xml,PHN2ZyB4bWxucz0iaHR0cDovL3d3dy53My5vcmcvMjAwMC9zdmciIGhlaWdodD0iNDhweCIgd2lkdGg9IjQ4cHgiIHZpZXdCb3g9IjAgMCA0OCA0OCI+PHBhdGggZD0iTTQyLjIsMjIuMUwyNS45LDUuOEMyNS40LDUuMywyNC43LDUsMjQsNWMwLDAsMCwwLDAsMGMtMC43LDAtMS40LDAuMy0xLjksMC44bC0zLjUsMy41bDQuMSw0LjFjMC40LTAuMiwwLjgtMC4zLDEuMy0wLjNjMS43LDAsMywxLjMsMywzYzAsMC41LTAuMSwwLjktMC4zLDEuM2w0LDRjMC40LTAuMiwwLjgtMC4zLDEuMy0wLjNjMS43LDAsMywxLjMsMywzcy0xLjMsMy0zLDNjLTEuNywwLTMtMS4zLTMtM2MwLTAuNSwwLjEtMC45LDAuMy0xLjNsLTQtNGMtMC4xLDAtMC4yLDAuMS0wLjMsMC4xdjEwLjRjMS4yLDAuNCwyLDEuNSwyLDIuOGMwLDEuNy0xLjMsMy0zLDNzLTMtMS4zLTMtM2MwLTEuMywwLjgtMi40LDItMi44VjE4LjhjLTEuMi0wLjQtMi0xLjUtMi0yLjhjMC0wLjUsMC4xLTAuOSwwLjMtMS4zbC00LjEtNC4xTDUuOCwyMi4xQzUuMywyMi42LDUsMjMuMyw1LDI0YzAsMC43LDAuMywxLjQsMC44LDEuOWwxNi4zLDE2LjNjMCwwLDAsMCwwLDBjMC41LDAuNSwxLjIsMC44LDEuOSwwLjhzMS40LTAuMywxLjktMC44bDE2LjMtMTYuM2MwLjUtMC41LDAuOC0xLjIsMC44LTEuOUM0MywyMy4zLDQyLjcsMjIuNiw0Mi4yLDIyLjF6IiBmaWxsPSIjRjQ1MTFFIi8+PC9zdmc+;" parent="1" vertex="1">
          <mxGeometry x="120" y="600" width="80" height="80" as="geometry" />
        </mxCell>
        <mxCell id="cqU8UiAglcBpgTtfCBDt-26" style="edgeStyle=orthogonalEdgeStyle;rounded=0;orthogonalLoop=1;jettySize=auto;html=1;exitX=1;exitY=0.5;exitDx=0;exitDy=0;entryX=0;entryY=0.5;entryDx=0;entryDy=0;entryPerimeter=0;" parent="1" source="cqU8UiAglcBpgTtfCBDt-20" target="cqU8UiAglcBpgTtfCBDt-23" edge="1">
          <mxGeometry relative="1" as="geometry" />
        </mxCell>
        <mxCell id="cqU8UiAglcBpgTtfCBDt-20" value="dev/project3/description" style="shape=image;verticalLabelPosition=bottom;labelBackgroundColor=default;verticalAlign=top;aspect=fixed;imageAspect=0;image=data:image/svg+xml,PHN2ZyB4bWxucz0iaHR0cDovL3d3dy53My5vcmcvMjAwMC9zdmciIGhlaWdodD0iNDhweCIgd2lkdGg9IjQ4cHgiIHZpZXdCb3g9IjAgMCA0OCA0OCI+PHBhdGggZD0iTTQyLjIsMjIuMUwyNS45LDUuOEMyNS40LDUuMywyNC43LDUsMjQsNWMwLDAsMCwwLDAsMGMtMC43LDAtMS40LDAuMy0xLjksMC44bC0zLjUsMy41bDQuMSw0LjFjMC40LTAuMiwwLjgtMC4zLDEuMy0wLjNjMS43LDAsMywxLjMsMywzYzAsMC41LTAuMSwwLjktMC4zLDEuM2w0LDRjMC40LTAuMiwwLjgtMC4zLDEuMy0wLjNjMS43LDAsMywxLjMsMywzcy0xLjMsMy0zLDNjLTEuNywwLTMtMS4zLTMtM2MwLTAuNSwwLjEtMC45LDAuMy0xLjNsLTQtNGMtMC4xLDAtMC4yLDAuMS0wLjMsMC4xdjEwLjRjMS4yLDAuNCwyLDEuNSwyLDIuOGMwLDEuNy0xLjMsMy0zLDNzLTMtMS4zLTMtM2MwLTEuMywwLjgtMi40LDItMi44VjE4LjhjLTEuMi0wLjQtMi0xLjUtMi0yLjhjMC0wLjUsMC4xLTAuOSwwLjMtMS4zbC00LjEtNC4xTDUuOCwyMi4xQzUuMywyMi42LDUsMjMuMyw1LDI0YzAsMC43LDAuMywxLjQsMC44LDEuOWwxNi4zLDE2LjNjMCwwLDAsMCwwLDBjMC41LDAuNSwxLjIsMC44LDEuOSwwLjhzMS40LTAuMywxLjktMC44bDE2LjMtMTYuM2MwLjUtMC41LDAuOC0xLjIsMC44LTEuOUM0MywyMy4zLDQyLjcsMjIuNiw0Mi4yLDIyLjF6IiBmaWxsPSIjRjQ1MTFFIi8+PC9zdmc+;" parent="1" vertex="1">
          <mxGeometry x="120" y="720" width="80" height="80" as="geometry" />
        </mxCell>
        <mxCell id="cqU8UiAglcBpgTtfCBDt-21" value="CodeBuild&lt;br&gt;Project" style="sketch=0;points=[[0,0,0],[0.25,0,0],[0.5,0,0],[0.75,0,0],[1,0,0],[0,1,0],[0.25,1,0],[0.5,1,0],[0.75,1,0],[1,1,0],[0,0.25,0],[0,0.5,0],[0,0.75,0],[1,0.25,0],[1,0.5,0],[1,0.75,0]];outlineConnect=0;fontColor=#232F3E;gradientColor=#4D72F3;gradientDirection=north;fillColor=#3334B9;strokeColor=#ffffff;dashed=0;verticalLabelPosition=bottom;verticalAlign=top;align=center;html=1;fontSize=12;fontStyle=0;aspect=fixed;shape=mxgraph.aws4.resourceIcon;resIcon=mxgraph.aws4.codepipeline;" parent="1" vertex="1">
          <mxGeometry x="240" y="480" width="80" height="80" as="geometry" />
        </mxCell>
        <mxCell id="cqU8UiAglcBpgTtfCBDt-22" value="CodeBuild&lt;br&gt;Project" style="sketch=0;points=[[0,0,0],[0.25,0,0],[0.5,0,0],[0.75,0,0],[1,0,0],[0,1,0],[0.25,1,0],[0.5,1,0],[0.75,1,0],[1,1,0],[0,0.25,0],[0,0.5,0],[0,0.75,0],[1,0.25,0],[1,0.5,0],[1,0.75,0]];outlineConnect=0;fontColor=#232F3E;gradientColor=#4D72F3;gradientDirection=north;fillColor=#3334B9;strokeColor=#ffffff;dashed=0;verticalLabelPosition=bottom;verticalAlign=top;align=center;html=1;fontSize=12;fontStyle=0;aspect=fixed;shape=mxgraph.aws4.resourceIcon;resIcon=mxgraph.aws4.codepipeline;" parent="1" vertex="1">
          <mxGeometry x="240" y="600" width="80" height="80" as="geometry" />
        </mxCell>
        <mxCell id="cqU8UiAglcBpgTtfCBDt-23" value="CodeBuild&lt;br&gt;Project" style="sketch=0;points=[[0,0,0],[0.25,0,0],[0.5,0,0],[0.75,0,0],[1,0,0],[0,1,0],[0.25,1,0],[0.5,1,0],[0.75,1,0],[1,1,0],[0,0.25,0],[0,0.5,0],[0,0.75,0],[1,0.25,0],[1,0.5,0],[1,0.75,0]];outlineConnect=0;fontColor=#232F3E;gradientColor=#4D72F3;gradientDirection=north;fillColor=#3334B9;strokeColor=#ffffff;dashed=0;verticalLabelPosition=bottom;verticalAlign=top;align=center;html=1;fontSize=12;fontStyle=0;aspect=fixed;shape=mxgraph.aws4.resourceIcon;resIcon=mxgraph.aws4.codepipeline;" parent="1" vertex="1">
          <mxGeometry x="240" y="720" width="80" height="80" as="geometry" />
        </mxCell>
        <mxCell id="cqU8UiAglcBpgTtfCBDt-32" value="Git Repo Setup" style="swimlane;whiteSpace=wrap;html=1;" parent="1" vertex="1">
          <mxGeometry x="40" y="40" width="760" height="320" as="geometry" />
        </mxCell>
        <mxCell id="cqU8UiAglcBpgTtfCBDt-30" value="CodeCommit&lt;br&gt;Repository" style="sketch=0;points=[[0,0,0],[0.25,0,0],[0.5,0,0],[0.75,0,0],[1,0,0],[0,1,0],[0.25,1,0],[0.5,1,0],[0.75,1,0],[1,1,0],[0,0.25,0],[0,0.5,0],[0,0.75,0],[1,0.25,0],[1,0.5,0],[1,0.75,0]];outlineConnect=0;fontColor=#232F3E;gradientColor=#4D72F3;gradientDirection=north;fillColor=#3334B9;strokeColor=#ffffff;dashed=0;verticalLabelPosition=bottom;verticalAlign=top;align=center;html=1;fontSize=12;fontStyle=0;aspect=fixed;shape=mxgraph.aws4.resourceIcon;resIcon=mxgraph.aws4.codecommit;" parent="cqU8UiAglcBpgTtfCBDt-32" vertex="1">
          <mxGeometry x="40" y="80" width="80" height="80" as="geometry" />
        </mxCell>
        <mxCell id="cqU8UiAglcBpgTtfCBDt-31" value="&lt;h1&gt;Git Repo Folder Structure&lt;/h1&gt;&lt;div&gt;The source code is on a AWS CodeCommit repository. It has the following folder structure. Each project is a deployment unit that can be deployed independently. Also many projects can be deployed together.&lt;/div&gt;&lt;div&gt;&lt;br&gt;&lt;/div&gt;&lt;div&gt;&lt;div style=&quot;background-color: rgb(39, 40, 34); color: rgb(248, 248, 242); font-family: &amp;quot;JetBrains Mono&amp;quot;, monospace; font-size: 9.8pt;&quot;&gt;/projects&lt;br&gt;/projects/project1/...&lt;br&gt;/projects/project2/...&lt;br&gt;/projects/project3/...&lt;br&gt;/README.rst&lt;/div&gt;&lt;/div&gt;" style="text;html=1;strokeColor=default;fillColor=none;spacing=5;spacingTop=-20;whiteSpace=wrap;overflow=hidden;rounded=0;" parent="cqU8UiAglcBpgTtfCBDt-32" vertex="1">
          <mxGeometry x="160" y="80" width="560" height="200" as="geometry" />
        </mxCell>
        <mxCell id="j-Hx3OOfOkBVIH8NAeES-1" value="&lt;h1&gt;Dev Branch&lt;/h1&gt;&lt;p&gt;Developers are primarily working on &quot;dev/${project_name}/${description}&quot; branch. Pushing changes to the branch will trigger CodeBuild run for deploying infrastructure as code, unit test, build Lambda function artifacts, and deploying Lambda functions to Sandbox environment. Build run will only work on the given ${project_name}&lt;/p&gt;&lt;p&gt;Dev branch is primarily for infrastructure as code, unit test, deployment rehearsal. It is supposed to be short living.&lt;/p&gt;" style="text;html=1;strokeColor=default;fillColor=none;spacing=5;spacingTop=-20;whiteSpace=wrap;overflow=hidden;rounded=0;" parent="1" vertex="1">
          <mxGeometry x="360" y="480" width="400" height="360" as="geometry" />
        </mxCell>
        <mxCell id="j-Hx3OOfOkBVIH8NAeES-2" value="short living" style="dashed=0;html=1;rounded=1;fillColor=#DFE1E6;strokeColor=#DFE1E6;fontSize=12;align=center;fontStyle=1;strokeWidth=2;fontColor=#42526E" parent="1" vertex="1">
          <mxGeometry x="120" y="460" width="80" height="20" as="geometry" />
        </mxCell>
        <mxCell id="j-Hx3OOfOkBVIH8NAeES-3" value="Dev Branch" style="swimlane;whiteSpace=wrap;html=1;" parent="1" vertex="1">
          <mxGeometry x="40" y="400" width="760" height="480" as="geometry" />
        </mxCell>
        <mxCell id="j-Hx3OOfOkBVIH8NAeES-4" value="long living" style="dashed=0;html=1;rounded=1;fillColor=#008364;strokeColor=#008364;fontSize=12;align=center;fontStyle=1;strokeWidth=2;fontColor=#ffffff" parent="1" vertex="1">
          <mxGeometry x="120" y="1000" width="80" height="20" as="geometry" />
        </mxCell>
        <mxCell id="j-Hx3OOfOkBVIH8NAeES-6" value="&lt;h1&gt;Main Branch&lt;/h1&gt;&lt;p&gt;Main branch should be considered as &quot;deployment ready&quot;&lt;/p&gt;" style="text;html=1;strokeColor=default;fillColor=none;spacing=5;spacingTop=-20;whiteSpace=wrap;overflow=hidden;rounded=0;" parent="1" vertex="1">
          <mxGeometry x="360" y="1040" width="400" height="240" as="geometry" />
        </mxCell>
        <mxCell id="j-Hx3OOfOkBVIH8NAeES-7" value="Main Branch" style="swimlane;whiteSpace=wrap;html=1;" parent="1" vertex="1">
          <mxGeometry x="40" y="920" width="760" height="400" as="geometry" />
        </mxCell>
        <mxCell id="j-Hx3OOfOkBVIH8NAeES-8" value="long living" style="dashed=0;html=1;rounded=1;fillColor=#008364;strokeColor=#008364;fontSize=12;align=center;fontStyle=1;strokeWidth=2;fontColor=#ffffff" parent="1" vertex="1">
          <mxGeometry x="120" y="1440" width="80" height="20" as="geometry" />
        </mxCell>
        <mxCell id="j-Hx3OOfOkBVIH8NAeES-9" value="&lt;h1&gt;Release Branch&lt;/h1&gt;&lt;p&gt;There is a long living CodePipeline for each project.&lt;/p&gt;" style="text;html=1;strokeColor=default;fillColor=none;spacing=5;spacingTop=-20;whiteSpace=wrap;overflow=hidden;rounded=0;" parent="1" vertex="1">
          <mxGeometry x="360" y="1480" width="400" height="360" as="geometry" />
        </mxCell>
        <mxCell id="j-Hx3OOfOkBVIH8NAeES-10" value="Release Branch" style="swimlane;whiteSpace=wrap;html=1;" parent="1" vertex="1">
          <mxGeometry x="40" y="1360" width="760" height="800" as="geometry" />
        </mxCell>
        <mxCell id="cqU8UiAglcBpgTtfCBDt-13" value="Code Pipeline Workflow" style="swimlane;whiteSpace=wrap;html=1;" parent="j-Hx3OOfOkBVIH8NAeES-10" vertex="1">
          <mxGeometry x="80" y="520" width="640" height="240" as="geometry" />
        </mxCell>
        <mxCell id="cqU8UiAglcBpgTtfCBDt-4" value="Check out&lt;br&gt;Source Code" style="sketch=0;points=[[0,0,0],[0.25,0,0],[0.5,0,0],[0.75,0,0],[1,0,0],[0,1,0],[0.25,1,0],[0.5,1,0],[0.75,1,0],[1,1,0],[0,0.25,0],[0,0.5,0],[0,0.75,0],[1,0.25,0],[1,0.5,0],[1,0.75,0]];outlineConnect=0;fontColor=#232F3E;gradientColor=#4D72F3;gradientDirection=north;fillColor=#3334B9;strokeColor=#ffffff;dashed=0;verticalLabelPosition=bottom;verticalAlign=top;align=center;html=1;fontSize=12;fontStyle=0;aspect=fixed;shape=mxgraph.aws4.resourceIcon;resIcon=mxgraph.aws4.codecommit;" parent="cqU8UiAglcBpgTtfCBDt-13" vertex="1">
          <mxGeometry x="40" y="80" width="80" height="80" as="geometry" />
        </mxCell>
        <mxCell id="cqU8UiAglcBpgTtfCBDt-5" value="Build Run&lt;br&gt;on Sandbox" style="sketch=0;points=[[0,0,0],[0.25,0,0],[0.5,0,0],[0.75,0,0],[1,0,0],[0,1,0],[0.25,1,0],[0.5,1,0],[0.75,1,0],[1,1,0],[0,0.25,0],[0,0.5,0],[0,0.75,0],[1,0.25,0],[1,0.5,0],[1,0.75,0]];outlineConnect=0;fontColor=#232F3E;gradientColor=#4D72F3;gradientDirection=north;fillColor=#3334B9;strokeColor=#ffffff;dashed=0;verticalLabelPosition=bottom;verticalAlign=top;align=center;html=1;fontSize=12;fontStyle=0;aspect=fixed;shape=mxgraph.aws4.resourceIcon;resIcon=mxgraph.aws4.codepipeline;" parent="cqU8UiAglcBpgTtfCBDt-13" vertex="1">
          <mxGeometry x="160" y="80" width="80" height="80" as="geometry" />
        </mxCell>
        <mxCell id="cqU8UiAglcBpgTtfCBDt-9" style="edgeStyle=orthogonalEdgeStyle;rounded=0;orthogonalLoop=1;jettySize=auto;html=1;exitX=1;exitY=0.5;exitDx=0;exitDy=0;exitPerimeter=0;entryX=0;entryY=0.5;entryDx=0;entryDy=0;entryPerimeter=0;" parent="cqU8UiAglcBpgTtfCBDt-13" source="cqU8UiAglcBpgTtfCBDt-4" target="cqU8UiAglcBpgTtfCBDt-5" edge="1">
          <mxGeometry relative="1" as="geometry" />
        </mxCell>
        <mxCell id="cqU8UiAglcBpgTtfCBDt-6" value="Build Run&lt;br&gt;on Test" style="sketch=0;points=[[0,0,0],[0.25,0,0],[0.5,0,0],[0.75,0,0],[1,0,0],[0,1,0],[0.25,1,0],[0.5,1,0],[0.75,1,0],[1,1,0],[0,0.25,0],[0,0.5,0],[0,0.75,0],[1,0.25,0],[1,0.5,0],[1,0.75,0]];outlineConnect=0;fontColor=#232F3E;gradientColor=#4D72F3;gradientDirection=north;fillColor=#3334B9;strokeColor=#ffffff;dashed=0;verticalLabelPosition=bottom;verticalAlign=top;align=center;html=1;fontSize=12;fontStyle=0;aspect=fixed;shape=mxgraph.aws4.resourceIcon;resIcon=mxgraph.aws4.codepipeline;" parent="cqU8UiAglcBpgTtfCBDt-13" vertex="1">
          <mxGeometry x="280" y="80" width="80" height="80" as="geometry" />
        </mxCell>
        <mxCell id="cqU8UiAglcBpgTtfCBDt-10" style="edgeStyle=orthogonalEdgeStyle;rounded=0;orthogonalLoop=1;jettySize=auto;html=1;exitX=1;exitY=0.5;exitDx=0;exitDy=0;exitPerimeter=0;entryX=0;entryY=0.5;entryDx=0;entryDy=0;entryPerimeter=0;" parent="cqU8UiAglcBpgTtfCBDt-13" source="cqU8UiAglcBpgTtfCBDt-5" target="cqU8UiAglcBpgTtfCBDt-6" edge="1">
          <mxGeometry relative="1" as="geometry" />
        </mxCell>
        <mxCell id="cqU8UiAglcBpgTtfCBDt-7" value="Build Run&lt;br&gt;on Staging" style="sketch=0;points=[[0,0,0],[0.25,0,0],[0.5,0,0],[0.75,0,0],[1,0,0],[0,1,0],[0.25,1,0],[0.5,1,0],[0.75,1,0],[1,1,0],[0,0.25,0],[0,0.5,0],[0,0.75,0],[1,0.25,0],[1,0.5,0],[1,0.75,0]];outlineConnect=0;fontColor=#232F3E;gradientColor=#4D72F3;gradientDirection=north;fillColor=#3334B9;strokeColor=#ffffff;dashed=0;verticalLabelPosition=bottom;verticalAlign=top;align=center;html=1;fontSize=12;fontStyle=0;aspect=fixed;shape=mxgraph.aws4.resourceIcon;resIcon=mxgraph.aws4.codepipeline;" parent="cqU8UiAglcBpgTtfCBDt-13" vertex="1">
          <mxGeometry x="400" y="80" width="80" height="80" as="geometry" />
        </mxCell>
        <mxCell id="cqU8UiAglcBpgTtfCBDt-11" style="edgeStyle=orthogonalEdgeStyle;rounded=0;orthogonalLoop=1;jettySize=auto;html=1;exitX=1;exitY=0.5;exitDx=0;exitDy=0;exitPerimeter=0;entryX=0;entryY=0.5;entryDx=0;entryDy=0;entryPerimeter=0;" parent="cqU8UiAglcBpgTtfCBDt-13" source="cqU8UiAglcBpgTtfCBDt-6" target="cqU8UiAglcBpgTtfCBDt-7" edge="1">
          <mxGeometry relative="1" as="geometry" />
        </mxCell>
        <mxCell id="cqU8UiAglcBpgTtfCBDt-8" value="Build Run&lt;br&gt;on Prod" style="sketch=0;points=[[0,0,0],[0.25,0,0],[0.5,0,0],[0.75,0,0],[1,0,0],[0,1,0],[0.25,1,0],[0.5,1,0],[0.75,1,0],[1,1,0],[0,0.25,0],[0,0.5,0],[0,0.75,0],[1,0.25,0],[1,0.5,0],[1,0.75,0]];outlineConnect=0;fontColor=#232F3E;gradientColor=#4D72F3;gradientDirection=north;fillColor=#3334B9;strokeColor=#ffffff;dashed=0;verticalLabelPosition=bottom;verticalAlign=top;align=center;html=1;fontSize=12;fontStyle=0;aspect=fixed;shape=mxgraph.aws4.resourceIcon;resIcon=mxgraph.aws4.codepipeline;" parent="cqU8UiAglcBpgTtfCBDt-13" vertex="1">
          <mxGeometry x="520" y="80" width="80" height="80" as="geometry" />
        </mxCell>
        <mxCell id="cqU8UiAglcBpgTtfCBDt-12" style="edgeStyle=orthogonalEdgeStyle;rounded=0;orthogonalLoop=1;jettySize=auto;html=1;exitX=1;exitY=0.5;exitDx=0;exitDy=0;exitPerimeter=0;entryX=0;entryY=0.5;entryDx=0;entryDy=0;entryPerimeter=0;" parent="cqU8UiAglcBpgTtfCBDt-13" source="cqU8UiAglcBpgTtfCBDt-7" target="cqU8UiAglcBpgTtfCBDt-8" edge="1">
          <mxGeometry relative="1" as="geometry" />
        </mxCell>
      </root>
    </mxGraphModel>
  </diagram>
  <diagram name="Copy of Multi-Accounts-Setup" id="2nXCl3azG5PS4V4QbJWY">
    <mxGraphModel dx="1681" dy="1200" grid="1" gridSize="10" guides="1" tooltips="1" connect="1" arrows="1" fold="1" page="1" pageScale="1" pageWidth="850" pageHeight="1100" math="0" shadow="0">
      <root>
        <mxCell id="ACQcI9eZP0zotltc9_C3-0" />
        <mxCell id="ACQcI9eZP0zotltc9_C3-1" parent="ACQcI9eZP0zotltc9_C3-0" />
        <mxCell id="ACQcI9eZP0zotltc9_C3-2" value="" style="rounded=0;whiteSpace=wrap;html=1;fillColor=none;strokeColor=#000000;" vertex="1" parent="ACQcI9eZP0zotltc9_C3-1">
          <mxGeometry x="1440" y="1240" width="520" height="200" as="geometry" />
        </mxCell>
        <mxCell id="ACQcI9eZP0zotltc9_C3-3" value="" style="group;fillColor=none;strokeColor=#000000;" vertex="1" connectable="0" parent="ACQcI9eZP0zotltc9_C3-1">
          <mxGeometry x="760" y="1240" width="600" height="440" as="geometry" />
        </mxCell>
        <mxCell id="ACQcI9eZP0zotltc9_C3-4" value="CodeCommit&lt;br&gt;Repository" style="sketch=0;points=[[0,0,0],[0.25,0,0],[0.5,0,0],[0.75,0,0],[1,0,0],[0,1,0],[0.25,1,0],[0.5,1,0],[0.75,1,0],[1,1,0],[0,0.25,0],[0,0.5,0],[0,0.75,0],[1,0.25,0],[1,0.5,0],[1,0.75,0]];outlineConnect=0;fontColor=#232F3E;gradientColor=#4D72F3;gradientDirection=north;fillColor=#3334B9;strokeColor=#ffffff;dashed=0;verticalLabelPosition=bottom;verticalAlign=top;align=center;html=1;fontSize=12;fontStyle=0;aspect=fixed;shape=mxgraph.aws4.resourceIcon;resIcon=mxgraph.aws4.codecommit;" vertex="1" parent="ACQcI9eZP0zotltc9_C3-3">
          <mxGeometry x="80" y="80" width="80" height="80" as="geometry" />
        </mxCell>
        <mxCell id="ACQcI9eZP0zotltc9_C3-5" value="CodePipeline" style="sketch=0;points=[[0,0,0],[0.25,0,0],[0.5,0,0],[0.75,0,0],[1,0,0],[0,1,0],[0.25,1,0],[0.5,1,0],[0.75,1,0],[1,1,0],[0,0.25,0],[0,0.5,0],[0,0.75,0],[1,0.25,0],[1,0.5,0],[1,0.75,0]];outlineConnect=0;fontColor=#232F3E;gradientColor=#4D72F3;gradientDirection=north;fillColor=#3334B9;strokeColor=#ffffff;dashed=0;verticalLabelPosition=bottom;verticalAlign=top;align=center;html=1;fontSize=12;fontStyle=0;aspect=fixed;shape=mxgraph.aws4.resourceIcon;resIcon=mxgraph.aws4.codebuild;" vertex="1" parent="ACQcI9eZP0zotltc9_C3-3">
          <mxGeometry x="320" y="80" width="80" height="80" as="geometry" />
        </mxCell>
        <mxCell id="ACQcI9eZP0zotltc9_C3-6" value="CodeBuild&lt;br&gt;Project" style="sketch=0;points=[[0,0,0],[0.25,0,0],[0.5,0,0],[0.75,0,0],[1,0,0],[0,1,0],[0.25,1,0],[0.5,1,0],[0.75,1,0],[1,1,0],[0,0.25,0],[0,0.5,0],[0,0.75,0],[1,0.25,0],[1,0.5,0],[1,0.75,0]];outlineConnect=0;fontColor=#232F3E;gradientColor=#4D72F3;gradientDirection=north;fillColor=#3334B9;strokeColor=#ffffff;dashed=0;verticalLabelPosition=bottom;verticalAlign=top;align=center;html=1;fontSize=12;fontStyle=0;aspect=fixed;shape=mxgraph.aws4.resourceIcon;resIcon=mxgraph.aws4.codepipeline;" vertex="1" parent="ACQcI9eZP0zotltc9_C3-3">
          <mxGeometry x="200" y="80" width="80" height="80" as="geometry" />
        </mxCell>
        <mxCell id="ACQcI9eZP0zotltc9_C3-7" value="" style="shape=image;verticalLabelPosition=bottom;labelBackgroundColor=default;verticalAlign=top;imageAspect=0;image=data:image/svg+xml,PHN2ZyB4bWxucz0iaHR0cDovL3d3dy53My5vcmcvMjAwMC9zdmciIGhlaWdodD0iNDhweCIgd2lkdGg9IjQ4cHgiIHZpZXdCb3g9IjAgMCA0OCA0OCI+PHBhdGggZD0iTTEzLjUyNywyMS41MjljMCwwLjU5NywwLjA2NCwxLjA4LDAuMTc2LDEuNDM1YzAuMTI4LDAuMzU1LDAuMjg3LDAuNzQyLDAuNTExLDEuMTYxIGMwLjA4LDAuMTI5LDAuMTEyLDAuMjU4LDAuMTEyLDAuMzcxYzAsMC4xNjEtMC4wOTYsMC4zMjItMC4zMDMsMC40ODRsLTEuMDA2LDAuNjc3Yy0wLjE0NCwwLjA5Ny0wLjI4NywwLjE0NS0wLjQxNSwwLjE0NSBjLTAuMTYsMC0wLjMxOS0wLjA4MS0wLjQ3OS0wLjIyNmMtMC4yMjQtMC4yNDItMC40MTUtMC41LTAuNTc1LTAuNzU4Yy0wLjE2LTAuMjc0LTAuMzE5LTAuNTgtMC40OTUtMC45NTEgYy0xLjI0NSwxLjQ4My0yLjgxLDIuMjI1LTQuNjk0LDIuMjI1Yy0xLjM0MSwwLTIuNDExLTAuMzg3LTMuMTkzLTEuMTYxcy0xLjE4MS0xLjgwNi0xLjE4MS0zLjA5NmMwLTEuMzcsMC40NzktMi40ODMsMS40NTMtMy4zMjEgczIuMjY3LTEuMjU4LDMuOTExLTEuMjU4YzAuNTQzLDAsMS4xMDIsMC4wNDgsMS42OTIsMC4xMjlzMS4xOTcsMC4yMSwxLjgzNiwwLjM1NXYtMS4xNzdjMC0xLjIyNS0wLjI1NS0yLjA4LTAuNzUtMi41OCBjLTAuNTExLTAuNS0xLjM3My0wLjc0Mi0yLjYwMi0wLjc0MmMtMC41NTksMC0xLjEzMywwLjA2NC0xLjcyNCwwLjIxYy0wLjU5MSwwLjE0NS0xLjE2NSwwLjMyMi0xLjcyNCwwLjU0OCBjLTAuMjU1LDAuMTEzLTAuNDQ3LDAuMTc3LTAuNTU5LDAuMjFjLTAuMTEyLDAuMDMyLTAuMTkyLDAuMDQ4LTAuMjU1LDAuMDQ4Yy0wLjIyNCwwLTAuMzM1LTAuMTYxLTAuMzM1LTAuNXYtMC43OSBjMC0wLjI1OCwwLjAzMi0wLjQ1MSwwLjExMi0wLjU2NGMwLjA4LTAuMTEzLDAuMjI0LTAuMjI2LDAuNDQ3LTAuMzM5YzAuNTU5LTAuMjksMS4yMjktMC41MzIsMi4wMTItMC43MjYgYzAuNzgyLTAuMjEsMS42MTItMC4zMDYsMi40OS0wLjMwNmMxLjksMCwzLjI4OSwwLjQzNSw0LjE4MywxLjMwNmMwLjg3OCwwLjg3MSwxLjMyNSwyLjE5MywxLjMyNSwzLjk2NnY1LjIyNEgxMy41Mjd6IE03LjA0NSwyMy45NzljMC41MjcsMCwxLjA3LTAuMDk3LDEuNjQ0LTAuMjljMC41NzUtMC4xOTMsMS4wODYtMC41NDgsMS41MTctMS4wMzJjMC4yNTUtMC4zMDYsMC40NDctMC42NDUsMC41NDMtMS4wMzIgYzAuMDk2LTAuMzg3LDAuMTYtMC44NTUsMC4xNi0xLjQwM3YtMC42NzdjLTAuNDYzLTAuMTEzLTAuOTU4LTAuMjEtMS40NjktMC4yNzRjLTAuNTExLTAuMDY0LTEuMDA2LTAuMDk3LTEuNTAxLTAuMDk3IGMtMS4wNywwLTEuODUyLDAuMjEtMi4zNzksMC42NDVzLTAuNzgyLDEuMDQ4LTAuNzgyLDEuODU0YzAsMC43NTgsMC4xOTIsMS4zMjIsMC41OTEsMS43MDkgQzUuNzUyLDIzLjc4Niw2LjMxMSwyMy45NzksNy4wNDUsMjMuOTc5eiBNMTkuODY1LDI1LjcyMWMtMC4yODcsMC0wLjQ3OS0wLjA0OC0wLjYwNy0wLjE2MWMtMC4xMjgtMC4wOTctMC4yMzktMC4zMjItMC4zMzUtMC42MjkgbC0zLjc1Mi0xMi40NjNjLTAuMDk2LTAuMzIyLTAuMTQ0LTAuNTMyLTAuMTQ0LTAuNjQ1YzAtMC4yNTgsMC4xMjgtMC40MDMsMC4zODMtMC40MDNoMS41NjVjMC4zMDMsMCwwLjUxMSwwLjA0OCwwLjYyMywwLjE2MSBjMC4xMjgsMC4wOTcsMC4yMjMsMC4zMjIsMC4zMTksMC42MjlsMi42ODIsMTAuNjc0bDIuNDktMTAuNjc0YzAuMDgtMC4zMjIsMC4xNzYtMC41MzIsMC4zMDMtMC42MjkgYzAuMTI4LTAuMDk3LDAuMzUxLTAuMTYxLDAuNjM5LTAuMTYxaDEuMjc3YzAuMzAzLDAsMC41MTEsMC4wNDgsMC42MzksMC4xNjFjMC4xMjgsMC4wOTcsMC4yMzksMC4zMjIsMC4zMDMsMC42MjlsMi41MjIsMTAuODAzIGwyLjc2Mi0xMC44MDNjMC4wOTYtMC4zMjIsMC4yMDgtMC41MzIsMC4zMTktMC42MjljMC4xMjgtMC4wOTcsMC4zMzUtMC4xNjEsMC42MjMtMC4xNjFoMS40ODVjMC4yNTUsMCwwLjM5OSwwLjEyOSwwLjM5OSwwLjQwMyBjMCwwLjA4MS0wLjAxNiwwLjE2MS0wLjAzMiwwLjI1OHMtMC4wNDgsMC4yMjYtMC4xMTIsMC40MDNsLTMuODQ3LDEyLjQ2M2MtMC4wOTYsMC4zMjItMC4yMDgsMC41MzItMC4zMzUsMC42Mjkgcy0wLjMzNSwwLjE2MS0wLjYwNywwLjE2MWgtMS4zNzNjLTAuMzAzLDAtMC41MTEtMC4wNDgtMC42MzktMC4xNjFjLTAuMTI4LTAuMTEzLTAuMjM5LTAuMzIyLTAuMzAzLTAuNjQ1bC0yLjQ3NC0xMC40IEwyMi4xOCwyNC45MTVjLTAuMDgsMC4zMjItMC4xNzYsMC41MzItMC4zMDMsMC42NDVjLTAuMTI4LDAuMTEzLTAuMzUxLDAuMTYxLTAuNjM5LDAuMTYxSDE5Ljg2NXogTTQwLjM3OSwyNi4xNTYgYy0wLjgzLDAtMS42Ni0wLjA5Ny0yLjQ1OC0wLjI5Yy0wLjc5OC0wLjE5My0xLjQyMS0wLjQwMy0xLjgzNi0wLjY0NWMtMC4yNTUtMC4xNDUtMC40MzEtMC4zMDYtMC40OTUtMC40NTEgYy0wLjA2NC0wLjE0NS0wLjA5Ni0wLjMwNi0wLjA5Ni0wLjQ1MXYtMC44MjJjMC0wLjMzOSwwLjEyOC0wLjUsMC4zNjctMC41YzAuMDk2LDAsMC4xOTIsMC4wMTYsMC4yODcsMC4wNDggYzAuMDk2LDAuMDMyLDAuMjM5LDAuMDk3LDAuMzk5LDAuMTYxYzAuNTQzLDAuMjQyLDEuMTMzLDAuNDM1LDEuNzU2LDAuNTY0YzAuNjM5LDAuMTI5LDEuMjYxLDAuMTkzLDEuOSwwLjE5MyBjMS4wMDYsMCwxLjc4OC0wLjE3NywyLjMzMS0wLjUzMmMwLjU0My0wLjM1NSwwLjgzLTAuODcxLDAuODMtMS41MzJjMC0wLjQ1MS0wLjE0NC0wLjgyMi0wLjQzMS0xLjEyOSBjLTAuMjg3LTAuMzA2LTAuODMtMC41OC0xLjYxMi0wLjgzOGwtMi4zMTUtMC43MjZjLTEuMTY1LTAuMzcxLTIuMDI3LTAuOTE5LTIuNTU0LTEuNjQ1Yy0wLjUyNy0wLjcwOS0wLjc5OC0xLjQ5OS0wLjc5OC0yLjMzOCBjMC0wLjY3NywwLjE0NC0xLjI3NCwwLjQzMS0xLjc5czAuNjcxLTAuOTY3LDEuMTQ5LTEuMzIyYzAuNDc5LTAuMzcxLDEuMDIyLTAuNjQ1LDEuNjYtMC44MzhDMzkuNTMzLDExLjA4MSw0MC4yMDMsMTEsNDAuOTA2LDExIGMwLjM1MSwwLDAuNzE4LDAuMDE2LDEuMDcsMC4wNjRjMC4zNjcsMC4wNDgsMC43MDIsMC4xMTMsMS4wMzgsMC4xNzdjMC4zMTksMC4wODEsMC42MjMsMC4xNjEsMC45MSwwLjI1OHMwLjUxMSwwLjE5MywwLjY3MSwwLjI5IGMwLjIyNCwwLjEyOSwwLjM4MywwLjI1OCwwLjQ3OSwwLjQwM2MwLjA5NiwwLjEyOSwwLjE0NCwwLjMwNiwwLjE0NCwwLjUzMnYwLjc1OGMwLDAuMzM5LTAuMTI4LDAuNTE2LTAuMzY3LDAuNTE2IGMtMC4xMjgsMC0wLjMzNS0wLjA2NC0wLjYwNy0wLjE5M2MtMC45MS0wLjQxOS0xLjkzMi0wLjYyOS0zLjA2NS0wLjYyOWMtMC45MSwwLTEuNjI4LDAuMTQ1LTIuMTIzLDAuNDUxIGMtMC40OTUsMC4zMDYtMC43NSwwLjc3NC0wLjc1LDEuNDM1YzAsMC40NTEsMC4xNiwwLjgzOCwwLjQ3OSwxLjE0NWMwLjMxOSwwLjMwNiwwLjkxLDAuNjEzLDEuNzU2LDAuODg3bDIuMjY3LDAuNzI2IGMxLjE0OSwwLjM3MSwxLjk4LDAuODg3LDIuNDc0LDEuNTQ4czAuNzM0LDEuNDE5LDAuNzM0LDIuMjU3YzAsMC42OTMtMC4xNDQsMS4zMjItMC40MTUsMS44NyBjLTAuMjg3LDAuNTQ4LTAuNjcxLDEuMDMyLTEuMTY1LDEuNDE5Yy0wLjQ5NSwwLjQwMy0xLjA4NiwwLjY5My0xLjc3MiwwLjkwM0M0MS45NDMsMjYuMDQzLDQxLjE5MywyNi4xNTYsNDAuMzc5LDI2LjE1NnoiIGZpbGw9IiMyNTJmM2UiLz48cGF0aCBkPSJNNDMuMzk2LDMzLjk5MmMtNS4yNTIsMy45MTgtMTIuODgzLDUuOTk4LTE5LjQ0NSw1Ljk5OGMtOS4xOTUsMC0xNy40ODEtMy40MzQtMjMuNzM5LTkuMTQyIGMtMC40OTUtMC40NTEtMC4wNDgtMS4wNjQsMC41NDMtMC43MDljNi43NjksMy45NjYsMTUuMTE4LDYuMzY5LDIzLjc1NSw2LjM2OWM1LjgyNywwLDEyLjIyOS0xLjIyNSwxOC4xMTktMy43NDEgQzQzLjUwOCwzMi4zNjQsNDQuMjU4LDMzLjM0Nyw0My4zOTYsMzMuOTkyeiBNNDUuNTgzLDMxLjQ3N2MtMC42NzEtMC44NzEtNC40MzgtMC40MTktNi4xNDYtMC4yMSBjLTAuNTExLDAuMDY0LTAuNTkxLTAuMzg3LTAuMTI4LTAuNzI2YzMuMDAxLTIuMTI4LDcuOTM0LTEuNTE2LDguNTA5LTAuODA2YzAuNTc1LDAuNzI2LTAuMTYsNS43MDgtMi45NjksOC4wOTQgYy0wLjQzMSwwLjM3MS0wLjg0NiwwLjE3Ny0wLjY1NS0wLjMwNkM0NC44MzMsMzUuOTI3LDQ2LjI1NCwzMi4zMzEsNDUuNTgzLDMxLjQ3N3oiIGZpbGw9IiNmOTAiLz48L3N2Zz4=;aspect=fixed;imageBorder=none;" vertex="1" parent="ACQcI9eZP0zotltc9_C3-3">
          <mxGeometry width="40" height="40" as="geometry" />
        </mxCell>
        <mxCell id="ACQcI9eZP0zotltc9_C3-8" value="Code Artifacts&lt;br&gt;Bucket" style="sketch=0;points=[[0,0,0],[0.25,0,0],[0.5,0,0],[0.75,0,0],[1,0,0],[0,1,0],[0.25,1,0],[0.5,1,0],[0.75,1,0],[1,1,0],[0,0.25,0],[0,0.5,0],[0,0.75,0],[1,0.25,0],[1,0.5,0],[1,0.75,0]];outlineConnect=0;fontColor=#232F3E;gradientColor=#60A337;gradientDirection=north;fillColor=#277116;strokeColor=#ffffff;dashed=0;verticalLabelPosition=bottom;verticalAlign=top;align=center;html=1;fontSize=12;fontStyle=0;aspect=fixed;shape=mxgraph.aws4.resourceIcon;resIcon=mxgraph.aws4.s3;" vertex="1" parent="ACQcI9eZP0zotltc9_C3-3">
          <mxGeometry x="80" y="240" width="80" height="80" as="geometry" />
        </mxCell>
        <mxCell id="ACQcI9eZP0zotltc9_C3-9" value="Lambda Layer" style="sketch=0;outlineConnect=0;fontColor=#232F3E;gradientColor=none;fillColor=#D45B07;strokeColor=none;dashed=0;verticalLabelPosition=bottom;verticalAlign=top;align=center;html=1;fontSize=12;fontStyle=0;aspect=fixed;pointerEvents=1;shape=mxgraph.aws4.lambda_function;" vertex="1" parent="ACQcI9eZP0zotltc9_C3-3">
          <mxGeometry x="200" y="240" width="80" height="80" as="geometry" />
        </mxCell>
        <mxCell id="ACQcI9eZP0zotltc9_C3-10" value="Master&lt;br&gt;Parameter Store" style="sketch=0;outlineConnect=0;fontColor=#232F3E;gradientColor=none;fillColor=#B0084D;strokeColor=none;dashed=0;verticalLabelPosition=bottom;verticalAlign=top;align=center;html=1;fontSize=12;fontStyle=0;pointerEvents=1;shape=mxgraph.aws4.parameter_store;" vertex="1" parent="ACQcI9eZP0zotltc9_C3-3">
          <mxGeometry x="440" y="240" width="80" height="88" as="geometry" />
        </mxCell>
        <mxCell id="ACQcI9eZP0zotltc9_C3-11" value="Container&lt;br&gt;Registry" style="sketch=0;points=[[0,0,0],[0.25,0,0],[0.5,0,0],[0.75,0,0],[1,0,0],[0,1,0],[0.25,1,0],[0.5,1,0],[0.75,1,0],[1,1,0],[0,0.25,0],[0,0.5,0],[0,0.75,0],[1,0.25,0],[1,0.5,0],[1,0.75,0]];outlineConnect=0;fontColor=#232F3E;gradientColor=#F78E04;gradientDirection=north;fillColor=#D05C17;strokeColor=#ffffff;dashed=0;verticalLabelPosition=bottom;verticalAlign=top;align=center;html=1;fontSize=12;fontStyle=0;aspect=fixed;shape=mxgraph.aws4.resourceIcon;resIcon=mxgraph.aws4.ecr;" vertex="1" parent="ACQcI9eZP0zotltc9_C3-3">
          <mxGeometry x="320" y="240" width="80" height="80" as="geometry" />
        </mxCell>
        <mxCell id="ACQcI9eZP0zotltc9_C3-12" value="DevOps Account" style="text;html=1;strokeColor=none;fillColor=none;align=center;verticalAlign=middle;whiteSpace=wrap;rounded=0;" vertex="1" parent="ACQcI9eZP0zotltc9_C3-3">
          <mxGeometry x="40" width="120" height="44" as="geometry" />
        </mxCell>
        <mxCell id="ACQcI9eZP0zotltc9_C3-13" value="Deployer Role" style="sketch=0;outlineConnect=0;fontColor=#232F3E;gradientColor=none;fillColor=#277116;strokeColor=none;dashed=0;verticalLabelPosition=bottom;verticalAlign=top;align=center;html=1;fontSize=12;fontStyle=0;pointerEvents=1;shape=mxgraph.aws4.role;" vertex="1" parent="ACQcI9eZP0zotltc9_C3-3">
          <mxGeometry x="440" y="80" width="80" height="40" as="geometry" />
        </mxCell>
        <mxCell id="ACQcI9eZP0zotltc9_C3-14" value="Lambda&#xa;Source" style="shape=image;verticalLabelPosition=bottom;labelBackgroundColor=default;verticalAlign=top;aspect=fixed;imageAspect=0;image=data:image/svg+xml,PHN2ZyB4bWxucz0iaHR0cDovL3d3dy53My5vcmcvMjAwMC9zdmciIGhlaWdodD0iNDhweCIgd2lkdGg9IjQ4cHgiIHZpZXdCb3g9IjAgMCA0OCA0OCI+PHBhdGggZD0iTTE3IDI0TDcgMTcuNDY3YzAgMCAxLTEuODY1IDEtMy43MzJTNyAxMCA3IDEwbDEwIDYuNTMzVjI0ek0xNyA0MEw3IDMyLjUzM2MwIDAgMS0uOTM0IDEtMi44UzcgMjYgNyAyNmwxMCA2LjUzM1Y0MHpNMTcgMzJMNyAyNC41MzNjMCAwIDEtLjkzNCAxLTIuOFM3IDE4IDcgMThsMTAgNi41MzNWMzJ6IiBmaWxsPSIjQ0ZEOERDIi8+PHBhdGggZD0iTTE3LjYyNCwzNGMtMC4yMTksMC0wLjQ0LTAuMDcxLTAuNjI0LTAuMjE5bC0xMC42MjUtOGMtMC40MzItMC4zNDYtMC41MDEtMC45NzUtMC4xNTYtMS40MDZjMC4zNDQtMC40MzEsMC45NzUtMC41MDEsMS40MDUtMC4xNTZsMTAuNjI1LDhjMC40MzIsMC4zNDYsMC41MDEsMC45NzUsMC4xNTYsMS40MDZDMTguMjA4LDMzLjg3MSwxNy45MTcsMzQsMTcuNjI0LDM0eiIgZmlsbD0iIzNGNTFCNSIvPjxwYXRoIGQ9Ik00MiwyNUgxNmMwLDAsMSwxLjc0MiwxLDQuMjQ2UzE2LDMzLDE2LDMzaDI2YzAsMCwxLTEsMS00UzQyLDI1LDQyLDI1eiIgZmlsbD0iIzNGNTFCNSIvPjxwYXRoIGQ9Ik0xNy42MjQsMjZjLTAuMjE5LDAtMC40NC0wLjA3MS0wLjYyNC0wLjIxOWwtMTAuNjI1LThjLTAuNDMyLTAuMzQ2LTAuNTAxLTAuOTc1LTAuMTU2LTEuNDA2YzAuMzQ0LTAuNDMxLDAuOTc1LTAuNTAyLDEuNDA1LTAuMTU2bDEwLjYyNSw4YzAuNDMyLDAuMzQ2LDAuNTAxLDAuOTc1LDAuMTU2LDEuNDA2QzE4LjIwOCwyNS44NzEsMTcuOTE3LDI2LDE3LjYyNCwyNnoiIGZpbGw9IiM5QzI3QjAiLz48cGF0aCBkPSJNNDIsMTdIMTZjMCwwLDEsMS43NDIsMSw0LjI0NlMxNiwyNSwxNiwyNWgyNmMwLDAsMS0xLDEtNFM0MiwxNyw0MiwxN3oiIGZpbGw9IiM5QzI3QjAiLz48cGF0aCBkPSJNMTguNjA5LDQxYzAtMC4yOTMtMC4xMTMtMC41ODQtMC4zNi0wLjc4MWwtMTAuNjI1LThjLTAuNDMtMC4zNDUtMS4wNjEtMC4yNzQtMS40MDUsMC4xNTZjLTAuMzQ1LDAuNDMyLTAuMjc1LDEuMDYxLDAuMTU2LDEuNDA2TDE1Ljk2Miw0MUgxOC42MDl6IiBmaWxsPSIjOEJDMzRBIi8+PHBhdGggZD0iTTQyLDMzSDE2YzAsMCwxLDEuNzQyLDEsNC4yNDZTMTYsNDEsMTYsNDFoMjZjMCwwLDEtMSwxLTRTNDIsMzMsNDIsMzN6IiBmaWxsPSIjOEJDMzRBIi8+PHBhdGggZD0iTTQyLDMzSDE2YzAsMCwwLjQ0MSwwLjc1NiwwLjczMywyaDI2LjAzNUM0Mi40NzMsMzMuNTU5LDQyLDMzLDQyLDMzeiIgZmlsbD0iIzY4OUYzOCIvPjxwYXRoIGQ9Ik00MiwyNUgxNmMwLDAsMC40NDEsMC43NTYsMC43MzMsMmgyNi4wMzVDNDIuNDczLDI1LjU1OSw0MiwyNSw0MiwyNXoiIGZpbGw9IiMzMDNGOUYiLz48cGF0aCBkPSJNMjEuMDM0IDMyYy4xMS0uNDUuMjk5LTEuMzc5LjI5OS0yLjVzLS4xODktMi4wNS0uMjk5LTIuNUgxOWMuMDAzLjAwOS4zMzMgMS4yNjcuMzMzIDIuNVMxOS4wMDIgMzEuOTkzIDE5IDMySDIxLjAzNHpNMjEuMDM0IDI0Yy4xMS0uNDUuMjk5LTEuMzc5LjI5OS0yLjVzLS4xODktMi4wNS0uMjk5LTIuNUgxOWMuMDAzLjAwOS4zMzMgMS4yNjcuMzMzIDIuNVMxOS4wMDIgMjMuOTkzIDE5IDI0SDIxLjAzNHpNMjEuMDM0IDQwYy4xMS0uNDUuMjk5LTEuMzc5LjI5OS0yLjVzLS4xODktMi4wNS0uMjk5LTIuNUgxOWMuMDAzLjAwOS4zMzMgMS4yNjcuMzMzIDIuNVMxOS4wMDIgMzkuOTkzIDE5IDQwSDIxLjAzNHoiIGZpbGw9IiNGREQ4MzUiLz48cGF0aCBkPSJNNDIuNzY4LDE5QzQyLjQ3MywxNy41NTksNDIsMTcsNDIsMTdMMzAuODQ0LDguNTkxQzMwLjg0NCw4LjU5MSwzMC4wNjMsOCwyOSw4QzI3Ljc3MSw4LDcsOCw3LDhsMC4wMTgsMC4wMThDNi43MDMsOC4wMTIsNi4zOSw4LjEzNyw2LjE5MSw4LjQxMmMtMC4zMjUsMC40NDYtMC4yMjYsMS4wNzIsMC4yMiwxLjM5Nmw5LjczNyw3LjQ3YzAuMTYxLDAuMzI1LDAuNDE4LDAuOTIsMC42MDcsMS43MjJINDIuNzY4eiIgZmlsbD0iIzdCMUZBMiIvPjxwYXRoIGQ9Ik0zMiwxNkwyMSw4aC01bDExLDhjMS43NSwxLjI1LDIsMS42MjUsMiwzczAsMTksMCwxOXMwLDMtMiwzYzEuMDU2LDAsMy42NzgsMCw1LDBjMiwwLDItMywyLTNzMC0xOCwwLTE5QzM0LDE3LDMyLjQzOCwxNi40MzgsMzIsMTZ6IiBmaWxsPSIjQUY3MDAwIi8+PGc+PHBhdGggZD0iTTM0LDI3djRoLTV2LTRIMzQgTTM0LjI1LDI2aC01LjVDMjguMzM2LDI2LDI4LDI2LjMzNiwyOCwyNi43NXY0LjVjMCwwLjQxNCwwLjMzNiwwLjc1LDAuNzUsMC43NWg1LjVjMC40MTQsMCwwLjc1LTAuMzM2LDAuNzUtMC43NXYtNC41QzM1LDI2LjMzNiwzNC42NjQsMjYsMzQuMjUsMjZMMzQuMjUsMjZ6IiBmaWxsPSIjRkZDMTA3Ii8+PC9nPjxwYXRoIGQ9Ik0zMS41IDI4LjVBMC41IDAuNSAwIDEgMCAzMS41IDI5LjVBMC41IDAuNSAwIDEgMCAzMS41IDI4LjVaIiBmaWxsPSIjNUIzQjA3Ii8+PHBhdGggZD0iTTMxLjUsMjljLTAuMjc2LDAtMC41LTAuMjI0LTAuNS0wLjV2LTNjMC0wLjI3NiwwLjIyNC0wLjUsMC41LTAuNXMwLjUsMC4yMjQsMC41LDAuNXYzQzMyLDI4Ljc3NiwzMS43NzYsMjksMzEuNSwyOXoiIGZpbGw9IiNGRkVCM0IiLz48L3N2Zz4=;" vertex="1" parent="ACQcI9eZP0zotltc9_C3-3">
          <mxGeometry x="60" y="360" width="40" height="40" as="geometry" />
        </mxCell>
        <mxCell id="ACQcI9eZP0zotltc9_C3-15" value="Lambda&#xa;Layer" style="shape=image;verticalLabelPosition=bottom;labelBackgroundColor=default;verticalAlign=top;aspect=fixed;imageAspect=0;image=data:image/svg+xml,PHN2ZyB4bWxucz0iaHR0cDovL3d3dy53My5vcmcvMjAwMC9zdmciIGhlaWdodD0iNDhweCIgd2lkdGg9IjQ4cHgiIHZpZXdCb3g9IjAgMCA0OCA0OCI+PHBhdGggZD0iTTE3IDI0TDcgMTcuNDY3YzAgMCAxLTEuODY1IDEtMy43MzJTNyAxMCA3IDEwbDEwIDYuNTMzVjI0ek0xNyA0MEw3IDMyLjUzM2MwIDAgMS0uOTM0IDEtMi44UzcgMjYgNyAyNmwxMCA2LjUzM1Y0MHpNMTcgMzJMNyAyNC41MzNjMCAwIDEtLjkzNCAxLTIuOFM3IDE4IDcgMThsMTAgNi41MzNWMzJ6IiBmaWxsPSIjQ0ZEOERDIi8+PHBhdGggZD0iTTE3LjYyNCwzNGMtMC4yMTksMC0wLjQ0LTAuMDcxLTAuNjI0LTAuMjE5bC0xMC42MjUtOGMtMC40MzItMC4zNDYtMC41MDEtMC45NzUtMC4xNTYtMS40MDZjMC4zNDQtMC40MzEsMC45NzUtMC41MDEsMS40MDUtMC4xNTZsMTAuNjI1LDhjMC40MzIsMC4zNDYsMC41MDEsMC45NzUsMC4xNTYsMS40MDZDMTguMjA4LDMzLjg3MSwxNy45MTcsMzQsMTcuNjI0LDM0eiIgZmlsbD0iIzNGNTFCNSIvPjxwYXRoIGQ9Ik00MiwyNUgxNmMwLDAsMSwxLjc0MiwxLDQuMjQ2UzE2LDMzLDE2LDMzaDI2YzAsMCwxLTEsMS00UzQyLDI1LDQyLDI1eiIgZmlsbD0iIzNGNTFCNSIvPjxwYXRoIGQ9Ik0xNy42MjQsMjZjLTAuMjE5LDAtMC40NC0wLjA3MS0wLjYyNC0wLjIxOWwtMTAuNjI1LThjLTAuNDMyLTAuMzQ2LTAuNTAxLTAuOTc1LTAuMTU2LTEuNDA2YzAuMzQ0LTAuNDMxLDAuOTc1LTAuNTAyLDEuNDA1LTAuMTU2bDEwLjYyNSw4YzAuNDMyLDAuMzQ2LDAuNTAxLDAuOTc1LDAuMTU2LDEuNDA2QzE4LjIwOCwyNS44NzEsMTcuOTE3LDI2LDE3LjYyNCwyNnoiIGZpbGw9IiM5QzI3QjAiLz48cGF0aCBkPSJNNDIsMTdIMTZjMCwwLDEsMS43NDIsMSw0LjI0NlMxNiwyNSwxNiwyNWgyNmMwLDAsMS0xLDEtNFM0MiwxNyw0MiwxN3oiIGZpbGw9IiM5QzI3QjAiLz48cGF0aCBkPSJNMTguNjA5LDQxYzAtMC4yOTMtMC4xMTMtMC41ODQtMC4zNi0wLjc4MWwtMTAuNjI1LThjLTAuNDMtMC4zNDUtMS4wNjEtMC4yNzQtMS40MDUsMC4xNTZjLTAuMzQ1LDAuNDMyLTAuMjc1LDEuMDYxLDAuMTU2LDEuNDA2TDE1Ljk2Miw0MUgxOC42MDl6IiBmaWxsPSIjOEJDMzRBIi8+PHBhdGggZD0iTTQyLDMzSDE2YzAsMCwxLDEuNzQyLDEsNC4yNDZTMTYsNDEsMTYsNDFoMjZjMCwwLDEtMSwxLTRTNDIsMzMsNDIsMzN6IiBmaWxsPSIjOEJDMzRBIi8+PHBhdGggZD0iTTQyLDMzSDE2YzAsMCwwLjQ0MSwwLjc1NiwwLjczMywyaDI2LjAzNUM0Mi40NzMsMzMuNTU5LDQyLDMzLDQyLDMzeiIgZmlsbD0iIzY4OUYzOCIvPjxwYXRoIGQ9Ik00MiwyNUgxNmMwLDAsMC40NDEsMC43NTYsMC43MzMsMmgyNi4wMzVDNDIuNDczLDI1LjU1OSw0MiwyNSw0MiwyNXoiIGZpbGw9IiMzMDNGOUYiLz48cGF0aCBkPSJNMjEuMDM0IDMyYy4xMS0uNDUuMjk5LTEuMzc5LjI5OS0yLjVzLS4xODktMi4wNS0uMjk5LTIuNUgxOWMuMDAzLjAwOS4zMzMgMS4yNjcuMzMzIDIuNVMxOS4wMDIgMzEuOTkzIDE5IDMySDIxLjAzNHpNMjEuMDM0IDI0Yy4xMS0uNDUuMjk5LTEuMzc5LjI5OS0yLjVzLS4xODktMi4wNS0uMjk5LTIuNUgxOWMuMDAzLjAwOS4zMzMgMS4yNjcuMzMzIDIuNVMxOS4wMDIgMjMuOTkzIDE5IDI0SDIxLjAzNHpNMjEuMDM0IDQwYy4xMS0uNDUuMjk5LTEuMzc5LjI5OS0yLjVzLS4xODktMi4wNS0uMjk5LTIuNUgxOWMuMDAzLjAwOS4zMzMgMS4yNjcuMzMzIDIuNVMxOS4wMDIgMzkuOTkzIDE5IDQwSDIxLjAzNHoiIGZpbGw9IiNGREQ4MzUiLz48cGF0aCBkPSJNNDIuNzY4LDE5QzQyLjQ3MywxNy41NTksNDIsMTcsNDIsMTdMMzAuODQ0LDguNTkxQzMwLjg0NCw4LjU5MSwzMC4wNjMsOCwyOSw4QzI3Ljc3MSw4LDcsOCw3LDhsMC4wMTgsMC4wMThDNi43MDMsOC4wMTIsNi4zOSw4LjEzNyw2LjE5MSw4LjQxMmMtMC4zMjUsMC40NDYtMC4yMjYsMS4wNzIsMC4yMiwxLjM5Nmw5LjczNyw3LjQ3YzAuMTYxLDAuMzI1LDAuNDE4LDAuOTIsMC42MDcsMS43MjJINDIuNzY4eiIgZmlsbD0iIzdCMUZBMiIvPjxwYXRoIGQ9Ik0zMiwxNkwyMSw4aC01bDExLDhjMS43NSwxLjI1LDIsMS42MjUsMiwzczAsMTksMCwxOXMwLDMtMiwzYzEuMDU2LDAsMy42NzgsMCw1LDBjMiwwLDItMywyLTNzMC0xOCwwLTE5QzM0LDE3LDMyLjQzOCwxNi40MzgsMzIsMTZ6IiBmaWxsPSIjQUY3MDAwIi8+PGc+PHBhdGggZD0iTTM0LDI3djRoLTV2LTRIMzQgTTM0LjI1LDI2aC01LjVDMjguMzM2LDI2LDI4LDI2LjMzNiwyOCwyNi43NXY0LjVjMCwwLjQxNCwwLjMzNiwwLjc1LDAuNzUsMC43NWg1LjVjMC40MTQsMCwwLjc1LTAuMzM2LDAuNzUtMC43NXYtNC41QzM1LDI2LjMzNiwzNC42NjQsMjYsMzQuMjUsMjZMMzQuMjUsMjZ6IiBmaWxsPSIjRkZDMTA3Ii8+PC9nPjxwYXRoIGQ9Ik0zMS41IDI4LjVBMC41IDAuNSAwIDEgMCAzMS41IDI5LjVBMC41IDAuNSAwIDEgMCAzMS41IDI4LjVaIiBmaWxsPSIjNUIzQjA3Ii8+PHBhdGggZD0iTTMxLjUsMjljLTAuMjc2LDAtMC41LTAuMjI0LTAuNS0wLjV2LTNjMC0wLjI3NiwwLjIyNC0wLjUsMC41LTAuNXMwLjUsMC4yMjQsMC41LDAuNXYzQzMyLDI4Ljc3NiwzMS43NzYsMjksMzEuNSwyOXoiIGZpbGw9IiNGRkVCM0IiLz48L3N2Zz4=;" vertex="1" parent="ACQcI9eZP0zotltc9_C3-3">
          <mxGeometry x="140" y="360" width="40" height="40" as="geometry" />
        </mxCell>
        <mxCell id="ACQcI9eZP0zotltc9_C3-16" value="" style="shape=image;verticalLabelPosition=bottom;labelBackgroundColor=default;verticalAlign=top;imageAspect=0;image=data:image/svg+xml,PHN2ZyB4bWxucz0iaHR0cDovL3d3dy53My5vcmcvMjAwMC9zdmciIGhlaWdodD0iNDhweCIgd2lkdGg9IjQ4cHgiIHZpZXdCb3g9IjAgMCA0OCA0OCI+PHBhdGggZD0iTTEzLjUyNywyMS41MjljMCwwLjU5NywwLjA2NCwxLjA4LDAuMTc2LDEuNDM1YzAuMTI4LDAuMzU1LDAuMjg3LDAuNzQyLDAuNTExLDEuMTYxIGMwLjA4LDAuMTI5LDAuMTEyLDAuMjU4LDAuMTEyLDAuMzcxYzAsMC4xNjEtMC4wOTYsMC4zMjItMC4zMDMsMC40ODRsLTEuMDA2LDAuNjc3Yy0wLjE0NCwwLjA5Ny0wLjI4NywwLjE0NS0wLjQxNSwwLjE0NSBjLTAuMTYsMC0wLjMxOS0wLjA4MS0wLjQ3OS0wLjIyNmMtMC4yMjQtMC4yNDItMC40MTUtMC41LTAuNTc1LTAuNzU4Yy0wLjE2LTAuMjc0LTAuMzE5LTAuNTgtMC40OTUtMC45NTEgYy0xLjI0NSwxLjQ4My0yLjgxLDIuMjI1LTQuNjk0LDIuMjI1Yy0xLjM0MSwwLTIuNDExLTAuMzg3LTMuMTkzLTEuMTYxcy0xLjE4MS0xLjgwNi0xLjE4MS0zLjA5NmMwLTEuMzcsMC40NzktMi40ODMsMS40NTMtMy4zMjEgczIuMjY3LTEuMjU4LDMuOTExLTEuMjU4YzAuNTQzLDAsMS4xMDIsMC4wNDgsMS42OTIsMC4xMjlzMS4xOTcsMC4yMSwxLjgzNiwwLjM1NXYtMS4xNzdjMC0xLjIyNS0wLjI1NS0yLjA4LTAuNzUtMi41OCBjLTAuNTExLTAuNS0xLjM3My0wLjc0Mi0yLjYwMi0wLjc0MmMtMC41NTksMC0xLjEzMywwLjA2NC0xLjcyNCwwLjIxYy0wLjU5MSwwLjE0NS0xLjE2NSwwLjMyMi0xLjcyNCwwLjU0OCBjLTAuMjU1LDAuMTEzLTAuNDQ3LDAuMTc3LTAuNTU5LDAuMjFjLTAuMTEyLDAuMDMyLTAuMTkyLDAuMDQ4LTAuMjU1LDAuMDQ4Yy0wLjIyNCwwLTAuMzM1LTAuMTYxLTAuMzM1LTAuNXYtMC43OSBjMC0wLjI1OCwwLjAzMi0wLjQ1MSwwLjExMi0wLjU2NGMwLjA4LTAuMTEzLDAuMjI0LTAuMjI2LDAuNDQ3LTAuMzM5YzAuNTU5LTAuMjksMS4yMjktMC41MzIsMi4wMTItMC43MjYgYzAuNzgyLTAuMjEsMS42MTItMC4zMDYsMi40OS0wLjMwNmMxLjksMCwzLjI4OSwwLjQzNSw0LjE4MywxLjMwNmMwLjg3OCwwLjg3MSwxLjMyNSwyLjE5MywxLjMyNSwzLjk2NnY1LjIyNEgxMy41Mjd6IE03LjA0NSwyMy45NzljMC41MjcsMCwxLjA3LTAuMDk3LDEuNjQ0LTAuMjljMC41NzUtMC4xOTMsMS4wODYtMC41NDgsMS41MTctMS4wMzJjMC4yNTUtMC4zMDYsMC40NDctMC42NDUsMC41NDMtMS4wMzIgYzAuMDk2LTAuMzg3LDAuMTYtMC44NTUsMC4xNi0xLjQwM3YtMC42NzdjLTAuNDYzLTAuMTEzLTAuOTU4LTAuMjEtMS40NjktMC4yNzRjLTAuNTExLTAuMDY0LTEuMDA2LTAuMDk3LTEuNTAxLTAuMDk3IGMtMS4wNywwLTEuODUyLDAuMjEtMi4zNzksMC42NDVzLTAuNzgyLDEuMDQ4LTAuNzgyLDEuODU0YzAsMC43NTgsMC4xOTIsMS4zMjIsMC41OTEsMS43MDkgQzUuNzUyLDIzLjc4Niw2LjMxMSwyMy45NzksNy4wNDUsMjMuOTc5eiBNMTkuODY1LDI1LjcyMWMtMC4yODcsMC0wLjQ3OS0wLjA0OC0wLjYwNy0wLjE2MWMtMC4xMjgtMC4wOTctMC4yMzktMC4zMjItMC4zMzUtMC42MjkgbC0zLjc1Mi0xMi40NjNjLTAuMDk2LTAuMzIyLTAuMTQ0LTAuNTMyLTAuMTQ0LTAuNjQ1YzAtMC4yNTgsMC4xMjgtMC40MDMsMC4zODMtMC40MDNoMS41NjVjMC4zMDMsMCwwLjUxMSwwLjA0OCwwLjYyMywwLjE2MSBjMC4xMjgsMC4wOTcsMC4yMjMsMC4zMjIsMC4zMTksMC42MjlsMi42ODIsMTAuNjc0bDIuNDktMTAuNjc0YzAuMDgtMC4zMjIsMC4xNzYtMC41MzIsMC4zMDMtMC42MjkgYzAuMTI4LTAuMDk3LDAuMzUxLTAuMTYxLDAuNjM5LTAuMTYxaDEuMjc3YzAuMzAzLDAsMC41MTEsMC4wNDgsMC42MzksMC4xNjFjMC4xMjgsMC4wOTcsMC4yMzksMC4zMjIsMC4zMDMsMC42MjlsMi41MjIsMTAuODAzIGwyLjc2Mi0xMC44MDNjMC4wOTYtMC4zMjIsMC4yMDgtMC41MzIsMC4zMTktMC42MjljMC4xMjgtMC4wOTcsMC4zMzUtMC4xNjEsMC42MjMtMC4xNjFoMS40ODVjMC4yNTUsMCwwLjM5OSwwLjEyOSwwLjM5OSwwLjQwMyBjMCwwLjA4MS0wLjAxNiwwLjE2MS0wLjAzMiwwLjI1OHMtMC4wNDgsMC4yMjYtMC4xMTIsMC40MDNsLTMuODQ3LDEyLjQ2M2MtMC4wOTYsMC4zMjItMC4yMDgsMC41MzItMC4zMzUsMC42Mjkgcy0wLjMzNSwwLjE2MS0wLjYwNywwLjE2MWgtMS4zNzNjLTAuMzAzLDAtMC41MTEtMC4wNDgtMC42MzktMC4xNjFjLTAuMTI4LTAuMTEzLTAuMjM5LTAuMzIyLTAuMzAzLTAuNjQ1bC0yLjQ3NC0xMC40IEwyMi4xOCwyNC45MTVjLTAuMDgsMC4zMjItMC4xNzYsMC41MzItMC4zMDMsMC42NDVjLTAuMTI4LDAuMTEzLTAuMzUxLDAuMTYxLTAuNjM5LDAuMTYxSDE5Ljg2NXogTTQwLjM3OSwyNi4xNTYgYy0wLjgzLDAtMS42Ni0wLjA5Ny0yLjQ1OC0wLjI5Yy0wLjc5OC0wLjE5My0xLjQyMS0wLjQwMy0xLjgzNi0wLjY0NWMtMC4yNTUtMC4xNDUtMC40MzEtMC4zMDYtMC40OTUtMC40NTEgYy0wLjA2NC0wLjE0NS0wLjA5Ni0wLjMwNi0wLjA5Ni0wLjQ1MXYtMC44MjJjMC0wLjMzOSwwLjEyOC0wLjUsMC4zNjctMC41YzAuMDk2LDAsMC4xOTIsMC4wMTYsMC4yODcsMC4wNDggYzAuMDk2LDAuMDMyLDAuMjM5LDAuMDk3LDAuMzk5LDAuMTYxYzAuNTQzLDAuMjQyLDEuMTMzLDAuNDM1LDEuNzU2LDAuNTY0YzAuNjM5LDAuMTI5LDEuMjYxLDAuMTkzLDEuOSwwLjE5MyBjMS4wMDYsMCwxLjc4OC0wLjE3NywyLjMzMS0wLjUzMmMwLjU0My0wLjM1NSwwLjgzLTAuODcxLDAuODMtMS41MzJjMC0wLjQ1MS0wLjE0NC0wLjgyMi0wLjQzMS0xLjEyOSBjLTAuMjg3LTAuMzA2LTAuODMtMC41OC0xLjYxMi0wLjgzOGwtMi4zMTUtMC43MjZjLTEuMTY1LTAuMzcxLTIuMDI3LTAuOTE5LTIuNTU0LTEuNjQ1Yy0wLjUyNy0wLjcwOS0wLjc5OC0xLjQ5OS0wLjc5OC0yLjMzOCBjMC0wLjY3NywwLjE0NC0xLjI3NCwwLjQzMS0xLjc5czAuNjcxLTAuOTY3LDEuMTQ5LTEuMzIyYzAuNDc5LTAuMzcxLDEuMDIyLTAuNjQ1LDEuNjYtMC44MzhDMzkuNTMzLDExLjA4MSw0MC4yMDMsMTEsNDAuOTA2LDExIGMwLjM1MSwwLDAuNzE4LDAuMDE2LDEuMDcsMC4wNjRjMC4zNjcsMC4wNDgsMC43MDIsMC4xMTMsMS4wMzgsMC4xNzdjMC4zMTksMC4wODEsMC42MjMsMC4xNjEsMC45MSwwLjI1OHMwLjUxMSwwLjE5MywwLjY3MSwwLjI5IGMwLjIyNCwwLjEyOSwwLjM4MywwLjI1OCwwLjQ3OSwwLjQwM2MwLjA5NiwwLjEyOSwwLjE0NCwwLjMwNiwwLjE0NCwwLjUzMnYwLjc1OGMwLDAuMzM5LTAuMTI4LDAuNTE2LTAuMzY3LDAuNTE2IGMtMC4xMjgsMC0wLjMzNS0wLjA2NC0wLjYwNy0wLjE5M2MtMC45MS0wLjQxOS0xLjkzMi0wLjYyOS0zLjA2NS0wLjYyOWMtMC45MSwwLTEuNjI4LDAuMTQ1LTIuMTIzLDAuNDUxIGMtMC40OTUsMC4zMDYtMC43NSwwLjc3NC0wLjc1LDEuNDM1YzAsMC40NTEsMC4xNiwwLjgzOCwwLjQ3OSwxLjE0NWMwLjMxOSwwLjMwNiwwLjkxLDAuNjEzLDEuNzU2LDAuODg3bDIuMjY3LDAuNzI2IGMxLjE0OSwwLjM3MSwxLjk4LDAuODg3LDIuNDc0LDEuNTQ4czAuNzM0LDEuNDE5LDAuNzM0LDIuMjU3YzAsMC42OTMtMC4xNDQsMS4zMjItMC40MTUsMS44NyBjLTAuMjg3LDAuNTQ4LTAuNjcxLDEuMDMyLTEuMTY1LDEuNDE5Yy0wLjQ5NSwwLjQwMy0xLjA4NiwwLjY5My0xLjc3MiwwLjkwM0M0MS45NDMsMjYuMDQzLDQxLjE5MywyNi4xNTYsNDAuMzc5LDI2LjE1NnoiIGZpbGw9IiMyNTJmM2UiLz48cGF0aCBkPSJNNDMuMzk2LDMzLjk5MmMtNS4yNTIsMy45MTgtMTIuODgzLDUuOTk4LTE5LjQ0NSw1Ljk5OGMtOS4xOTUsMC0xNy40ODEtMy40MzQtMjMuNzM5LTkuMTQyIGMtMC40OTUtMC40NTEtMC4wNDgtMS4wNjQsMC41NDMtMC43MDljNi43NjksMy45NjYsMTUuMTE4LDYuMzY5LDIzLjc1NSw2LjM2OWM1LjgyNywwLDEyLjIyOS0xLjIyNSwxOC4xMTktMy43NDEgQzQzLjUwOCwzMi4zNjQsNDQuMjU4LDMzLjM0Nyw0My4zOTYsMzMuOTkyeiBNNDUuNTgzLDMxLjQ3N2MtMC42NzEtMC44NzEtNC40MzgtMC40MTktNi4xNDYtMC4yMSBjLTAuNTExLDAuMDY0LTAuNTkxLTAuMzg3LTAuMTI4LTAuNzI2YzMuMDAxLTIuMTI4LDcuOTM0LTEuNTE2LDguNTA5LTAuODA2YzAuNTc1LDAuNzI2LTAuMTYsNS43MDgtMi45NjksOC4wOTQgYy0wLjQzMSwwLjM3MS0wLjg0NiwwLjE3Ny0wLjY1NS0wLjMwNkM0NC44MzMsMzUuOTI3LDQ2LjI1NCwzMi4zMzEsNDUuNTgzLDMxLjQ3N3oiIGZpbGw9IiNmOTAiLz48L3N2Zz4=;aspect=fixed;" vertex="1" parent="ACQcI9eZP0zotltc9_C3-1">
          <mxGeometry x="1440" y="1240" width="40" height="40" as="geometry" />
        </mxCell>
        <mxCell id="ACQcI9eZP0zotltc9_C3-17" value="Sandbox Account" style="text;html=1;strokeColor=none;fillColor=none;align=center;verticalAlign=middle;whiteSpace=wrap;rounded=0;" vertex="1" parent="ACQcI9eZP0zotltc9_C3-1">
          <mxGeometry x="1480" y="1240" width="120" height="40" as="geometry" />
        </mxCell>
        <mxCell id="ACQcI9eZP0zotltc9_C3-18" value="Lambda&lt;br&gt;Functions" style="sketch=0;points=[[0,0,0],[0.25,0,0],[0.5,0,0],[0.75,0,0],[1,0,0],[0,1,0],[0.25,1,0],[0.5,1,0],[0.75,1,0],[1,1,0],[0,0.25,0],[0,0.5,0],[0,0.75,0],[1,0.25,0],[1,0.5,0],[1,0.75,0]];outlineConnect=0;fontColor=#232F3E;gradientColor=#F78E04;gradientDirection=north;fillColor=#D05C17;strokeColor=#ffffff;dashed=0;verticalLabelPosition=bottom;verticalAlign=top;align=center;html=1;fontSize=12;fontStyle=0;aspect=fixed;shape=mxgraph.aws4.resourceIcon;resIcon=mxgraph.aws4.lambda;" vertex="1" parent="ACQcI9eZP0zotltc9_C3-1">
          <mxGeometry x="1720" y="1320" width="80" height="80" as="geometry" />
        </mxCell>
        <mxCell id="ACQcI9eZP0zotltc9_C3-19" value="Sandbox&lt;br&gt;Parameter Store" style="sketch=0;outlineConnect=0;fontColor=#232F3E;gradientColor=none;fillColor=#B0084D;strokeColor=none;dashed=0;verticalLabelPosition=bottom;verticalAlign=top;align=center;html=1;fontSize=12;fontStyle=0;pointerEvents=1;shape=mxgraph.aws4.parameter_store;" vertex="1" parent="ACQcI9eZP0zotltc9_C3-1">
          <mxGeometry x="1840" y="1320" width="80" height="80" as="geometry" />
        </mxCell>
        <mxCell id="ACQcI9eZP0zotltc9_C3-20" value="CloudFormation&lt;br&gt;Stack" style="sketch=0;points=[[0,0,0],[0.25,0,0],[0.5,0,0],[0.75,0,0],[1,0,0],[0,1,0],[0.25,1,0],[0.5,1,0],[0.75,1,0],[1,1,0],[0,0.25,0],[0,0.5,0],[0,0.75,0],[1,0.25,0],[1,0.5,0],[1,0.75,0]];points=[[0,0,0],[0.25,0,0],[0.5,0,0],[0.75,0,0],[1,0,0],[0,1,0],[0.25,1,0],[0.5,1,0],[0.75,1,0],[1,1,0],[0,0.25,0],[0,0.5,0],[0,0.75,0],[1,0.25,0],[1,0.5,0],[1,0.75,0]];outlineConnect=0;fontColor=#232F3E;gradientColor=#F34482;gradientDirection=north;fillColor=#BC1356;strokeColor=#ffffff;dashed=0;verticalLabelPosition=bottom;verticalAlign=top;align=center;html=1;fontSize=12;fontStyle=0;aspect=fixed;shape=mxgraph.aws4.resourceIcon;resIcon=mxgraph.aws4.cloudformation;" vertex="1" parent="ACQcI9eZP0zotltc9_C3-1">
          <mxGeometry x="1600" y="1320" width="80" height="80" as="geometry" />
        </mxCell>
        <mxCell id="ACQcI9eZP0zotltc9_C3-21" value="Deployer Role" style="sketch=0;outlineConnect=0;fontColor=#232F3E;gradientColor=none;fillColor=#277116;strokeColor=none;dashed=0;verticalLabelPosition=bottom;verticalAlign=top;align=center;html=1;fontSize=12;fontStyle=0;pointerEvents=1;shape=mxgraph.aws4.role;" vertex="1" parent="ACQcI9eZP0zotltc9_C3-1">
          <mxGeometry x="1480" y="1320" width="80" height="40" as="geometry" />
        </mxCell>
        <mxCell id="ACQcI9eZP0zotltc9_C3-22" value="" style="rounded=0;whiteSpace=wrap;html=1;fillColor=none;" vertex="1" parent="ACQcI9eZP0zotltc9_C3-1">
          <mxGeometry x="1440" y="1480" width="520" height="200" as="geometry" />
        </mxCell>
        <mxCell id="ACQcI9eZP0zotltc9_C3-23" value="" style="shape=image;verticalLabelPosition=bottom;labelBackgroundColor=default;verticalAlign=top;imageAspect=0;image=data:image/svg+xml,PHN2ZyB4bWxucz0iaHR0cDovL3d3dy53My5vcmcvMjAwMC9zdmciIGhlaWdodD0iNDhweCIgd2lkdGg9IjQ4cHgiIHZpZXdCb3g9IjAgMCA0OCA0OCI+PHBhdGggZD0iTTEzLjUyNywyMS41MjljMCwwLjU5NywwLjA2NCwxLjA4LDAuMTc2LDEuNDM1YzAuMTI4LDAuMzU1LDAuMjg3LDAuNzQyLDAuNTExLDEuMTYxIGMwLjA4LDAuMTI5LDAuMTEyLDAuMjU4LDAuMTEyLDAuMzcxYzAsMC4xNjEtMC4wOTYsMC4zMjItMC4zMDMsMC40ODRsLTEuMDA2LDAuNjc3Yy0wLjE0NCwwLjA5Ny0wLjI4NywwLjE0NS0wLjQxNSwwLjE0NSBjLTAuMTYsMC0wLjMxOS0wLjA4MS0wLjQ3OS0wLjIyNmMtMC4yMjQtMC4yNDItMC40MTUtMC41LTAuNTc1LTAuNzU4Yy0wLjE2LTAuMjc0LTAuMzE5LTAuNTgtMC40OTUtMC45NTEgYy0xLjI0NSwxLjQ4My0yLjgxLDIuMjI1LTQuNjk0LDIuMjI1Yy0xLjM0MSwwLTIuNDExLTAuMzg3LTMuMTkzLTEuMTYxcy0xLjE4MS0xLjgwNi0xLjE4MS0zLjA5NmMwLTEuMzcsMC40NzktMi40ODMsMS40NTMtMy4zMjEgczIuMjY3LTEuMjU4LDMuOTExLTEuMjU4YzAuNTQzLDAsMS4xMDIsMC4wNDgsMS42OTIsMC4xMjlzMS4xOTcsMC4yMSwxLjgzNiwwLjM1NXYtMS4xNzdjMC0xLjIyNS0wLjI1NS0yLjA4LTAuNzUtMi41OCBjLTAuNTExLTAuNS0xLjM3My0wLjc0Mi0yLjYwMi0wLjc0MmMtMC41NTksMC0xLjEzMywwLjA2NC0xLjcyNCwwLjIxYy0wLjU5MSwwLjE0NS0xLjE2NSwwLjMyMi0xLjcyNCwwLjU0OCBjLTAuMjU1LDAuMTEzLTAuNDQ3LDAuMTc3LTAuNTU5LDAuMjFjLTAuMTEyLDAuMDMyLTAuMTkyLDAuMDQ4LTAuMjU1LDAuMDQ4Yy0wLjIyNCwwLTAuMzM1LTAuMTYxLTAuMzM1LTAuNXYtMC43OSBjMC0wLjI1OCwwLjAzMi0wLjQ1MSwwLjExMi0wLjU2NGMwLjA4LTAuMTEzLDAuMjI0LTAuMjI2LDAuNDQ3LTAuMzM5YzAuNTU5LTAuMjksMS4yMjktMC41MzIsMi4wMTItMC43MjYgYzAuNzgyLTAuMjEsMS42MTItMC4zMDYsMi40OS0wLjMwNmMxLjksMCwzLjI4OSwwLjQzNSw0LjE4MywxLjMwNmMwLjg3OCwwLjg3MSwxLjMyNSwyLjE5MywxLjMyNSwzLjk2NnY1LjIyNEgxMy41Mjd6IE03LjA0NSwyMy45NzljMC41MjcsMCwxLjA3LTAuMDk3LDEuNjQ0LTAuMjljMC41NzUtMC4xOTMsMS4wODYtMC41NDgsMS41MTctMS4wMzJjMC4yNTUtMC4zMDYsMC40NDctMC42NDUsMC41NDMtMS4wMzIgYzAuMDk2LTAuMzg3LDAuMTYtMC44NTUsMC4xNi0xLjQwM3YtMC42NzdjLTAuNDYzLTAuMTEzLTAuOTU4LTAuMjEtMS40NjktMC4yNzRjLTAuNTExLTAuMDY0LTEuMDA2LTAuMDk3LTEuNTAxLTAuMDk3IGMtMS4wNywwLTEuODUyLDAuMjEtMi4zNzksMC42NDVzLTAuNzgyLDEuMDQ4LTAuNzgyLDEuODU0YzAsMC43NTgsMC4xOTIsMS4zMjIsMC41OTEsMS43MDkgQzUuNzUyLDIzLjc4Niw2LjMxMSwyMy45NzksNy4wNDUsMjMuOTc5eiBNMTkuODY1LDI1LjcyMWMtMC4yODcsMC0wLjQ3OS0wLjA0OC0wLjYwNy0wLjE2MWMtMC4xMjgtMC4wOTctMC4yMzktMC4zMjItMC4zMzUtMC42MjkgbC0zLjc1Mi0xMi40NjNjLTAuMDk2LTAuMzIyLTAuMTQ0LTAuNTMyLTAuMTQ0LTAuNjQ1YzAtMC4yNTgsMC4xMjgtMC40MDMsMC4zODMtMC40MDNoMS41NjVjMC4zMDMsMCwwLjUxMSwwLjA0OCwwLjYyMywwLjE2MSBjMC4xMjgsMC4wOTcsMC4yMjMsMC4zMjIsMC4zMTksMC42MjlsMi42ODIsMTAuNjc0bDIuNDktMTAuNjc0YzAuMDgtMC4zMjIsMC4xNzYtMC41MzIsMC4zMDMtMC42MjkgYzAuMTI4LTAuMDk3LDAuMzUxLTAuMTYxLDAuNjM5LTAuMTYxaDEuMjc3YzAuMzAzLDAsMC41MTEsMC4wNDgsMC42MzksMC4xNjFjMC4xMjgsMC4wOTcsMC4yMzksMC4zMjIsMC4zMDMsMC42MjlsMi41MjIsMTAuODAzIGwyLjc2Mi0xMC44MDNjMC4wOTYtMC4zMjIsMC4yMDgtMC41MzIsMC4zMTktMC42MjljMC4xMjgtMC4wOTcsMC4zMzUtMC4xNjEsMC42MjMtMC4xNjFoMS40ODVjMC4yNTUsMCwwLjM5OSwwLjEyOSwwLjM5OSwwLjQwMyBjMCwwLjA4MS0wLjAxNiwwLjE2MS0wLjAzMiwwLjI1OHMtMC4wNDgsMC4yMjYtMC4xMTIsMC40MDNsLTMuODQ3LDEyLjQ2M2MtMC4wOTYsMC4zMjItMC4yMDgsMC41MzItMC4zMzUsMC42Mjkgcy0wLjMzNSwwLjE2MS0wLjYwNywwLjE2MWgtMS4zNzNjLTAuMzAzLDAtMC41MTEtMC4wNDgtMC42MzktMC4xNjFjLTAuMTI4LTAuMTEzLTAuMjM5LTAuMzIyLTAuMzAzLTAuNjQ1bC0yLjQ3NC0xMC40IEwyMi4xOCwyNC45MTVjLTAuMDgsMC4zMjItMC4xNzYsMC41MzItMC4zMDMsMC42NDVjLTAuMTI4LDAuMTEzLTAuMzUxLDAuMTYxLTAuNjM5LDAuMTYxSDE5Ljg2NXogTTQwLjM3OSwyNi4xNTYgYy0wLjgzLDAtMS42Ni0wLjA5Ny0yLjQ1OC0wLjI5Yy0wLjc5OC0wLjE5My0xLjQyMS0wLjQwMy0xLjgzNi0wLjY0NWMtMC4yNTUtMC4xNDUtMC40MzEtMC4zMDYtMC40OTUtMC40NTEgYy0wLjA2NC0wLjE0NS0wLjA5Ni0wLjMwNi0wLjA5Ni0wLjQ1MXYtMC44MjJjMC0wLjMzOSwwLjEyOC0wLjUsMC4zNjctMC41YzAuMDk2LDAsMC4xOTIsMC4wMTYsMC4yODcsMC4wNDggYzAuMDk2LDAuMDMyLDAuMjM5LDAuMDk3LDAuMzk5LDAuMTYxYzAuNTQzLDAuMjQyLDEuMTMzLDAuNDM1LDEuNzU2LDAuNTY0YzAuNjM5LDAuMTI5LDEuMjYxLDAuMTkzLDEuOSwwLjE5MyBjMS4wMDYsMCwxLjc4OC0wLjE3NywyLjMzMS0wLjUzMmMwLjU0My0wLjM1NSwwLjgzLTAuODcxLDAuODMtMS41MzJjMC0wLjQ1MS0wLjE0NC0wLjgyMi0wLjQzMS0xLjEyOSBjLTAuMjg3LTAuMzA2LTAuODMtMC41OC0xLjYxMi0wLjgzOGwtMi4zMTUtMC43MjZjLTEuMTY1LTAuMzcxLTIuMDI3LTAuOTE5LTIuNTU0LTEuNjQ1Yy0wLjUyNy0wLjcwOS0wLjc5OC0xLjQ5OS0wLjc5OC0yLjMzOCBjMC0wLjY3NywwLjE0NC0xLjI3NCwwLjQzMS0xLjc5czAuNjcxLTAuOTY3LDEuMTQ5LTEuMzIyYzAuNDc5LTAuMzcxLDEuMDIyLTAuNjQ1LDEuNjYtMC44MzhDMzkuNTMzLDExLjA4MSw0MC4yMDMsMTEsNDAuOTA2LDExIGMwLjM1MSwwLDAuNzE4LDAuMDE2LDEuMDcsMC4wNjRjMC4zNjcsMC4wNDgsMC43MDIsMC4xMTMsMS4wMzgsMC4xNzdjMC4zMTksMC4wODEsMC42MjMsMC4xNjEsMC45MSwwLjI1OHMwLjUxMSwwLjE5MywwLjY3MSwwLjI5IGMwLjIyNCwwLjEyOSwwLjM4MywwLjI1OCwwLjQ3OSwwLjQwM2MwLjA5NiwwLjEyOSwwLjE0NCwwLjMwNiwwLjE0NCwwLjUzMnYwLjc1OGMwLDAuMzM5LTAuMTI4LDAuNTE2LTAuMzY3LDAuNTE2IGMtMC4xMjgsMC0wLjMzNS0wLjA2NC0wLjYwNy0wLjE5M2MtMC45MS0wLjQxOS0xLjkzMi0wLjYyOS0zLjA2NS0wLjYyOWMtMC45MSwwLTEuNjI4LDAuMTQ1LTIuMTIzLDAuNDUxIGMtMC40OTUsMC4zMDYtMC43NSwwLjc3NC0wLjc1LDEuNDM1YzAsMC40NTEsMC4xNiwwLjgzOCwwLjQ3OSwxLjE0NWMwLjMxOSwwLjMwNiwwLjkxLDAuNjEzLDEuNzU2LDAuODg3bDIuMjY3LDAuNzI2IGMxLjE0OSwwLjM3MSwxLjk4LDAuODg3LDIuNDc0LDEuNTQ4czAuNzM0LDEuNDE5LDAuNzM0LDIuMjU3YzAsMC42OTMtMC4xNDQsMS4zMjItMC40MTUsMS44NyBjLTAuMjg3LDAuNTQ4LTAuNjcxLDEuMDMyLTEuMTY1LDEuNDE5Yy0wLjQ5NSwwLjQwMy0xLjA4NiwwLjY5My0xLjc3MiwwLjkwM0M0MS45NDMsMjYuMDQzLDQxLjE5MywyNi4xNTYsNDAuMzc5LDI2LjE1NnoiIGZpbGw9IiMyNTJmM2UiLz48cGF0aCBkPSJNNDMuMzk2LDMzLjk5MmMtNS4yNTIsMy45MTgtMTIuODgzLDUuOTk4LTE5LjQ0NSw1Ljk5OGMtOS4xOTUsMC0xNy40ODEtMy40MzQtMjMuNzM5LTkuMTQyIGMtMC40OTUtMC40NTEtMC4wNDgtMS4wNjQsMC41NDMtMC43MDljNi43NjksMy45NjYsMTUuMTE4LDYuMzY5LDIzLjc1NSw2LjM2OWM1LjgyNywwLDEyLjIyOS0xLjIyNSwxOC4xMTktMy43NDEgQzQzLjUwOCwzMi4zNjQsNDQuMjU4LDMzLjM0Nyw0My4zOTYsMzMuOTkyeiBNNDUuNTgzLDMxLjQ3N2MtMC42NzEtMC44NzEtNC40MzgtMC40MTktNi4xNDYtMC4yMSBjLTAuNTExLDAuMDY0LTAuNTkxLTAuMzg3LTAuMTI4LTAuNzI2YzMuMDAxLTIuMTI4LDcuOTM0LTEuNTE2LDguNTA5LTAuODA2YzAuNTc1LDAuNzI2LTAuMTYsNS43MDgtMi45NjksOC4wOTQgYy0wLjQzMSwwLjM3MS0wLjg0NiwwLjE3Ny0wLjY1NS0wLjMwNkM0NC44MzMsMzUuOTI3LDQ2LjI1NCwzMi4zMzEsNDUuNTgzLDMxLjQ3N3oiIGZpbGw9IiNmOTAiLz48L3N2Zz4=;aspect=fixed;" vertex="1" parent="ACQcI9eZP0zotltc9_C3-1">
          <mxGeometry x="1440" y="1480" width="40" height="40" as="geometry" />
        </mxCell>
        <mxCell id="ACQcI9eZP0zotltc9_C3-24" value="Test Account" style="text;html=1;strokeColor=none;fillColor=none;align=center;verticalAlign=middle;whiteSpace=wrap;rounded=0;" vertex="1" parent="ACQcI9eZP0zotltc9_C3-1">
          <mxGeometry x="1480" y="1480" width="120" height="40" as="geometry" />
        </mxCell>
        <mxCell id="ACQcI9eZP0zotltc9_C3-25" value="Lambda&lt;br&gt;Functions" style="sketch=0;points=[[0,0,0],[0.25,0,0],[0.5,0,0],[0.75,0,0],[1,0,0],[0,1,0],[0.25,1,0],[0.5,1,0],[0.75,1,0],[1,1,0],[0,0.25,0],[0,0.5,0],[0,0.75,0],[1,0.25,0],[1,0.5,0],[1,0.75,0]];outlineConnect=0;fontColor=#232F3E;gradientColor=#F78E04;gradientDirection=north;fillColor=#D05C17;strokeColor=#ffffff;dashed=0;verticalLabelPosition=bottom;verticalAlign=top;align=center;html=1;fontSize=12;fontStyle=0;aspect=fixed;shape=mxgraph.aws4.resourceIcon;resIcon=mxgraph.aws4.lambda;" vertex="1" parent="ACQcI9eZP0zotltc9_C3-1">
          <mxGeometry x="1720" y="1560" width="80" height="80" as="geometry" />
        </mxCell>
        <mxCell id="ACQcI9eZP0zotltc9_C3-26" value="Test&lt;br&gt;Parameter Store" style="sketch=0;outlineConnect=0;fontColor=#232F3E;gradientColor=none;fillColor=#B0084D;strokeColor=none;dashed=0;verticalLabelPosition=bottom;verticalAlign=top;align=center;html=1;fontSize=12;fontStyle=0;pointerEvents=1;shape=mxgraph.aws4.parameter_store;" vertex="1" parent="ACQcI9eZP0zotltc9_C3-1">
          <mxGeometry x="1840" y="1560" width="80" height="80" as="geometry" />
        </mxCell>
        <mxCell id="ACQcI9eZP0zotltc9_C3-27" value="CloudFormation&lt;br&gt;Stack" style="sketch=0;points=[[0,0,0],[0.25,0,0],[0.5,0,0],[0.75,0,0],[1,0,0],[0,1,0],[0.25,1,0],[0.5,1,0],[0.75,1,0],[1,1,0],[0,0.25,0],[0,0.5,0],[0,0.75,0],[1,0.25,0],[1,0.5,0],[1,0.75,0]];points=[[0,0,0],[0.25,0,0],[0.5,0,0],[0.75,0,0],[1,0,0],[0,1,0],[0.25,1,0],[0.5,1,0],[0.75,1,0],[1,1,0],[0,0.25,0],[0,0.5,0],[0,0.75,0],[1,0.25,0],[1,0.5,0],[1,0.75,0]];outlineConnect=0;fontColor=#232F3E;gradientColor=#F34482;gradientDirection=north;fillColor=#BC1356;strokeColor=#ffffff;dashed=0;verticalLabelPosition=bottom;verticalAlign=top;align=center;html=1;fontSize=12;fontStyle=0;aspect=fixed;shape=mxgraph.aws4.resourceIcon;resIcon=mxgraph.aws4.cloudformation;" vertex="1" parent="ACQcI9eZP0zotltc9_C3-1">
          <mxGeometry x="1600" y="1560" width="80" height="80" as="geometry" />
        </mxCell>
        <mxCell id="ACQcI9eZP0zotltc9_C3-28" value="Deployer Role" style="sketch=0;outlineConnect=0;fontColor=#232F3E;gradientColor=none;fillColor=#277116;strokeColor=none;dashed=0;verticalLabelPosition=bottom;verticalAlign=top;align=center;html=1;fontSize=12;fontStyle=0;pointerEvents=1;shape=mxgraph.aws4.role;" vertex="1" parent="ACQcI9eZP0zotltc9_C3-1">
          <mxGeometry x="1480" y="1560" width="80" height="40" as="geometry" />
        </mxCell>
        <mxCell id="ACQcI9eZP0zotltc9_C3-29" value="" style="rounded=0;whiteSpace=wrap;html=1;fillColor=none;" vertex="1" parent="ACQcI9eZP0zotltc9_C3-1">
          <mxGeometry x="1440" y="1720" width="520" height="200" as="geometry" />
        </mxCell>
        <mxCell id="ACQcI9eZP0zotltc9_C3-30" value="" style="shape=image;verticalLabelPosition=bottom;labelBackgroundColor=default;verticalAlign=top;imageAspect=0;image=data:image/svg+xml,PHN2ZyB4bWxucz0iaHR0cDovL3d3dy53My5vcmcvMjAwMC9zdmciIGhlaWdodD0iNDhweCIgd2lkdGg9IjQ4cHgiIHZpZXdCb3g9IjAgMCA0OCA0OCI+PHBhdGggZD0iTTEzLjUyNywyMS41MjljMCwwLjU5NywwLjA2NCwxLjA4LDAuMTc2LDEuNDM1YzAuMTI4LDAuMzU1LDAuMjg3LDAuNzQyLDAuNTExLDEuMTYxIGMwLjA4LDAuMTI5LDAuMTEyLDAuMjU4LDAuMTEyLDAuMzcxYzAsMC4xNjEtMC4wOTYsMC4zMjItMC4zMDMsMC40ODRsLTEuMDA2LDAuNjc3Yy0wLjE0NCwwLjA5Ny0wLjI4NywwLjE0NS0wLjQxNSwwLjE0NSBjLTAuMTYsMC0wLjMxOS0wLjA4MS0wLjQ3OS0wLjIyNmMtMC4yMjQtMC4yNDItMC40MTUtMC41LTAuNTc1LTAuNzU4Yy0wLjE2LTAuMjc0LTAuMzE5LTAuNTgtMC40OTUtMC45NTEgYy0xLjI0NSwxLjQ4My0yLjgxLDIuMjI1LTQuNjk0LDIuMjI1Yy0xLjM0MSwwLTIuNDExLTAuMzg3LTMuMTkzLTEuMTYxcy0xLjE4MS0xLjgwNi0xLjE4MS0zLjA5NmMwLTEuMzcsMC40NzktMi40ODMsMS40NTMtMy4zMjEgczIuMjY3LTEuMjU4LDMuOTExLTEuMjU4YzAuNTQzLDAsMS4xMDIsMC4wNDgsMS42OTIsMC4xMjlzMS4xOTcsMC4yMSwxLjgzNiwwLjM1NXYtMS4xNzdjMC0xLjIyNS0wLjI1NS0yLjA4LTAuNzUtMi41OCBjLTAuNTExLTAuNS0xLjM3My0wLjc0Mi0yLjYwMi0wLjc0MmMtMC41NTksMC0xLjEzMywwLjA2NC0xLjcyNCwwLjIxYy0wLjU5MSwwLjE0NS0xLjE2NSwwLjMyMi0xLjcyNCwwLjU0OCBjLTAuMjU1LDAuMTEzLTAuNDQ3LDAuMTc3LTAuNTU5LDAuMjFjLTAuMTEyLDAuMDMyLTAuMTkyLDAuMDQ4LTAuMjU1LDAuMDQ4Yy0wLjIyNCwwLTAuMzM1LTAuMTYxLTAuMzM1LTAuNXYtMC43OSBjMC0wLjI1OCwwLjAzMi0wLjQ1MSwwLjExMi0wLjU2NGMwLjA4LTAuMTEzLDAuMjI0LTAuMjI2LDAuNDQ3LTAuMzM5YzAuNTU5LTAuMjksMS4yMjktMC41MzIsMi4wMTItMC43MjYgYzAuNzgyLTAuMjEsMS42MTItMC4zMDYsMi40OS0wLjMwNmMxLjksMCwzLjI4OSwwLjQzNSw0LjE4MywxLjMwNmMwLjg3OCwwLjg3MSwxLjMyNSwyLjE5MywxLjMyNSwzLjk2NnY1LjIyNEgxMy41Mjd6IE03LjA0NSwyMy45NzljMC41MjcsMCwxLjA3LTAuMDk3LDEuNjQ0LTAuMjljMC41NzUtMC4xOTMsMS4wODYtMC41NDgsMS41MTctMS4wMzJjMC4yNTUtMC4zMDYsMC40NDctMC42NDUsMC41NDMtMS4wMzIgYzAuMDk2LTAuMzg3LDAuMTYtMC44NTUsMC4xNi0xLjQwM3YtMC42NzdjLTAuNDYzLTAuMTEzLTAuOTU4LTAuMjEtMS40NjktMC4yNzRjLTAuNTExLTAuMDY0LTEuMDA2LTAuMDk3LTEuNTAxLTAuMDk3IGMtMS4wNywwLTEuODUyLDAuMjEtMi4zNzksMC42NDVzLTAuNzgyLDEuMDQ4LTAuNzgyLDEuODU0YzAsMC43NTgsMC4xOTIsMS4zMjIsMC41OTEsMS43MDkgQzUuNzUyLDIzLjc4Niw2LjMxMSwyMy45NzksNy4wNDUsMjMuOTc5eiBNMTkuODY1LDI1LjcyMWMtMC4yODcsMC0wLjQ3OS0wLjA0OC0wLjYwNy0wLjE2MWMtMC4xMjgtMC4wOTctMC4yMzktMC4zMjItMC4zMzUtMC42MjkgbC0zLjc1Mi0xMi40NjNjLTAuMDk2LTAuMzIyLTAuMTQ0LTAuNTMyLTAuMTQ0LTAuNjQ1YzAtMC4yNTgsMC4xMjgtMC40MDMsMC4zODMtMC40MDNoMS41NjVjMC4zMDMsMCwwLjUxMSwwLjA0OCwwLjYyMywwLjE2MSBjMC4xMjgsMC4wOTcsMC4yMjMsMC4zMjIsMC4zMTksMC42MjlsMi42ODIsMTAuNjc0bDIuNDktMTAuNjc0YzAuMDgtMC4zMjIsMC4xNzYtMC41MzIsMC4zMDMtMC42MjkgYzAuMTI4LTAuMDk3LDAuMzUxLTAuMTYxLDAuNjM5LTAuMTYxaDEuMjc3YzAuMzAzLDAsMC41MTEsMC4wNDgsMC42MzksMC4xNjFjMC4xMjgsMC4wOTcsMC4yMzksMC4zMjIsMC4zMDMsMC42MjlsMi41MjIsMTAuODAzIGwyLjc2Mi0xMC44MDNjMC4wOTYtMC4zMjIsMC4yMDgtMC41MzIsMC4zMTktMC42MjljMC4xMjgtMC4wOTcsMC4zMzUtMC4xNjEsMC42MjMtMC4xNjFoMS40ODVjMC4yNTUsMCwwLjM5OSwwLjEyOSwwLjM5OSwwLjQwMyBjMCwwLjA4MS0wLjAxNiwwLjE2MS0wLjAzMiwwLjI1OHMtMC4wNDgsMC4yMjYtMC4xMTIsMC40MDNsLTMuODQ3LDEyLjQ2M2MtMC4wOTYsMC4zMjItMC4yMDgsMC41MzItMC4zMzUsMC42Mjkgcy0wLjMzNSwwLjE2MS0wLjYwNywwLjE2MWgtMS4zNzNjLTAuMzAzLDAtMC41MTEtMC4wNDgtMC42MzktMC4xNjFjLTAuMTI4LTAuMTEzLTAuMjM5LTAuMzIyLTAuMzAzLTAuNjQ1bC0yLjQ3NC0xMC40IEwyMi4xOCwyNC45MTVjLTAuMDgsMC4zMjItMC4xNzYsMC41MzItMC4zMDMsMC42NDVjLTAuMTI4LDAuMTEzLTAuMzUxLDAuMTYxLTAuNjM5LDAuMTYxSDE5Ljg2NXogTTQwLjM3OSwyNi4xNTYgYy0wLjgzLDAtMS42Ni0wLjA5Ny0yLjQ1OC0wLjI5Yy0wLjc5OC0wLjE5My0xLjQyMS0wLjQwMy0xLjgzNi0wLjY0NWMtMC4yNTUtMC4xNDUtMC40MzEtMC4zMDYtMC40OTUtMC40NTEgYy0wLjA2NC0wLjE0NS0wLjA5Ni0wLjMwNi0wLjA5Ni0wLjQ1MXYtMC44MjJjMC0wLjMzOSwwLjEyOC0wLjUsMC4zNjctMC41YzAuMDk2LDAsMC4xOTIsMC4wMTYsMC4yODcsMC4wNDggYzAuMDk2LDAuMDMyLDAuMjM5LDAuMDk3LDAuMzk5LDAuMTYxYzAuNTQzLDAuMjQyLDEuMTMzLDAuNDM1LDEuNzU2LDAuNTY0YzAuNjM5LDAuMTI5LDEuMjYxLDAuMTkzLDEuOSwwLjE5MyBjMS4wMDYsMCwxLjc4OC0wLjE3NywyLjMzMS0wLjUzMmMwLjU0My0wLjM1NSwwLjgzLTAuODcxLDAuODMtMS41MzJjMC0wLjQ1MS0wLjE0NC0wLjgyMi0wLjQzMS0xLjEyOSBjLTAuMjg3LTAuMzA2LTAuODMtMC41OC0xLjYxMi0wLjgzOGwtMi4zMTUtMC43MjZjLTEuMTY1LTAuMzcxLTIuMDI3LTAuOTE5LTIuNTU0LTEuNjQ1Yy0wLjUyNy0wLjcwOS0wLjc5OC0xLjQ5OS0wLjc5OC0yLjMzOCBjMC0wLjY3NywwLjE0NC0xLjI3NCwwLjQzMS0xLjc5czAuNjcxLTAuOTY3LDEuMTQ5LTEuMzIyYzAuNDc5LTAuMzcxLDEuMDIyLTAuNjQ1LDEuNjYtMC44MzhDMzkuNTMzLDExLjA4MSw0MC4yMDMsMTEsNDAuOTA2LDExIGMwLjM1MSwwLDAuNzE4LDAuMDE2LDEuMDcsMC4wNjRjMC4zNjcsMC4wNDgsMC43MDIsMC4xMTMsMS4wMzgsMC4xNzdjMC4zMTksMC4wODEsMC42MjMsMC4xNjEsMC45MSwwLjI1OHMwLjUxMSwwLjE5MywwLjY3MSwwLjI5IGMwLjIyNCwwLjEyOSwwLjM4MywwLjI1OCwwLjQ3OSwwLjQwM2MwLjA5NiwwLjEyOSwwLjE0NCwwLjMwNiwwLjE0NCwwLjUzMnYwLjc1OGMwLDAuMzM5LTAuMTI4LDAuNTE2LTAuMzY3LDAuNTE2IGMtMC4xMjgsMC0wLjMzNS0wLjA2NC0wLjYwNy0wLjE5M2MtMC45MS0wLjQxOS0xLjkzMi0wLjYyOS0zLjA2NS0wLjYyOWMtMC45MSwwLTEuNjI4LDAuMTQ1LTIuMTIzLDAuNDUxIGMtMC40OTUsMC4zMDYtMC43NSwwLjc3NC0wLjc1LDEuNDM1YzAsMC40NTEsMC4xNiwwLjgzOCwwLjQ3OSwxLjE0NWMwLjMxOSwwLjMwNiwwLjkxLDAuNjEzLDEuNzU2LDAuODg3bDIuMjY3LDAuNzI2IGMxLjE0OSwwLjM3MSwxLjk4LDAuODg3LDIuNDc0LDEuNTQ4czAuNzM0LDEuNDE5LDAuNzM0LDIuMjU3YzAsMC42OTMtMC4xNDQsMS4zMjItMC40MTUsMS44NyBjLTAuMjg3LDAuNTQ4LTAuNjcxLDEuMDMyLTEuMTY1LDEuNDE5Yy0wLjQ5NSwwLjQwMy0xLjA4NiwwLjY5My0xLjc3MiwwLjkwM0M0MS45NDMsMjYuMDQzLDQxLjE5MywyNi4xNTYsNDAuMzc5LDI2LjE1NnoiIGZpbGw9IiMyNTJmM2UiLz48cGF0aCBkPSJNNDMuMzk2LDMzLjk5MmMtNS4yNTIsMy45MTgtMTIuODgzLDUuOTk4LTE5LjQ0NSw1Ljk5OGMtOS4xOTUsMC0xNy40ODEtMy40MzQtMjMuNzM5LTkuMTQyIGMtMC40OTUtMC40NTEtMC4wNDgtMS4wNjQsMC41NDMtMC43MDljNi43NjksMy45NjYsMTUuMTE4LDYuMzY5LDIzLjc1NSw2LjM2OWM1LjgyNywwLDEyLjIyOS0xLjIyNSwxOC4xMTktMy43NDEgQzQzLjUwOCwzMi4zNjQsNDQuMjU4LDMzLjM0Nyw0My4zOTYsMzMuOTkyeiBNNDUuNTgzLDMxLjQ3N2MtMC42NzEtMC44NzEtNC40MzgtMC40MTktNi4xNDYtMC4yMSBjLTAuNTExLDAuMDY0LTAuNTkxLTAuMzg3LTAuMTI4LTAuNzI2YzMuMDAxLTIuMTI4LDcuOTM0LTEuNTE2LDguNTA5LTAuODA2YzAuNTc1LDAuNzI2LTAuMTYsNS43MDgtMi45NjksOC4wOTQgYy0wLjQzMSwwLjM3MS0wLjg0NiwwLjE3Ny0wLjY1NS0wLjMwNkM0NC44MzMsMzUuOTI3LDQ2LjI1NCwzMi4zMzEsNDUuNTgzLDMxLjQ3N3oiIGZpbGw9IiNmOTAiLz48L3N2Zz4=;aspect=fixed;" vertex="1" parent="ACQcI9eZP0zotltc9_C3-1">
          <mxGeometry x="1440" y="1720" width="40" height="40" as="geometry" />
        </mxCell>
        <mxCell id="ACQcI9eZP0zotltc9_C3-31" value="Staging Account" style="text;html=1;strokeColor=none;fillColor=none;align=center;verticalAlign=middle;whiteSpace=wrap;rounded=0;" vertex="1" parent="ACQcI9eZP0zotltc9_C3-1">
          <mxGeometry x="1480" y="1720" width="120" height="40" as="geometry" />
        </mxCell>
        <mxCell id="ACQcI9eZP0zotltc9_C3-32" value="Lambda&lt;br&gt;Functions" style="sketch=0;points=[[0,0,0],[0.25,0,0],[0.5,0,0],[0.75,0,0],[1,0,0],[0,1,0],[0.25,1,0],[0.5,1,0],[0.75,1,0],[1,1,0],[0,0.25,0],[0,0.5,0],[0,0.75,0],[1,0.25,0],[1,0.5,0],[1,0.75,0]];outlineConnect=0;fontColor=#232F3E;gradientColor=#F78E04;gradientDirection=north;fillColor=#D05C17;strokeColor=#ffffff;dashed=0;verticalLabelPosition=bottom;verticalAlign=top;align=center;html=1;fontSize=12;fontStyle=0;aspect=fixed;shape=mxgraph.aws4.resourceIcon;resIcon=mxgraph.aws4.lambda;" vertex="1" parent="ACQcI9eZP0zotltc9_C3-1">
          <mxGeometry x="1720" y="1800" width="80" height="80" as="geometry" />
        </mxCell>
        <mxCell id="ACQcI9eZP0zotltc9_C3-33" value="Staging&lt;br&gt;Parameter Store" style="sketch=0;outlineConnect=0;fontColor=#232F3E;gradientColor=none;fillColor=#B0084D;strokeColor=none;dashed=0;verticalLabelPosition=bottom;verticalAlign=top;align=center;html=1;fontSize=12;fontStyle=0;pointerEvents=1;shape=mxgraph.aws4.parameter_store;" vertex="1" parent="ACQcI9eZP0zotltc9_C3-1">
          <mxGeometry x="1840" y="1800" width="80" height="80" as="geometry" />
        </mxCell>
        <mxCell id="ACQcI9eZP0zotltc9_C3-34" value="CloudFormation&lt;br&gt;Stack" style="sketch=0;points=[[0,0,0],[0.25,0,0],[0.5,0,0],[0.75,0,0],[1,0,0],[0,1,0],[0.25,1,0],[0.5,1,0],[0.75,1,0],[1,1,0],[0,0.25,0],[0,0.5,0],[0,0.75,0],[1,0.25,0],[1,0.5,0],[1,0.75,0]];points=[[0,0,0],[0.25,0,0],[0.5,0,0],[0.75,0,0],[1,0,0],[0,1,0],[0.25,1,0],[0.5,1,0],[0.75,1,0],[1,1,0],[0,0.25,0],[0,0.5,0],[0,0.75,0],[1,0.25,0],[1,0.5,0],[1,0.75,0]];outlineConnect=0;fontColor=#232F3E;gradientColor=#F34482;gradientDirection=north;fillColor=#BC1356;strokeColor=#ffffff;dashed=0;verticalLabelPosition=bottom;verticalAlign=top;align=center;html=1;fontSize=12;fontStyle=0;aspect=fixed;shape=mxgraph.aws4.resourceIcon;resIcon=mxgraph.aws4.cloudformation;" vertex="1" parent="ACQcI9eZP0zotltc9_C3-1">
          <mxGeometry x="1600" y="1800" width="80" height="80" as="geometry" />
        </mxCell>
        <mxCell id="ACQcI9eZP0zotltc9_C3-35" value="Deployer Role" style="sketch=0;outlineConnect=0;fontColor=#232F3E;gradientColor=none;fillColor=#277116;strokeColor=none;dashed=0;verticalLabelPosition=bottom;verticalAlign=top;align=center;html=1;fontSize=12;fontStyle=0;pointerEvents=1;shape=mxgraph.aws4.role;" vertex="1" parent="ACQcI9eZP0zotltc9_C3-1">
          <mxGeometry x="1480" y="1800" width="80" height="40" as="geometry" />
        </mxCell>
        <mxCell id="ACQcI9eZP0zotltc9_C3-36" value="" style="rounded=0;whiteSpace=wrap;html=1;fillColor=none;" vertex="1" parent="ACQcI9eZP0zotltc9_C3-1">
          <mxGeometry x="1440" y="1960" width="520" height="200" as="geometry" />
        </mxCell>
        <mxCell id="ACQcI9eZP0zotltc9_C3-37" value="" style="shape=image;verticalLabelPosition=bottom;labelBackgroundColor=default;verticalAlign=top;imageAspect=0;image=data:image/svg+xml,PHN2ZyB4bWxucz0iaHR0cDovL3d3dy53My5vcmcvMjAwMC9zdmciIGhlaWdodD0iNDhweCIgd2lkdGg9IjQ4cHgiIHZpZXdCb3g9IjAgMCA0OCA0OCI+PHBhdGggZD0iTTEzLjUyNywyMS41MjljMCwwLjU5NywwLjA2NCwxLjA4LDAuMTc2LDEuNDM1YzAuMTI4LDAuMzU1LDAuMjg3LDAuNzQyLDAuNTExLDEuMTYxIGMwLjA4LDAuMTI5LDAuMTEyLDAuMjU4LDAuMTEyLDAuMzcxYzAsMC4xNjEtMC4wOTYsMC4zMjItMC4zMDMsMC40ODRsLTEuMDA2LDAuNjc3Yy0wLjE0NCwwLjA5Ny0wLjI4NywwLjE0NS0wLjQxNSwwLjE0NSBjLTAuMTYsMC0wLjMxOS0wLjA4MS0wLjQ3OS0wLjIyNmMtMC4yMjQtMC4yNDItMC40MTUtMC41LTAuNTc1LTAuNzU4Yy0wLjE2LTAuMjc0LTAuMzE5LTAuNTgtMC40OTUtMC45NTEgYy0xLjI0NSwxLjQ4My0yLjgxLDIuMjI1LTQuNjk0LDIuMjI1Yy0xLjM0MSwwLTIuNDExLTAuMzg3LTMuMTkzLTEuMTYxcy0xLjE4MS0xLjgwNi0xLjE4MS0zLjA5NmMwLTEuMzcsMC40NzktMi40ODMsMS40NTMtMy4zMjEgczIuMjY3LTEuMjU4LDMuOTExLTEuMjU4YzAuNTQzLDAsMS4xMDIsMC4wNDgsMS42OTIsMC4xMjlzMS4xOTcsMC4yMSwxLjgzNiwwLjM1NXYtMS4xNzdjMC0xLjIyNS0wLjI1NS0yLjA4LTAuNzUtMi41OCBjLTAuNTExLTAuNS0xLjM3My0wLjc0Mi0yLjYwMi0wLjc0MmMtMC41NTksMC0xLjEzMywwLjA2NC0xLjcyNCwwLjIxYy0wLjU5MSwwLjE0NS0xLjE2NSwwLjMyMi0xLjcyNCwwLjU0OCBjLTAuMjU1LDAuMTEzLTAuNDQ3LDAuMTc3LTAuNTU5LDAuMjFjLTAuMTEyLDAuMDMyLTAuMTkyLDAuMDQ4LTAuMjU1LDAuMDQ4Yy0wLjIyNCwwLTAuMzM1LTAuMTYxLTAuMzM1LTAuNXYtMC43OSBjMC0wLjI1OCwwLjAzMi0wLjQ1MSwwLjExMi0wLjU2NGMwLjA4LTAuMTEzLDAuMjI0LTAuMjI2LDAuNDQ3LTAuMzM5YzAuNTU5LTAuMjksMS4yMjktMC41MzIsMi4wMTItMC43MjYgYzAuNzgyLTAuMjEsMS42MTItMC4zMDYsMi40OS0wLjMwNmMxLjksMCwzLjI4OSwwLjQzNSw0LjE4MywxLjMwNmMwLjg3OCwwLjg3MSwxLjMyNSwyLjE5MywxLjMyNSwzLjk2NnY1LjIyNEgxMy41Mjd6IE03LjA0NSwyMy45NzljMC41MjcsMCwxLjA3LTAuMDk3LDEuNjQ0LTAuMjljMC41NzUtMC4xOTMsMS4wODYtMC41NDgsMS41MTctMS4wMzJjMC4yNTUtMC4zMDYsMC40NDctMC42NDUsMC41NDMtMS4wMzIgYzAuMDk2LTAuMzg3LDAuMTYtMC44NTUsMC4xNi0xLjQwM3YtMC42NzdjLTAuNDYzLTAuMTEzLTAuOTU4LTAuMjEtMS40NjktMC4yNzRjLTAuNTExLTAuMDY0LTEuMDA2LTAuMDk3LTEuNTAxLTAuMDk3IGMtMS4wNywwLTEuODUyLDAuMjEtMi4zNzksMC42NDVzLTAuNzgyLDEuMDQ4LTAuNzgyLDEuODU0YzAsMC43NTgsMC4xOTIsMS4zMjIsMC41OTEsMS43MDkgQzUuNzUyLDIzLjc4Niw2LjMxMSwyMy45NzksNy4wNDUsMjMuOTc5eiBNMTkuODY1LDI1LjcyMWMtMC4yODcsMC0wLjQ3OS0wLjA0OC0wLjYwNy0wLjE2MWMtMC4xMjgtMC4wOTctMC4yMzktMC4zMjItMC4zMzUtMC42MjkgbC0zLjc1Mi0xMi40NjNjLTAuMDk2LTAuMzIyLTAuMTQ0LTAuNTMyLTAuMTQ0LTAuNjQ1YzAtMC4yNTgsMC4xMjgtMC40MDMsMC4zODMtMC40MDNoMS41NjVjMC4zMDMsMCwwLjUxMSwwLjA0OCwwLjYyMywwLjE2MSBjMC4xMjgsMC4wOTcsMC4yMjMsMC4zMjIsMC4zMTksMC42MjlsMi42ODIsMTAuNjc0bDIuNDktMTAuNjc0YzAuMDgtMC4zMjIsMC4xNzYtMC41MzIsMC4zMDMtMC42MjkgYzAuMTI4LTAuMDk3LDAuMzUxLTAuMTYxLDAuNjM5LTAuMTYxaDEuMjc3YzAuMzAzLDAsMC41MTEsMC4wNDgsMC42MzksMC4xNjFjMC4xMjgsMC4wOTcsMC4yMzksMC4zMjIsMC4zMDMsMC42MjlsMi41MjIsMTAuODAzIGwyLjc2Mi0xMC44MDNjMC4wOTYtMC4zMjIsMC4yMDgtMC41MzIsMC4zMTktMC42MjljMC4xMjgtMC4wOTcsMC4zMzUtMC4xNjEsMC42MjMtMC4xNjFoMS40ODVjMC4yNTUsMCwwLjM5OSwwLjEyOSwwLjM5OSwwLjQwMyBjMCwwLjA4MS0wLjAxNiwwLjE2MS0wLjAzMiwwLjI1OHMtMC4wNDgsMC4yMjYtMC4xMTIsMC40MDNsLTMuODQ3LDEyLjQ2M2MtMC4wOTYsMC4zMjItMC4yMDgsMC41MzItMC4zMzUsMC42Mjkgcy0wLjMzNSwwLjE2MS0wLjYwNywwLjE2MWgtMS4zNzNjLTAuMzAzLDAtMC41MTEtMC4wNDgtMC42MzktMC4xNjFjLTAuMTI4LTAuMTEzLTAuMjM5LTAuMzIyLTAuMzAzLTAuNjQ1bC0yLjQ3NC0xMC40IEwyMi4xOCwyNC45MTVjLTAuMDgsMC4zMjItMC4xNzYsMC41MzItMC4zMDMsMC42NDVjLTAuMTI4LDAuMTEzLTAuMzUxLDAuMTYxLTAuNjM5LDAuMTYxSDE5Ljg2NXogTTQwLjM3OSwyNi4xNTYgYy0wLjgzLDAtMS42Ni0wLjA5Ny0yLjQ1OC0wLjI5Yy0wLjc5OC0wLjE5My0xLjQyMS0wLjQwMy0xLjgzNi0wLjY0NWMtMC4yNTUtMC4xNDUtMC40MzEtMC4zMDYtMC40OTUtMC40NTEgYy0wLjA2NC0wLjE0NS0wLjA5Ni0wLjMwNi0wLjA5Ni0wLjQ1MXYtMC44MjJjMC0wLjMzOSwwLjEyOC0wLjUsMC4zNjctMC41YzAuMDk2LDAsMC4xOTIsMC4wMTYsMC4yODcsMC4wNDggYzAuMDk2LDAuMDMyLDAuMjM5LDAuMDk3LDAuMzk5LDAuMTYxYzAuNTQzLDAuMjQyLDEuMTMzLDAuNDM1LDEuNzU2LDAuNTY0YzAuNjM5LDAuMTI5LDEuMjYxLDAuMTkzLDEuOSwwLjE5MyBjMS4wMDYsMCwxLjc4OC0wLjE3NywyLjMzMS0wLjUzMmMwLjU0My0wLjM1NSwwLjgzLTAuODcxLDAuODMtMS41MzJjMC0wLjQ1MS0wLjE0NC0wLjgyMi0wLjQzMS0xLjEyOSBjLTAuMjg3LTAuMzA2LTAuODMtMC41OC0xLjYxMi0wLjgzOGwtMi4zMTUtMC43MjZjLTEuMTY1LTAuMzcxLTIuMDI3LTAuOTE5LTIuNTU0LTEuNjQ1Yy0wLjUyNy0wLjcwOS0wLjc5OC0xLjQ5OS0wLjc5OC0yLjMzOCBjMC0wLjY3NywwLjE0NC0xLjI3NCwwLjQzMS0xLjc5czAuNjcxLTAuOTY3LDEuMTQ5LTEuMzIyYzAuNDc5LTAuMzcxLDEuMDIyLTAuNjQ1LDEuNjYtMC44MzhDMzkuNTMzLDExLjA4MSw0MC4yMDMsMTEsNDAuOTA2LDExIGMwLjM1MSwwLDAuNzE4LDAuMDE2LDEuMDcsMC4wNjRjMC4zNjcsMC4wNDgsMC43MDIsMC4xMTMsMS4wMzgsMC4xNzdjMC4zMTksMC4wODEsMC42MjMsMC4xNjEsMC45MSwwLjI1OHMwLjUxMSwwLjE5MywwLjY3MSwwLjI5IGMwLjIyNCwwLjEyOSwwLjM4MywwLjI1OCwwLjQ3OSwwLjQwM2MwLjA5NiwwLjEyOSwwLjE0NCwwLjMwNiwwLjE0NCwwLjUzMnYwLjc1OGMwLDAuMzM5LTAuMTI4LDAuNTE2LTAuMzY3LDAuNTE2IGMtMC4xMjgsMC0wLjMzNS0wLjA2NC0wLjYwNy0wLjE5M2MtMC45MS0wLjQxOS0xLjkzMi0wLjYyOS0zLjA2NS0wLjYyOWMtMC45MSwwLTEuNjI4LDAuMTQ1LTIuMTIzLDAuNDUxIGMtMC40OTUsMC4zMDYtMC43NSwwLjc3NC0wLjc1LDEuNDM1YzAsMC40NTEsMC4xNiwwLjgzOCwwLjQ3OSwxLjE0NWMwLjMxOSwwLjMwNiwwLjkxLDAuNjEzLDEuNzU2LDAuODg3bDIuMjY3LDAuNzI2IGMxLjE0OSwwLjM3MSwxLjk4LDAuODg3LDIuNDc0LDEuNTQ4czAuNzM0LDEuNDE5LDAuNzM0LDIuMjU3YzAsMC42OTMtMC4xNDQsMS4zMjItMC40MTUsMS44NyBjLTAuMjg3LDAuNTQ4LTAuNjcxLDEuMDMyLTEuMTY1LDEuNDE5Yy0wLjQ5NSwwLjQwMy0xLjA4NiwwLjY5My0xLjc3MiwwLjkwM0M0MS45NDMsMjYuMDQzLDQxLjE5MywyNi4xNTYsNDAuMzc5LDI2LjE1NnoiIGZpbGw9IiMyNTJmM2UiLz48cGF0aCBkPSJNNDMuMzk2LDMzLjk5MmMtNS4yNTIsMy45MTgtMTIuODgzLDUuOTk4LTE5LjQ0NSw1Ljk5OGMtOS4xOTUsMC0xNy40ODEtMy40MzQtMjMuNzM5LTkuMTQyIGMtMC40OTUtMC40NTEtMC4wNDgtMS4wNjQsMC41NDMtMC43MDljNi43NjksMy45NjYsMTUuMTE4LDYuMzY5LDIzLjc1NSw2LjM2OWM1LjgyNywwLDEyLjIyOS0xLjIyNSwxOC4xMTktMy43NDEgQzQzLjUwOCwzMi4zNjQsNDQuMjU4LDMzLjM0Nyw0My4zOTYsMzMuOTkyeiBNNDUuNTgzLDMxLjQ3N2MtMC42NzEtMC44NzEtNC40MzgtMC40MTktNi4xNDYtMC4yMSBjLTAuNTExLDAuMDY0LTAuNTkxLTAuMzg3LTAuMTI4LTAuNzI2YzMuMDAxLTIuMTI4LDcuOTM0LTEuNTE2LDguNTA5LTAuODA2YzAuNTc1LDAuNzI2LTAuMTYsNS43MDgtMi45NjksOC4wOTQgYy0wLjQzMSwwLjM3MS0wLjg0NiwwLjE3Ny0wLjY1NS0wLjMwNkM0NC44MzMsMzUuOTI3LDQ2LjI1NCwzMi4zMzEsNDUuNTgzLDMxLjQ3N3oiIGZpbGw9IiNmOTAiLz48L3N2Zz4=;aspect=fixed;" vertex="1" parent="ACQcI9eZP0zotltc9_C3-1">
          <mxGeometry x="1440" y="1960" width="40" height="40" as="geometry" />
        </mxCell>
        <mxCell id="ACQcI9eZP0zotltc9_C3-38" value="Prod Account" style="text;html=1;strokeColor=none;fillColor=none;align=center;verticalAlign=middle;whiteSpace=wrap;rounded=0;" vertex="1" parent="ACQcI9eZP0zotltc9_C3-1">
          <mxGeometry x="1480" y="1960" width="120" height="40" as="geometry" />
        </mxCell>
        <mxCell id="ACQcI9eZP0zotltc9_C3-39" value="Lambda&lt;br&gt;Functions" style="sketch=0;points=[[0,0,0],[0.25,0,0],[0.5,0,0],[0.75,0,0],[1,0,0],[0,1,0],[0.25,1,0],[0.5,1,0],[0.75,1,0],[1,1,0],[0,0.25,0],[0,0.5,0],[0,0.75,0],[1,0.25,0],[1,0.5,0],[1,0.75,0]];outlineConnect=0;fontColor=#232F3E;gradientColor=#F78E04;gradientDirection=north;fillColor=#D05C17;strokeColor=#ffffff;dashed=0;verticalLabelPosition=bottom;verticalAlign=top;align=center;html=1;fontSize=12;fontStyle=0;aspect=fixed;shape=mxgraph.aws4.resourceIcon;resIcon=mxgraph.aws4.lambda;" vertex="1" parent="ACQcI9eZP0zotltc9_C3-1">
          <mxGeometry x="1720" y="2040" width="80" height="80" as="geometry" />
        </mxCell>
        <mxCell id="ACQcI9eZP0zotltc9_C3-40" value="Prod&lt;br&gt;Parameter Store" style="sketch=0;outlineConnect=0;fontColor=#232F3E;gradientColor=none;fillColor=#B0084D;strokeColor=none;dashed=0;verticalLabelPosition=bottom;verticalAlign=top;align=center;html=1;fontSize=12;fontStyle=0;pointerEvents=1;shape=mxgraph.aws4.parameter_store;" vertex="1" parent="ACQcI9eZP0zotltc9_C3-1">
          <mxGeometry x="1840" y="2040" width="80" height="80" as="geometry" />
        </mxCell>
        <mxCell id="ACQcI9eZP0zotltc9_C3-41" value="CloudFormation&lt;br&gt;Stack" style="sketch=0;points=[[0,0,0],[0.25,0,0],[0.5,0,0],[0.75,0,0],[1,0,0],[0,1,0],[0.25,1,0],[0.5,1,0],[0.75,1,0],[1,1,0],[0,0.25,0],[0,0.5,0],[0,0.75,0],[1,0.25,0],[1,0.5,0],[1,0.75,0]];points=[[0,0,0],[0.25,0,0],[0.5,0,0],[0.75,0,0],[1,0,0],[0,1,0],[0.25,1,0],[0.5,1,0],[0.75,1,0],[1,1,0],[0,0.25,0],[0,0.5,0],[0,0.75,0],[1,0.25,0],[1,0.5,0],[1,0.75,0]];outlineConnect=0;fontColor=#232F3E;gradientColor=#F34482;gradientDirection=north;fillColor=#BC1356;strokeColor=#ffffff;dashed=0;verticalLabelPosition=bottom;verticalAlign=top;align=center;html=1;fontSize=12;fontStyle=0;aspect=fixed;shape=mxgraph.aws4.resourceIcon;resIcon=mxgraph.aws4.cloudformation;" vertex="1" parent="ACQcI9eZP0zotltc9_C3-1">
          <mxGeometry x="1600" y="2040" width="80" height="80" as="geometry" />
        </mxCell>
        <mxCell id="ACQcI9eZP0zotltc9_C3-42" value="Deployer Role" style="sketch=0;outlineConnect=0;fontColor=#232F3E;gradientColor=none;fillColor=#277116;strokeColor=none;dashed=0;verticalLabelPosition=bottom;verticalAlign=top;align=center;html=1;fontSize=12;fontStyle=0;pointerEvents=1;shape=mxgraph.aws4.role;" vertex="1" parent="ACQcI9eZP0zotltc9_C3-1">
          <mxGeometry x="1480" y="2040" width="80" height="40" as="geometry" />
        </mxCell>
        <mxCell id="ACQcI9eZP0zotltc9_C3-43" style="edgeStyle=orthogonalEdgeStyle;rounded=0;orthogonalLoop=1;jettySize=auto;html=1;" edge="1" parent="ACQcI9eZP0zotltc9_C3-1" source="ACQcI9eZP0zotltc9_C3-13" target="ACQcI9eZP0zotltc9_C3-21">
          <mxGeometry relative="1" as="geometry" />
        </mxCell>
        <mxCell id="ACQcI9eZP0zotltc9_C3-44" style="edgeStyle=orthogonalEdgeStyle;rounded=0;orthogonalLoop=1;jettySize=auto;html=1;" edge="1" parent="ACQcI9eZP0zotltc9_C3-1" source="ACQcI9eZP0zotltc9_C3-13" target="ACQcI9eZP0zotltc9_C3-28">
          <mxGeometry relative="1" as="geometry">
            <Array as="points">
              <mxPoint x="1400" y="1340" />
              <mxPoint x="1400" y="1580" />
            </Array>
          </mxGeometry>
        </mxCell>
        <mxCell id="ACQcI9eZP0zotltc9_C3-45" style="edgeStyle=orthogonalEdgeStyle;rounded=0;orthogonalLoop=1;jettySize=auto;html=1;" edge="1" parent="ACQcI9eZP0zotltc9_C3-1" source="ACQcI9eZP0zotltc9_C3-13" target="ACQcI9eZP0zotltc9_C3-35">
          <mxGeometry relative="1" as="geometry">
            <Array as="points">
              <mxPoint x="1400" y="1340" />
              <mxPoint x="1400" y="1820" />
            </Array>
          </mxGeometry>
        </mxCell>
        <mxCell id="ACQcI9eZP0zotltc9_C3-46" value="Assume" style="edgeStyle=orthogonalEdgeStyle;rounded=0;orthogonalLoop=1;jettySize=auto;html=1;" edge="1" parent="ACQcI9eZP0zotltc9_C3-1" source="ACQcI9eZP0zotltc9_C3-13" target="ACQcI9eZP0zotltc9_C3-42">
          <mxGeometry relative="1" as="geometry">
            <Array as="points">
              <mxPoint x="1400" y="1340" />
              <mxPoint x="1400" y="2060" />
            </Array>
          </mxGeometry>
        </mxCell>
        <mxCell id="nQ7mtJOtqC-G7dQ93uwO-3" value="Environments" style="swimlane;whiteSpace=wrap;html=1;" vertex="1" parent="ACQcI9eZP0zotltc9_C3-1">
          <mxGeometry x="80" y="400" width="520" height="200" as="geometry" />
        </mxCell>
        <mxCell id="nQ7mtJOtqC-G7dQ93uwO-2" value="Sandbox&lt;br&gt;(sbx)" style="whiteSpace=wrap;html=1;aspect=fixed;fillColor=#dae8fc;strokeColor=#6c8ebf;" vertex="1" parent="nQ7mtJOtqC-G7dQ93uwO-3">
          <mxGeometry x="40" y="80" width="80" height="80" as="geometry" />
        </mxCell>
        <mxCell id="nQ7mtJOtqC-G7dQ93uwO-8" value="Test&lt;br&gt;(tst)" style="whiteSpace=wrap;html=1;aspect=fixed;fillColor=#d5e8d4;strokeColor=#82b366;" vertex="1" parent="nQ7mtJOtqC-G7dQ93uwO-3">
          <mxGeometry x="160" y="80" width="80" height="80" as="geometry" />
        </mxCell>
        <mxCell id="nQ7mtJOtqC-G7dQ93uwO-11" style="edgeStyle=orthogonalEdgeStyle;rounded=0;orthogonalLoop=1;jettySize=auto;html=1;exitX=1;exitY=0.5;exitDx=0;exitDy=0;entryX=0;entryY=0.5;entryDx=0;entryDy=0;" edge="1" parent="nQ7mtJOtqC-G7dQ93uwO-3" source="nQ7mtJOtqC-G7dQ93uwO-2" target="nQ7mtJOtqC-G7dQ93uwO-8">
          <mxGeometry relative="1" as="geometry" />
        </mxCell>
        <mxCell id="nQ7mtJOtqC-G7dQ93uwO-9" value="Staging&lt;br&gt;(stg)" style="whiteSpace=wrap;html=1;aspect=fixed;fillColor=#fff2cc;strokeColor=#d6b656;" vertex="1" parent="nQ7mtJOtqC-G7dQ93uwO-3">
          <mxGeometry x="280" y="80" width="80" height="80" as="geometry" />
        </mxCell>
        <mxCell id="nQ7mtJOtqC-G7dQ93uwO-12" style="edgeStyle=orthogonalEdgeStyle;rounded=0;orthogonalLoop=1;jettySize=auto;html=1;exitX=1;exitY=0.5;exitDx=0;exitDy=0;entryX=0;entryY=0.5;entryDx=0;entryDy=0;" edge="1" parent="nQ7mtJOtqC-G7dQ93uwO-3" source="nQ7mtJOtqC-G7dQ93uwO-8" target="nQ7mtJOtqC-G7dQ93uwO-9">
          <mxGeometry relative="1" as="geometry" />
        </mxCell>
        <mxCell id="nQ7mtJOtqC-G7dQ93uwO-10" value="Prod&lt;br&gt;(prd)" style="whiteSpace=wrap;html=1;aspect=fixed;fillColor=#f8cecc;strokeColor=#b85450;" vertex="1" parent="nQ7mtJOtqC-G7dQ93uwO-3">
          <mxGeometry x="400" y="80" width="80" height="80" as="geometry" />
        </mxCell>
        <mxCell id="nQ7mtJOtqC-G7dQ93uwO-13" style="edgeStyle=orthogonalEdgeStyle;rounded=0;orthogonalLoop=1;jettySize=auto;html=1;exitX=1;exitY=0.5;exitDx=0;exitDy=0;entryX=0;entryY=0.5;entryDx=0;entryDy=0;" edge="1" parent="nQ7mtJOtqC-G7dQ93uwO-3" source="nQ7mtJOtqC-G7dQ93uwO-9" target="nQ7mtJOtqC-G7dQ93uwO-10">
          <mxGeometry relative="1" as="geometry" />
        </mxCell>
        <mxCell id="nQ7mtJOtqC-G7dQ93uwO-4" value="Lambda&lt;br&gt;Functions" style="sketch=0;points=[[0,0,0],[0.25,0,0],[0.5,0,0],[0.75,0,0],[1,0,0],[0,1,0],[0.25,1,0],[0.5,1,0],[0.75,1,0],[1,1,0],[0,0.25,0],[0,0.5,0],[0,0.75,0],[1,0.25,0],[1,0.5,0],[1,0.75,0]];outlineConnect=0;gradientDirection=north;fillColor=#ffe6cc;strokeColor=#d79b00;dashed=0;verticalLabelPosition=bottom;verticalAlign=top;align=center;html=1;fontSize=12;fontStyle=0;aspect=fixed;shape=mxgraph.aws4.resourceIcon;resIcon=mxgraph.aws4.lambda;" vertex="1" parent="ACQcI9eZP0zotltc9_C3-1">
          <mxGeometry x="1680" y="2400" width="80" height="80" as="geometry" />
        </mxCell>
        <mxCell id="nQ7mtJOtqC-G7dQ93uwO-14" value="&lt;h1&gt;Single Account, Single Region, Multi Environments Setup&lt;/h1&gt;&lt;p&gt;In this setup, we has four environments, sandbox, test, staging and prod. All environments are in the same AWS account and same AWS region. They are isolated by the name space and IAM permissions.&lt;/p&gt;" style="text;html=1;strokeColor=default;fillColor=none;spacing=5;spacingTop=-20;whiteSpace=wrap;overflow=hidden;rounded=0;" vertex="1" parent="ACQcI9eZP0zotltc9_C3-1">
          <mxGeometry x="80" y="80" width="680" height="279" as="geometry" />
        </mxCell>
        <mxCell id="nQ7mtJOtqC-G7dQ93uwO-22" value="S3 Bucket" style="swimlane;whiteSpace=wrap;html=1;" vertex="1" parent="ACQcI9eZP0zotltc9_C3-1">
          <mxGeometry x="80" y="640" width="520" height="430" as="geometry" />
        </mxCell>
        <mxCell id="nQ7mtJOtqC-G7dQ93uwO-0" value="Code Artifacts&lt;br&gt;Bucket" style="sketch=0;points=[[0,0,0],[0.25,0,0],[0.5,0,0],[0.75,0,0],[1,0,0],[0,1,0],[0.25,1,0],[0.5,1,0],[0.75,1,0],[1,1,0],[0,0.25,0],[0,0.5,0],[0,0.75,0],[1,0.25,0],[1,0.5,0],[1,0.75,0]];outlineConnect=0;fontColor=#232F3E;gradientColor=#60A337;gradientDirection=north;fillColor=#277116;strokeColor=#ffffff;dashed=0;verticalLabelPosition=bottom;verticalAlign=top;align=center;html=1;fontSize=12;fontStyle=0;aspect=fixed;shape=mxgraph.aws4.resourceIcon;resIcon=mxgraph.aws4.s3;" vertex="1" parent="nQ7mtJOtqC-G7dQ93uwO-22">
          <mxGeometry x="40" y="80" width="80" height="80" as="geometry" />
        </mxCell>
        <mxCell id="nQ7mtJOtqC-G7dQ93uwO-1" value="App Data&lt;br&gt;sbx" style="sketch=0;points=[[0,0,0],[0.25,0,0],[0.5,0,0],[0.75,0,0],[1,0,0],[0,1,0],[0.25,1,0],[0.5,1,0],[0.75,1,0],[1,1,0],[0,0.25,0],[0,0.5,0],[0,0.75,0],[1,0.25,0],[1,0.5,0],[1,0.75,0]];outlineConnect=0;gradientDirection=north;fillColor=#dae8fc;strokeColor=#6c8ebf;dashed=0;verticalLabelPosition=bottom;verticalAlign=top;align=center;html=1;fontSize=12;fontStyle=0;aspect=fixed;shape=mxgraph.aws4.resourceIcon;resIcon=mxgraph.aws4.s3;" vertex="1" parent="nQ7mtJOtqC-G7dQ93uwO-22">
          <mxGeometry x="40" y="240" width="80" height="80" as="geometry" />
        </mxCell>
        <mxCell id="nQ7mtJOtqC-G7dQ93uwO-19" value="App Data&lt;br&gt;tst" style="sketch=0;points=[[0,0,0],[0.25,0,0],[0.5,0,0],[0.75,0,0],[1,0,0],[0,1,0],[0.25,1,0],[0.5,1,0],[0.75,1,0],[1,1,0],[0,0.25,0],[0,0.5,0],[0,0.75,0],[1,0.25,0],[1,0.5,0],[1,0.75,0]];outlineConnect=0;gradientDirection=north;fillColor=#d5e8d4;strokeColor=#82b366;dashed=0;verticalLabelPosition=bottom;verticalAlign=top;align=center;html=1;fontSize=12;fontStyle=0;aspect=fixed;shape=mxgraph.aws4.resourceIcon;resIcon=mxgraph.aws4.s3;" vertex="1" parent="nQ7mtJOtqC-G7dQ93uwO-22">
          <mxGeometry x="160" y="240" width="80" height="80" as="geometry" />
        </mxCell>
        <mxCell id="nQ7mtJOtqC-G7dQ93uwO-20" value="App Data&lt;br&gt;stg" style="sketch=0;points=[[0,0,0],[0.25,0,0],[0.5,0,0],[0.75,0,0],[1,0,0],[0,1,0],[0.25,1,0],[0.5,1,0],[0.75,1,0],[1,1,0],[0,0.25,0],[0,0.5,0],[0,0.75,0],[1,0.25,0],[1,0.5,0],[1,0.75,0]];outlineConnect=0;gradientDirection=north;fillColor=#fff2cc;strokeColor=#d6b656;dashed=0;verticalLabelPosition=bottom;verticalAlign=top;align=center;html=1;fontSize=12;fontStyle=0;aspect=fixed;shape=mxgraph.aws4.resourceIcon;resIcon=mxgraph.aws4.s3;" vertex="1" parent="nQ7mtJOtqC-G7dQ93uwO-22">
          <mxGeometry x="280" y="240" width="80" height="80" as="geometry" />
        </mxCell>
        <mxCell id="nQ7mtJOtqC-G7dQ93uwO-21" value="App Data&lt;br&gt;prd" style="sketch=0;points=[[0,0,0],[0.25,0,0],[0.5,0,0],[0.75,0,0],[1,0,0],[0,1,0],[0.25,1,0],[0.5,1,0],[0.75,1,0],[1,1,0],[0,0.25,0],[0,0.5,0],[0,0.75,0],[1,0.25,0],[1,0.5,0],[1,0.75,0]];outlineConnect=0;gradientDirection=north;fillColor=#f8cecc;strokeColor=#b85450;dashed=0;verticalLabelPosition=bottom;verticalAlign=top;align=center;html=1;fontSize=12;fontStyle=0;aspect=fixed;shape=mxgraph.aws4.resourceIcon;resIcon=mxgraph.aws4.s3;" vertex="1" parent="nQ7mtJOtqC-G7dQ93uwO-22">
          <mxGeometry x="400" y="240" width="80" height="80" as="geometry" />
        </mxCell>
        <mxCell id="HjMFWm3QQqRg6Sux3UhU-19" value="Lambda&#xa;Source Zip" style="shape=image;verticalLabelPosition=bottom;labelBackgroundColor=default;verticalAlign=top;aspect=fixed;imageAspect=0;image=data:image/svg+xml,PHN2ZyB4bWxucz0iaHR0cDovL3d3dy53My5vcmcvMjAwMC9zdmciIGhlaWdodD0iNDhweCIgd2lkdGg9IjQ4cHgiIHZpZXdCb3g9IjAgMCA0OCA0OCI+PHBhdGggZD0iTTE3IDI0TDcgMTcuNDY3YzAgMCAxLTEuODY1IDEtMy43MzJTNyAxMCA3IDEwbDEwIDYuNTMzVjI0ek0xNyA0MEw3IDMyLjUzM2MwIDAgMS0uOTM0IDEtMi44UzcgMjYgNyAyNmwxMCA2LjUzM1Y0MHpNMTcgMzJMNyAyNC41MzNjMCAwIDEtLjkzNCAxLTIuOFM3IDE4IDcgMThsMTAgNi41MzNWMzJ6IiBmaWxsPSIjQ0ZEOERDIi8+PHBhdGggZD0iTTE3LjYyNCwzNGMtMC4yMTksMC0wLjQ0LTAuMDcxLTAuNjI0LTAuMjE5bC0xMC42MjUtOGMtMC40MzItMC4zNDYtMC41MDEtMC45NzUtMC4xNTYtMS40MDZjMC4zNDQtMC40MzEsMC45NzUtMC41MDEsMS40MDUtMC4xNTZsMTAuNjI1LDhjMC40MzIsMC4zNDYsMC41MDEsMC45NzUsMC4xNTYsMS40MDZDMTguMjA4LDMzLjg3MSwxNy45MTcsMzQsMTcuNjI0LDM0eiIgZmlsbD0iIzNGNTFCNSIvPjxwYXRoIGQ9Ik00MiwyNUgxNmMwLDAsMSwxLjc0MiwxLDQuMjQ2UzE2LDMzLDE2LDMzaDI2YzAsMCwxLTEsMS00UzQyLDI1LDQyLDI1eiIgZmlsbD0iIzNGNTFCNSIvPjxwYXRoIGQ9Ik0xNy42MjQsMjZjLTAuMjE5LDAtMC40NC0wLjA3MS0wLjYyNC0wLjIxOWwtMTAuNjI1LThjLTAuNDMyLTAuMzQ2LTAuNTAxLTAuOTc1LTAuMTU2LTEuNDA2YzAuMzQ0LTAuNDMxLDAuOTc1LTAuNTAyLDEuNDA1LTAuMTU2bDEwLjYyNSw4YzAuNDMyLDAuMzQ2LDAuNTAxLDAuOTc1LDAuMTU2LDEuNDA2QzE4LjIwOCwyNS44NzEsMTcuOTE3LDI2LDE3LjYyNCwyNnoiIGZpbGw9IiM5QzI3QjAiLz48cGF0aCBkPSJNNDIsMTdIMTZjMCwwLDEsMS43NDIsMSw0LjI0NlMxNiwyNSwxNiwyNWgyNmMwLDAsMS0xLDEtNFM0MiwxNyw0MiwxN3oiIGZpbGw9IiM5QzI3QjAiLz48cGF0aCBkPSJNMTguNjA5LDQxYzAtMC4yOTMtMC4xMTMtMC41ODQtMC4zNi0wLjc4MWwtMTAuNjI1LThjLTAuNDMtMC4zNDUtMS4wNjEtMC4yNzQtMS40MDUsMC4xNTZjLTAuMzQ1LDAuNDMyLTAuMjc1LDEuMDYxLDAuMTU2LDEuNDA2TDE1Ljk2Miw0MUgxOC42MDl6IiBmaWxsPSIjOEJDMzRBIi8+PHBhdGggZD0iTTQyLDMzSDE2YzAsMCwxLDEuNzQyLDEsNC4yNDZTMTYsNDEsMTYsNDFoMjZjMCwwLDEtMSwxLTRTNDIsMzMsNDIsMzN6IiBmaWxsPSIjOEJDMzRBIi8+PHBhdGggZD0iTTQyLDMzSDE2YzAsMCwwLjQ0MSwwLjc1NiwwLjczMywyaDI2LjAzNUM0Mi40NzMsMzMuNTU5LDQyLDMzLDQyLDMzeiIgZmlsbD0iIzY4OUYzOCIvPjxwYXRoIGQ9Ik00MiwyNUgxNmMwLDAsMC40NDEsMC43NTYsMC43MzMsMmgyNi4wMzVDNDIuNDczLDI1LjU1OSw0MiwyNSw0MiwyNXoiIGZpbGw9IiMzMDNGOUYiLz48cGF0aCBkPSJNMjEuMDM0IDMyYy4xMS0uNDUuMjk5LTEuMzc5LjI5OS0yLjVzLS4xODktMi4wNS0uMjk5LTIuNUgxOWMuMDAzLjAwOS4zMzMgMS4yNjcuMzMzIDIuNVMxOS4wMDIgMzEuOTkzIDE5IDMySDIxLjAzNHpNMjEuMDM0IDI0Yy4xMS0uNDUuMjk5LTEuMzc5LjI5OS0yLjVzLS4xODktMi4wNS0uMjk5LTIuNUgxOWMuMDAzLjAwOS4zMzMgMS4yNjcuMzMzIDIuNVMxOS4wMDIgMjMuOTkzIDE5IDI0SDIxLjAzNHpNMjEuMDM0IDQwYy4xMS0uNDUuMjk5LTEuMzc5LjI5OS0yLjVzLS4xODktMi4wNS0uMjk5LTIuNUgxOWMuMDAzLjAwOS4zMzMgMS4yNjcuMzMzIDIuNVMxOS4wMDIgMzkuOTkzIDE5IDQwSDIxLjAzNHoiIGZpbGw9IiNGREQ4MzUiLz48cGF0aCBkPSJNNDIuNzY4LDE5QzQyLjQ3MywxNy41NTksNDIsMTcsNDIsMTdMMzAuODQ0LDguNTkxQzMwLjg0NCw4LjU5MSwzMC4wNjMsOCwyOSw4QzI3Ljc3MSw4LDcsOCw3LDhsMC4wMTgsMC4wMThDNi43MDMsOC4wMTIsNi4zOSw4LjEzNyw2LjE5MSw4LjQxMmMtMC4zMjUsMC40NDYtMC4yMjYsMS4wNzIsMC4yMiwxLjM5Nmw5LjczNyw3LjQ3YzAuMTYxLDAuMzI1LDAuNDE4LDAuOTIsMC42MDcsMS43MjJINDIuNzY4eiIgZmlsbD0iIzdCMUZBMiIvPjxwYXRoIGQ9Ik0zMiwxNkwyMSw4aC01bDExLDhjMS43NSwxLjI1LDIsMS42MjUsMiwzczAsMTksMCwxOXMwLDMtMiwzYzEuMDU2LDAsMy42NzgsMCw1LDBjMiwwLDItMywyLTNzMC0xOCwwLTE5QzM0LDE3LDMyLjQzOCwxNi40MzgsMzIsMTZ6IiBmaWxsPSIjQUY3MDAwIi8+PGc+PHBhdGggZD0iTTM0LDI3djRoLTV2LTRIMzQgTTM0LjI1LDI2aC01LjVDMjguMzM2LDI2LDI4LDI2LjMzNiwyOCwyNi43NXY0LjVjMCwwLjQxNCwwLjMzNiwwLjc1LDAuNzUsMC43NWg1LjVjMC40MTQsMCwwLjc1LTAuMzM2LDAuNzUtMC43NXYtNC41QzM1LDI2LjMzNiwzNC42NjQsMjYsMzQuMjUsMjZMMzQuMjUsMjZ6IiBmaWxsPSIjRkZDMTA3Ii8+PC9nPjxwYXRoIGQ9Ik0zMS41IDI4LjVBMC41IDAuNSAwIDEgMCAzMS41IDI5LjVBMC41IDAuNSAwIDEgMCAzMS41IDI4LjVaIiBmaWxsPSIjNUIzQjA3Ii8+PHBhdGggZD0iTTMxLjUsMjljLTAuMjc2LDAtMC41LTAuMjI0LTAuNS0wLjV2LTNjMC0wLjI3NiwwLjIyNC0wLjUsMC41LTAuNXMwLjUsMC4yMjQsMC41LDAuNXYzQzMyLDI4Ljc3NiwzMS43NzYsMjksMzEuNSwyOXoiIGZpbGw9IiNGRkVCM0IiLz48L3N2Zz4=;" vertex="1" parent="nQ7mtJOtqC-G7dQ93uwO-22">
          <mxGeometry x="160" y="80" width="80" height="80" as="geometry" />
        </mxCell>
        <mxCell id="HjMFWm3QQqRg6Sux3UhU-20" value="Lambda&#xa;Layer Zip" style="shape=image;verticalLabelPosition=bottom;labelBackgroundColor=default;verticalAlign=top;aspect=fixed;imageAspect=0;image=data:image/svg+xml,PHN2ZyB4bWxucz0iaHR0cDovL3d3dy53My5vcmcvMjAwMC9zdmciIGhlaWdodD0iNDhweCIgd2lkdGg9IjQ4cHgiIHZpZXdCb3g9IjAgMCA0OCA0OCI+PHBhdGggZD0iTTE3IDI0TDcgMTcuNDY3YzAgMCAxLTEuODY1IDEtMy43MzJTNyAxMCA3IDEwbDEwIDYuNTMzVjI0ek0xNyA0MEw3IDMyLjUzM2MwIDAgMS0uOTM0IDEtMi44UzcgMjYgNyAyNmwxMCA2LjUzM1Y0MHpNMTcgMzJMNyAyNC41MzNjMCAwIDEtLjkzNCAxLTIuOFM3IDE4IDcgMThsMTAgNi41MzNWMzJ6IiBmaWxsPSIjQ0ZEOERDIi8+PHBhdGggZD0iTTE3LjYyNCwzNGMtMC4yMTksMC0wLjQ0LTAuMDcxLTAuNjI0LTAuMjE5bC0xMC42MjUtOGMtMC40MzItMC4zNDYtMC41MDEtMC45NzUtMC4xNTYtMS40MDZjMC4zNDQtMC40MzEsMC45NzUtMC41MDEsMS40MDUtMC4xNTZsMTAuNjI1LDhjMC40MzIsMC4zNDYsMC41MDEsMC45NzUsMC4xNTYsMS40MDZDMTguMjA4LDMzLjg3MSwxNy45MTcsMzQsMTcuNjI0LDM0eiIgZmlsbD0iIzNGNTFCNSIvPjxwYXRoIGQ9Ik00MiwyNUgxNmMwLDAsMSwxLjc0MiwxLDQuMjQ2UzE2LDMzLDE2LDMzaDI2YzAsMCwxLTEsMS00UzQyLDI1LDQyLDI1eiIgZmlsbD0iIzNGNTFCNSIvPjxwYXRoIGQ9Ik0xNy42MjQsMjZjLTAuMjE5LDAtMC40NC0wLjA3MS0wLjYyNC0wLjIxOWwtMTAuNjI1LThjLTAuNDMyLTAuMzQ2LTAuNTAxLTAuOTc1LTAuMTU2LTEuNDA2YzAuMzQ0LTAuNDMxLDAuOTc1LTAuNTAyLDEuNDA1LTAuMTU2bDEwLjYyNSw4YzAuNDMyLDAuMzQ2LDAuNTAxLDAuOTc1LDAuMTU2LDEuNDA2QzE4LjIwOCwyNS44NzEsMTcuOTE3LDI2LDE3LjYyNCwyNnoiIGZpbGw9IiM5QzI3QjAiLz48cGF0aCBkPSJNNDIsMTdIMTZjMCwwLDEsMS43NDIsMSw0LjI0NlMxNiwyNSwxNiwyNWgyNmMwLDAsMS0xLDEtNFM0MiwxNyw0MiwxN3oiIGZpbGw9IiM5QzI3QjAiLz48cGF0aCBkPSJNMTguNjA5LDQxYzAtMC4yOTMtMC4xMTMtMC41ODQtMC4zNi0wLjc4MWwtMTAuNjI1LThjLTAuNDMtMC4zNDUtMS4wNjEtMC4yNzQtMS40MDUsMC4xNTZjLTAuMzQ1LDAuNDMyLTAuMjc1LDEuMDYxLDAuMTU2LDEuNDA2TDE1Ljk2Miw0MUgxOC42MDl6IiBmaWxsPSIjOEJDMzRBIi8+PHBhdGggZD0iTTQyLDMzSDE2YzAsMCwxLDEuNzQyLDEsNC4yNDZTMTYsNDEsMTYsNDFoMjZjMCwwLDEtMSwxLTRTNDIsMzMsNDIsMzN6IiBmaWxsPSIjOEJDMzRBIi8+PHBhdGggZD0iTTQyLDMzSDE2YzAsMCwwLjQ0MSwwLjc1NiwwLjczMywyaDI2LjAzNUM0Mi40NzMsMzMuNTU5LDQyLDMzLDQyLDMzeiIgZmlsbD0iIzY4OUYzOCIvPjxwYXRoIGQ9Ik00MiwyNUgxNmMwLDAsMC40NDEsMC43NTYsMC43MzMsMmgyNi4wMzVDNDIuNDczLDI1LjU1OSw0MiwyNSw0MiwyNXoiIGZpbGw9IiMzMDNGOUYiLz48cGF0aCBkPSJNMjEuMDM0IDMyYy4xMS0uNDUuMjk5LTEuMzc5LjI5OS0yLjVzLS4xODktMi4wNS0uMjk5LTIuNUgxOWMuMDAzLjAwOS4zMzMgMS4yNjcuMzMzIDIuNVMxOS4wMDIgMzEuOTkzIDE5IDMySDIxLjAzNHpNMjEuMDM0IDI0Yy4xMS0uNDUuMjk5LTEuMzc5LjI5OS0yLjVzLS4xODktMi4wNS0uMjk5LTIuNUgxOWMuMDAzLjAwOS4zMzMgMS4yNjcuMzMzIDIuNVMxOS4wMDIgMjMuOTkzIDE5IDI0SDIxLjAzNHpNMjEuMDM0IDQwYy4xMS0uNDUuMjk5LTEuMzc5LjI5OS0yLjVzLS4xODktMi4wNS0uMjk5LTIuNUgxOWMuMDAzLjAwOS4zMzMgMS4yNjcuMzMzIDIuNVMxOS4wMDIgMzkuOTkzIDE5IDQwSDIxLjAzNHoiIGZpbGw9IiNGREQ4MzUiLz48cGF0aCBkPSJNNDIuNzY4LDE5QzQyLjQ3MywxNy41NTksNDIsMTcsNDIsMTdMMzAuODQ0LDguNTkxQzMwLjg0NCw4LjU5MSwzMC4wNjMsOCwyOSw4QzI3Ljc3MSw4LDcsOCw3LDhsMC4wMTgsMC4wMThDNi43MDMsOC4wMTIsNi4zOSw4LjEzNyw2LjE5MSw4LjQxMmMtMC4zMjUsMC40NDYtMC4yMjYsMS4wNzIsMC4yMiwxLjM5Nmw5LjczNyw3LjQ3YzAuMTYxLDAuMzI1LDAuNDE4LDAuOTIsMC42MDcsMS43MjJINDIuNzY4eiIgZmlsbD0iIzdCMUZBMiIvPjxwYXRoIGQ9Ik0zMiwxNkwyMSw4aC01bDExLDhjMS43NSwxLjI1LDIsMS42MjUsMiwzczAsMTksMCwxOXMwLDMtMiwzYzEuMDU2LDAsMy42NzgsMCw1LDBjMiwwLDItMywyLTNzMC0xOCwwLTE5QzM0LDE3LDMyLjQzOCwxNi40MzgsMzIsMTZ6IiBmaWxsPSIjQUY3MDAwIi8+PGc+PHBhdGggZD0iTTM0LDI3djRoLTV2LTRIMzQgTTM0LjI1LDI2aC01LjVDMjguMzM2LDI2LDI4LDI2LjMzNiwyOCwyNi43NXY0LjVjMCwwLjQxNCwwLjMzNiwwLjc1LDAuNzUsMC43NWg1LjVjMC40MTQsMCwwLjc1LTAuMzM2LDAuNzUtMC43NXYtNC41QzM1LDI2LjMzNiwzNC42NjQsMjYsMzQuMjUsMjZMMzQuMjUsMjZ6IiBmaWxsPSIjRkZDMTA3Ii8+PC9nPjxwYXRoIGQ9Ik0zMS41IDI4LjVBMC41IDAuNSAwIDEgMCAzMS41IDI5LjVBMC41IDAuNSAwIDEgMCAzMS41IDI4LjVaIiBmaWxsPSIjNUIzQjA3Ii8+PHBhdGggZD0iTTMxLjUsMjljLTAuMjc2LDAtMC41LTAuMjI0LTAuNS0wLjV2LTNjMC0wLjI3NiwwLjIyNC0wLjUsMC41LTAuNXMwLjUsMC4yMjQsMC41LDAuNXYzQzMyLDI4Ljc3NiwzMS43NzYsMjksMzEuNSwyOXoiIGZpbGw9IiNGRkVCM0IiLz48L3N2Zz4=;" vertex="1" parent="nQ7mtJOtqC-G7dQ93uwO-22">
          <mxGeometry x="280" y="80" width="80" height="80" as="geometry" />
        </mxCell>
        <mxCell id="HjMFWm3QQqRg6Sux3UhU-21" value="" style="rounded=0;whiteSpace=wrap;html=1;fillColor=none;dashed=1;" vertex="1" parent="nQ7mtJOtqC-G7dQ93uwO-22">
          <mxGeometry x="20" y="210" width="360" height="160" as="geometry" />
        </mxCell>
        <mxCell id="HjMFWm3QQqRg6Sux3UhU-23" value="Deployed.json" style="dashed=0;outlineConnect=0;html=1;align=center;labelPosition=center;verticalLabelPosition=bottom;verticalAlign=top;shape=mxgraph.weblogos.json" vertex="1" parent="nQ7mtJOtqC-G7dQ93uwO-22">
          <mxGeometry x="400" y="80" width="80" height="80" as="geometry" />
        </mxCell>
        <mxCell id="nQ7mtJOtqC-G7dQ93uwO-24" value="CodePipeline" style="sketch=0;points=[[0,0,0],[0.25,0,0],[0.5,0,0],[0.75,0,0],[1,0,0],[0,1,0],[0.25,1,0],[0.5,1,0],[0.75,1,0],[1,1,0],[0,0.25,0],[0,0.5,0],[0,0.75,0],[1,0.25,0],[1,0.5,0],[1,0.75,0]];outlineConnect=0;fontColor=#232F3E;gradientColor=#4D72F3;gradientDirection=north;fillColor=#3334B9;strokeColor=#ffffff;dashed=0;verticalLabelPosition=bottom;verticalAlign=top;align=center;html=1;fontSize=12;fontStyle=0;aspect=fixed;shape=mxgraph.aws4.resourceIcon;resIcon=mxgraph.aws4.codebuild;" vertex="1" parent="ACQcI9eZP0zotltc9_C3-1">
          <mxGeometry x="620" y="1430" width="80" height="80" as="geometry" />
        </mxCell>
        <mxCell id="nQ7mtJOtqC-G7dQ93uwO-25" value="CodeBuild&lt;br&gt;Project" style="sketch=0;points=[[0,0,0],[0.25,0,0],[0.5,0,0],[0.75,0,0],[1,0,0],[0,1,0],[0.25,1,0],[0.5,1,0],[0.75,1,0],[1,1,0],[0,0.25,0],[0,0.5,0],[0,0.75,0],[1,0.25,0],[1,0.5,0],[1,0.75,0]];outlineConnect=0;fontColor=#232F3E;gradientColor=#4D72F3;gradientDirection=north;fillColor=#3334B9;strokeColor=#ffffff;dashed=0;verticalLabelPosition=bottom;verticalAlign=top;align=center;html=1;fontSize=12;fontStyle=0;aspect=fixed;shape=mxgraph.aws4.resourceIcon;resIcon=mxgraph.aws4.codepipeline;" vertex="1" parent="ACQcI9eZP0zotltc9_C3-1">
          <mxGeometry x="560" y="1640" width="80" height="80" as="geometry" />
        </mxCell>
        <mxCell id="HjMFWm3QQqRg6Sux3UhU-11" value="Git Repo Folder Structure" style="swimlane;whiteSpace=wrap;html=1;" vertex="1" parent="ACQcI9eZP0zotltc9_C3-1">
          <mxGeometry x="30" y="1120" width="640" height="240" as="geometry" />
        </mxCell>
        <mxCell id="HjMFWm3QQqRg6Sux3UhU-2" value="CodeCommit&lt;br&gt;Repository" style="sketch=0;points=[[0,0,0],[0.25,0,0],[0.5,0,0],[0.75,0,0],[1,0,0],[0,1,0],[0.25,1,0],[0.5,1,0],[0.75,1,0],[1,1,0],[0,0.25,0],[0,0.5,0],[0,0.75,0],[1,0.25,0],[1,0.5,0],[1,0.75,0]];outlineConnect=0;fontColor=#232F3E;gradientColor=#4D72F3;gradientDirection=north;fillColor=#3334B9;strokeColor=#ffffff;dashed=0;verticalLabelPosition=bottom;verticalAlign=top;align=center;html=1;fontSize=12;fontStyle=0;aspect=fixed;shape=mxgraph.aws4.resourceIcon;resIcon=mxgraph.aws4.codecommit;" vertex="1" parent="HjMFWm3QQqRg6Sux3UhU-11">
          <mxGeometry x="40" y="80" width="80" height="80" as="geometry" />
        </mxCell>
        <mxCell id="HjMFWm3QQqRg6Sux3UhU-7" value="Shared" style="shape=image;verticalLabelPosition=bottom;labelBackgroundColor=default;verticalAlign=top;aspect=fixed;imageAspect=0;image=data:image/svg+xml,PHN2ZyB4bWxucz0iaHR0cDovL3d3dy53My5vcmcvMjAwMC9zdmciIGhlaWdodD0iNDhweCIgd2lkdGg9IjQ4cHgiIHZpZXdCb3g9IjAgMCA0OCA0OCI+PHBhdGggZD0iTTQwLDEySDIybC00LTRIOGMtMi4yLDAtNCwxLjgtNCw0djhoNDB2LTRDNDQsMTMuOCw0Mi4yLDEyLDQwLDEyeiIgZmlsbD0iI0ZGQTAwMCIvPjxwYXRoIGQ9Ik00MCwxMkg4Yy0yLjIsMC00LDEuOC00LDR2MjBjMCwyLjIsMS44LDQsNCw0aDMyYzIuMiwwLDQtMS44LDQtNFYxNkM0NCwxMy44LDQyLjIsMTIsNDAsMTJ6IiBmaWxsPSIjRkZDQTI4Ii8+PC9zdmc+;" vertex="1" parent="HjMFWm3QQqRg6Sux3UhU-11">
          <mxGeometry x="160" y="80" width="80" height="80" as="geometry" />
        </mxCell>
        <mxCell id="HjMFWm3QQqRg6Sux3UhU-8" value="Project1" style="shape=image;verticalLabelPosition=bottom;labelBackgroundColor=default;verticalAlign=top;aspect=fixed;imageAspect=0;image=data:image/svg+xml,PHN2ZyB4bWxucz0iaHR0cDovL3d3dy53My5vcmcvMjAwMC9zdmciIGhlaWdodD0iNDhweCIgd2lkdGg9IjQ4cHgiIHZpZXdCb3g9IjAgMCA0OCA0OCI+PHBhdGggZD0iTTQwLDEySDIybC00LTRIOGMtMi4yLDAtNCwxLjgtNCw0djhoNDB2LTRDNDQsMTMuOCw0Mi4yLDEyLDQwLDEyeiIgZmlsbD0iI0ZGQTAwMCIvPjxwYXRoIGQ9Ik00MCwxMkg4Yy0yLjIsMC00LDEuOC00LDR2MjBjMCwyLjIsMS44LDQsNCw0aDMyYzIuMiwwLDQtMS44LDQtNFYxNkM0NCwxMy44LDQyLjIsMTIsNDAsMTJ6IiBmaWxsPSIjRkZDQTI4Ii8+PC9zdmc+;" vertex="1" parent="HjMFWm3QQqRg6Sux3UhU-11">
          <mxGeometry x="280" y="80" width="80" height="80" as="geometry" />
        </mxCell>
        <mxCell id="HjMFWm3QQqRg6Sux3UhU-9" value="Project2" style="shape=image;verticalLabelPosition=bottom;labelBackgroundColor=default;verticalAlign=top;aspect=fixed;imageAspect=0;image=data:image/svg+xml,PHN2ZyB4bWxucz0iaHR0cDovL3d3dy53My5vcmcvMjAwMC9zdmciIGhlaWdodD0iNDhweCIgd2lkdGg9IjQ4cHgiIHZpZXdCb3g9IjAgMCA0OCA0OCI+PHBhdGggZD0iTTQwLDEySDIybC00LTRIOGMtMi4yLDAtNCwxLjgtNCw0djhoNDB2LTRDNDQsMTMuOCw0Mi4yLDEyLDQwLDEyeiIgZmlsbD0iI0ZGQTAwMCIvPjxwYXRoIGQ9Ik00MCwxMkg4Yy0yLjIsMC00LDEuOC00LDR2MjBjMCwyLjIsMS44LDQsNCw0aDMyYzIuMiwwLDQtMS44LDQtNFYxNkM0NCwxMy44LDQyLjIsMTIsNDAsMTJ6IiBmaWxsPSIjRkZDQTI4Ii8+PC9zdmc+;" vertex="1" parent="HjMFWm3QQqRg6Sux3UhU-11">
          <mxGeometry x="400" y="80" width="80" height="80" as="geometry" />
        </mxCell>
        <mxCell id="HjMFWm3QQqRg6Sux3UhU-10" value="Project3" style="shape=image;verticalLabelPosition=bottom;labelBackgroundColor=default;verticalAlign=top;aspect=fixed;imageAspect=0;image=data:image/svg+xml,PHN2ZyB4bWxucz0iaHR0cDovL3d3dy53My5vcmcvMjAwMC9zdmciIGhlaWdodD0iNDhweCIgd2lkdGg9IjQ4cHgiIHZpZXdCb3g9IjAgMCA0OCA0OCI+PHBhdGggZD0iTTQwLDEySDIybC00LTRIOGMtMi4yLDAtNCwxLjgtNCw0djhoNDB2LTRDNDQsMTMuOCw0Mi4yLDEyLDQwLDEyeiIgZmlsbD0iI0ZGQTAwMCIvPjxwYXRoIGQ9Ik00MCwxMkg4Yy0yLjIsMC00LDEuOC00LDR2MjBjMCwyLjIsMS44LDQsNCw0aDMyYzIuMiwwLDQtMS44LDQtNFYxNkM0NCwxMy44LDQyLjIsMTIsNDAsMTJ6IiBmaWxsPSIjRkZDQTI4Ii8+PC9zdmc+;" vertex="1" parent="HjMFWm3QQqRg6Sux3UhU-11">
          <mxGeometry x="520" y="80" width="80" height="80" as="geometry" />
        </mxCell>
        <mxCell id="HjMFWm3QQqRg6Sux3UhU-72" style="edgeStyle=orthogonalEdgeStyle;rounded=0;orthogonalLoop=1;jettySize=auto;html=1;exitX=1;exitY=0.5;exitDx=0;exitDy=0;exitPerimeter=0;entryX=0;entryY=0.5;entryDx=0;entryDy=0;entryPerimeter=0;" edge="1" parent="ACQcI9eZP0zotltc9_C3-1" source="HjMFWm3QQqRg6Sux3UhU-12" target="HjMFWm3QQqRg6Sux3UhU-13">
          <mxGeometry relative="1" as="geometry" />
        </mxCell>
        <mxCell id="HjMFWm3QQqRg6Sux3UhU-12" value="Event Bridge" style="sketch=0;points=[[0,0,0],[0.25,0,0],[0.5,0,0],[0.75,0,0],[1,0,0],[0,1,0],[0.25,1,0],[0.5,1,0],[0.75,1,0],[1,1,0],[0,0.25,0],[0,0.5,0],[0,0.75,0],[1,0.25,0],[1,0.5,0],[1,0.75,0]];outlineConnect=0;fontColor=#232F3E;gradientColor=#FF4F8B;gradientDirection=north;fillColor=#BC1356;strokeColor=#ffffff;dashed=0;verticalLabelPosition=bottom;verticalAlign=top;align=center;html=1;fontSize=12;fontStyle=0;aspect=fixed;shape=mxgraph.aws4.resourceIcon;resIcon=mxgraph.aws4.eventbridge;" vertex="1" parent="ACQcI9eZP0zotltc9_C3-1">
          <mxGeometry x="240" y="1640" width="80" height="80" as="geometry" />
        </mxCell>
        <mxCell id="HjMFWm3QQqRg6Sux3UhU-73" style="edgeStyle=orthogonalEdgeStyle;rounded=0;orthogonalLoop=1;jettySize=auto;html=1;exitX=1;exitY=0.5;exitDx=0;exitDy=0;exitPerimeter=0;entryX=0;entryY=0.5;entryDx=0;entryDy=0;entryPerimeter=0;" edge="1" parent="ACQcI9eZP0zotltc9_C3-1" source="HjMFWm3QQqRg6Sux3UhU-13" target="nQ7mtJOtqC-G7dQ93uwO-25">
          <mxGeometry relative="1" as="geometry" />
        </mxCell>
        <mxCell id="HjMFWm3QQqRg6Sux3UhU-13" value="Lambda Function" style="sketch=0;points=[[0,0,0],[0.25,0,0],[0.5,0,0],[0.75,0,0],[1,0,0],[0,1,0],[0.25,1,0],[0.5,1,0],[0.75,1,0],[1,1,0],[0,0.25,0],[0,0.5,0],[0,0.75,0],[1,0.25,0],[1,0.5,0],[1,0.75,0]];outlineConnect=0;fontColor=#232F3E;gradientColor=#F78E04;gradientDirection=north;fillColor=#D05C17;strokeColor=#ffffff;dashed=0;verticalLabelPosition=bottom;verticalAlign=top;align=center;html=1;fontSize=12;fontStyle=0;aspect=fixed;shape=mxgraph.aws4.resourceIcon;resIcon=mxgraph.aws4.lambda;" vertex="1" parent="ACQcI9eZP0zotltc9_C3-1">
          <mxGeometry x="400" y="1640" width="80" height="80" as="geometry" />
        </mxCell>
        <mxCell id="HjMFWm3QQqRg6Sux3UhU-64" value="Project 1 Code Pipeline" style="swimlane;whiteSpace=wrap;html=1;" vertex="1" parent="ACQcI9eZP0zotltc9_C3-1">
          <mxGeometry x="520" y="2240" width="520" height="1120" as="geometry" />
        </mxCell>
        <mxCell id="HjMFWm3QQqRg6Sux3UhU-34" value="" style="rounded=0;whiteSpace=wrap;html=1;fillColor=none;dashed=1;" vertex="1" parent="HjMFWm3QQqRg6Sux3UhU-64">
          <mxGeometry x="200" y="200" width="280" height="160" as="geometry" />
        </mxCell>
        <mxCell id="HjMFWm3QQqRg6Sux3UhU-14" value="CodeBuild &lt;br&gt;Project1" style="sketch=0;points=[[0,0,0],[0.25,0,0],[0.5,0,0],[0.75,0,0],[1,0,0],[0,1,0],[0.25,1,0],[0.5,1,0],[0.75,1,0],[1,1,0],[0,0.25,0],[0,0.5,0],[0,0.75,0],[1,0.25,0],[1,0.5,0],[1,0.75,0]];outlineConnect=0;fontColor=#232F3E;gradientColor=#4D72F3;gradientDirection=north;fillColor=#3334B9;strokeColor=#ffffff;dashed=0;verticalLabelPosition=bottom;verticalAlign=top;align=center;html=1;fontSize=12;fontStyle=0;aspect=fixed;shape=mxgraph.aws4.resourceIcon;resIcon=mxgraph.aws4.codebuild;" vertex="1" parent="HjMFWm3QQqRg6Sux3UhU-64">
          <mxGeometry x="360" y="80" width="80" height="80" as="geometry" />
        </mxCell>
        <mxCell id="HjMFWm3QQqRg6Sux3UhU-24" value="Lambda&lt;br&gt;Functions" style="sketch=0;points=[[0,0,0],[0.25,0,0],[0.5,0,0],[0.75,0,0],[1,0,0],[0,1,0],[0.25,1,0],[0.5,1,0],[0.75,1,0],[1,1,0],[0,0.25,0],[0,0.5,0],[0,0.75,0],[1,0.25,0],[1,0.5,0],[1,0.75,0]];outlineConnect=0;gradientDirection=north;fillColor=#dae8fc;strokeColor=#6c8ebf;dashed=0;verticalLabelPosition=bottom;verticalAlign=top;align=center;html=1;fontSize=12;fontStyle=0;aspect=fixed;shape=mxgraph.aws4.resourceIcon;resIcon=mxgraph.aws4.lambda;" vertex="1" parent="HjMFWm3QQqRg6Sux3UhU-64">
          <mxGeometry x="360" y="240" width="80" height="80" as="geometry" />
        </mxCell>
        <mxCell id="HjMFWm3QQqRg6Sux3UhU-27" value="CodePipeline &lt;br&gt;Project1" style="sketch=0;points=[[0,0,0],[0.25,0,0],[0.5,0,0],[0.75,0,0],[1,0,0],[0,1,0],[0.25,1,0],[0.5,1,0],[0.75,1,0],[1,1,0],[0,0.25,0],[0,0.5,0],[0,0.75,0],[1,0.25,0],[1,0.5,0],[1,0.75,0]];outlineConnect=0;fontColor=#232F3E;gradientColor=#4D72F3;gradientDirection=north;fillColor=#3334B9;strokeColor=#ffffff;dashed=0;verticalLabelPosition=bottom;verticalAlign=top;align=center;html=1;fontSize=12;fontStyle=0;aspect=fixed;shape=mxgraph.aws4.resourceIcon;resIcon=mxgraph.aws4.codepipeline;" vertex="1" parent="HjMFWm3QQqRg6Sux3UhU-64">
          <mxGeometry x="240" y="80" width="80" height="80" as="geometry" />
        </mxCell>
        <mxCell id="HjMFWm3QQqRg6Sux3UhU-41" style="edgeStyle=orthogonalEdgeStyle;rounded=0;orthogonalLoop=1;jettySize=auto;html=1;exitX=1;exitY=0.5;exitDx=0;exitDy=0;exitPerimeter=0;entryX=0;entryY=0.5;entryDx=0;entryDy=0;" edge="1" parent="HjMFWm3QQqRg6Sux3UhU-64" source="HjMFWm3QQqRg6Sux3UhU-38" target="HjMFWm3QQqRg6Sux3UhU-34">
          <mxGeometry relative="1" as="geometry" />
        </mxCell>
        <mxCell id="HjMFWm3QQqRg6Sux3UhU-38" value="Build Job Run" style="sketch=0;points=[[0,0,0],[0.25,0,0],[0.5,0,0],[0.75,0,0],[1,0,0],[0,1,0],[0.25,1,0],[0.5,1,0],[0.75,1,0],[1,1,0],[0,0.25,0],[0,0.5,0],[0,0.75,0],[1,0.25,0],[1,0.5,0],[1,0.75,0]];outlineConnect=0;gradientDirection=north;fillColor=#dae8fc;strokeColor=#6c8ebf;dashed=0;verticalLabelPosition=bottom;verticalAlign=top;align=center;html=1;fontSize=12;fontStyle=0;aspect=fixed;shape=mxgraph.aws4.resourceIcon;resIcon=mxgraph.aws4.codebuild;" vertex="1" parent="HjMFWm3QQqRg6Sux3UhU-64">
          <mxGeometry x="80" y="240" width="80" height="80" as="geometry" />
        </mxCell>
        <mxCell id="HjMFWm3QQqRg6Sux3UhU-39" value="CloudFormation&lt;br&gt;Stack" style="sketch=0;points=[[0,0,0],[0.25,0,0],[0.5,0,0],[0.75,0,0],[1,0,0],[0,1,0],[0.25,1,0],[0.5,1,0],[0.75,1,0],[1,1,0],[0,0.25,0],[0,0.5,0],[0,0.75,0],[1,0.25,0],[1,0.5,0],[1,0.75,0]];points=[[0,0,0],[0.25,0,0],[0.5,0,0],[0.75,0,0],[1,0,0],[0,1,0],[0.25,1,0],[0.5,1,0],[0.75,1,0],[1,1,0],[0,0.25,0],[0,0.5,0],[0,0.75,0],[1,0.25,0],[1,0.5,0],[1,0.75,0]];outlineConnect=0;gradientDirection=north;fillColor=#dae8fc;strokeColor=#6c8ebf;dashed=0;verticalLabelPosition=bottom;verticalAlign=top;align=center;html=1;fontSize=12;fontStyle=0;aspect=fixed;shape=mxgraph.aws4.resourceIcon;resIcon=mxgraph.aws4.cloudformation;" vertex="1" parent="HjMFWm3QQqRg6Sux3UhU-64">
          <mxGeometry x="240" y="240" width="80" height="80" as="geometry" />
        </mxCell>
        <mxCell id="HjMFWm3QQqRg6Sux3UhU-42" value="" style="rounded=0;whiteSpace=wrap;html=1;fillColor=none;dashed=1;" vertex="1" parent="HjMFWm3QQqRg6Sux3UhU-64">
          <mxGeometry x="200" y="400" width="280" height="160" as="geometry" />
        </mxCell>
        <mxCell id="HjMFWm3QQqRg6Sux3UhU-43" value="Lambda&lt;br&gt;Functions" style="sketch=0;points=[[0,0,0],[0.25,0,0],[0.5,0,0],[0.75,0,0],[1,0,0],[0,1,0],[0.25,1,0],[0.5,1,0],[0.75,1,0],[1,1,0],[0,0.25,0],[0,0.5,0],[0,0.75,0],[1,0.25,0],[1,0.5,0],[1,0.75,0]];outlineConnect=0;gradientDirection=north;fillColor=#d5e8d4;strokeColor=#82b366;dashed=0;verticalLabelPosition=bottom;verticalAlign=top;align=center;html=1;fontSize=12;fontStyle=0;aspect=fixed;shape=mxgraph.aws4.resourceIcon;resIcon=mxgraph.aws4.lambda;" vertex="1" parent="HjMFWm3QQqRg6Sux3UhU-64">
          <mxGeometry x="360" y="440" width="80" height="80" as="geometry" />
        </mxCell>
        <mxCell id="HjMFWm3QQqRg6Sux3UhU-44" style="edgeStyle=orthogonalEdgeStyle;rounded=0;orthogonalLoop=1;jettySize=auto;html=1;exitX=1;exitY=0.5;exitDx=0;exitDy=0;exitPerimeter=0;entryX=0;entryY=0.5;entryDx=0;entryDy=0;" edge="1" parent="HjMFWm3QQqRg6Sux3UhU-64" source="HjMFWm3QQqRg6Sux3UhU-45" target="HjMFWm3QQqRg6Sux3UhU-42">
          <mxGeometry relative="1" as="geometry" />
        </mxCell>
        <mxCell id="HjMFWm3QQqRg6Sux3UhU-45" value="Build Job Run" style="sketch=0;points=[[0,0,0],[0.25,0,0],[0.5,0,0],[0.75,0,0],[1,0,0],[0,1,0],[0.25,1,0],[0.5,1,0],[0.75,1,0],[1,1,0],[0,0.25,0],[0,0.5,0],[0,0.75,0],[1,0.25,0],[1,0.5,0],[1,0.75,0]];outlineConnect=0;gradientDirection=north;fillColor=#d5e8d4;strokeColor=#82b366;dashed=0;verticalLabelPosition=bottom;verticalAlign=top;align=center;html=1;fontSize=12;fontStyle=0;aspect=fixed;shape=mxgraph.aws4.resourceIcon;resIcon=mxgraph.aws4.codebuild;" vertex="1" parent="HjMFWm3QQqRg6Sux3UhU-64">
          <mxGeometry x="80" y="440" width="80" height="80" as="geometry" />
        </mxCell>
        <mxCell id="HjMFWm3QQqRg6Sux3UhU-59" style="edgeStyle=orthogonalEdgeStyle;rounded=0;orthogonalLoop=1;jettySize=auto;html=1;exitX=0;exitY=0.75;exitDx=0;exitDy=0;exitPerimeter=0;entryX=0;entryY=0.25;entryDx=0;entryDy=0;entryPerimeter=0;" edge="1" parent="HjMFWm3QQqRg6Sux3UhU-64" source="HjMFWm3QQqRg6Sux3UhU-38" target="HjMFWm3QQqRg6Sux3UhU-45">
          <mxGeometry relative="1" as="geometry" />
        </mxCell>
        <mxCell id="HjMFWm3QQqRg6Sux3UhU-46" value="CloudFormation&lt;br&gt;Stack" style="sketch=0;points=[[0,0,0],[0.25,0,0],[0.5,0,0],[0.75,0,0],[1,0,0],[0,1,0],[0.25,1,0],[0.5,1,0],[0.75,1,0],[1,1,0],[0,0.25,0],[0,0.5,0],[0,0.75,0],[1,0.25,0],[1,0.5,0],[1,0.75,0]];points=[[0,0,0],[0.25,0,0],[0.5,0,0],[0.75,0,0],[1,0,0],[0,1,0],[0.25,1,0],[0.5,1,0],[0.75,1,0],[1,1,0],[0,0.25,0],[0,0.5,0],[0,0.75,0],[1,0.25,0],[1,0.5,0],[1,0.75,0]];outlineConnect=0;gradientDirection=north;fillColor=#d5e8d4;strokeColor=#82b366;dashed=0;verticalLabelPosition=bottom;verticalAlign=top;align=center;html=1;fontSize=12;fontStyle=0;aspect=fixed;shape=mxgraph.aws4.resourceIcon;resIcon=mxgraph.aws4.cloudformation;" vertex="1" parent="HjMFWm3QQqRg6Sux3UhU-64">
          <mxGeometry x="240" y="440" width="80" height="80" as="geometry" />
        </mxCell>
        <mxCell id="HjMFWm3QQqRg6Sux3UhU-47" value="" style="rounded=0;whiteSpace=wrap;html=1;fillColor=none;dashed=1;" vertex="1" parent="HjMFWm3QQqRg6Sux3UhU-64">
          <mxGeometry x="200" y="600" width="280" height="160" as="geometry" />
        </mxCell>
        <mxCell id="HjMFWm3QQqRg6Sux3UhU-48" value="Lambda&lt;br&gt;Functions" style="sketch=0;points=[[0,0,0],[0.25,0,0],[0.5,0,0],[0.75,0,0],[1,0,0],[0,1,0],[0.25,1,0],[0.5,1,0],[0.75,1,0],[1,1,0],[0,0.25,0],[0,0.5,0],[0,0.75,0],[1,0.25,0],[1,0.5,0],[1,0.75,0]];outlineConnect=0;gradientDirection=north;fillColor=#fff2cc;strokeColor=#d6b656;dashed=0;verticalLabelPosition=bottom;verticalAlign=top;align=center;html=1;fontSize=12;fontStyle=0;aspect=fixed;shape=mxgraph.aws4.resourceIcon;resIcon=mxgraph.aws4.lambda;" vertex="1" parent="HjMFWm3QQqRg6Sux3UhU-64">
          <mxGeometry x="360" y="640" width="80" height="80" as="geometry" />
        </mxCell>
        <mxCell id="HjMFWm3QQqRg6Sux3UhU-49" style="edgeStyle=orthogonalEdgeStyle;rounded=0;orthogonalLoop=1;jettySize=auto;html=1;exitX=1;exitY=0.5;exitDx=0;exitDy=0;exitPerimeter=0;entryX=0;entryY=0.5;entryDx=0;entryDy=0;" edge="1" parent="HjMFWm3QQqRg6Sux3UhU-64" source="HjMFWm3QQqRg6Sux3UhU-50" target="HjMFWm3QQqRg6Sux3UhU-47">
          <mxGeometry relative="1" as="geometry" />
        </mxCell>
        <mxCell id="HjMFWm3QQqRg6Sux3UhU-50" value="Build Job Run" style="sketch=0;points=[[0,0,0],[0.25,0,0],[0.5,0,0],[0.75,0,0],[1,0,0],[0,1,0],[0.25,1,0],[0.5,1,0],[0.75,1,0],[1,1,0],[0,0.25,0],[0,0.5,0],[0,0.75,0],[1,0.25,0],[1,0.5,0],[1,0.75,0]];outlineConnect=0;gradientDirection=north;fillColor=#fff2cc;strokeColor=#d6b656;dashed=0;verticalLabelPosition=bottom;verticalAlign=top;align=center;html=1;fontSize=12;fontStyle=0;aspect=fixed;shape=mxgraph.aws4.resourceIcon;resIcon=mxgraph.aws4.codebuild;" vertex="1" parent="HjMFWm3QQqRg6Sux3UhU-64">
          <mxGeometry x="80" y="640" width="80" height="80" as="geometry" />
        </mxCell>
        <mxCell id="HjMFWm3QQqRg6Sux3UhU-60" style="edgeStyle=orthogonalEdgeStyle;rounded=0;orthogonalLoop=1;jettySize=auto;html=1;exitX=0;exitY=0.75;exitDx=0;exitDy=0;exitPerimeter=0;entryX=0;entryY=0.25;entryDx=0;entryDy=0;entryPerimeter=0;" edge="1" parent="HjMFWm3QQqRg6Sux3UhU-64" source="HjMFWm3QQqRg6Sux3UhU-45" target="HjMFWm3QQqRg6Sux3UhU-50">
          <mxGeometry relative="1" as="geometry" />
        </mxCell>
        <mxCell id="HjMFWm3QQqRg6Sux3UhU-51" value="CloudFormation&lt;br&gt;Stack" style="sketch=0;points=[[0,0,0],[0.25,0,0],[0.5,0,0],[0.75,0,0],[1,0,0],[0,1,0],[0.25,1,0],[0.5,1,0],[0.75,1,0],[1,1,0],[0,0.25,0],[0,0.5,0],[0,0.75,0],[1,0.25,0],[1,0.5,0],[1,0.75,0]];points=[[0,0,0],[0.25,0,0],[0.5,0,0],[0.75,0,0],[1,0,0],[0,1,0],[0.25,1,0],[0.5,1,0],[0.75,1,0],[1,1,0],[0,0.25,0],[0,0.5,0],[0,0.75,0],[1,0.25,0],[1,0.5,0],[1,0.75,0]];outlineConnect=0;gradientDirection=north;fillColor=#fff2cc;strokeColor=#d6b656;dashed=0;verticalLabelPosition=bottom;verticalAlign=top;align=center;html=1;fontSize=12;fontStyle=0;aspect=fixed;shape=mxgraph.aws4.resourceIcon;resIcon=mxgraph.aws4.cloudformation;" vertex="1" parent="HjMFWm3QQqRg6Sux3UhU-64">
          <mxGeometry x="240" y="640" width="80" height="80" as="geometry" />
        </mxCell>
        <mxCell id="HjMFWm3QQqRg6Sux3UhU-52" value="" style="rounded=0;whiteSpace=wrap;html=1;fillColor=none;dashed=1;" vertex="1" parent="HjMFWm3QQqRg6Sux3UhU-64">
          <mxGeometry x="200" y="920" width="280" height="160" as="geometry" />
        </mxCell>
        <mxCell id="HjMFWm3QQqRg6Sux3UhU-53" value="Lambda&lt;br&gt;Functions" style="sketch=0;points=[[0,0,0],[0.25,0,0],[0.5,0,0],[0.75,0,0],[1,0,0],[0,1,0],[0.25,1,0],[0.5,1,0],[0.75,1,0],[1,1,0],[0,0.25,0],[0,0.5,0],[0,0.75,0],[1,0.25,0],[1,0.5,0],[1,0.75,0]];outlineConnect=0;gradientDirection=north;fillColor=#f8cecc;strokeColor=#b85450;dashed=0;verticalLabelPosition=bottom;verticalAlign=top;align=center;html=1;fontSize=12;fontStyle=0;aspect=fixed;shape=mxgraph.aws4.resourceIcon;resIcon=mxgraph.aws4.lambda;" vertex="1" parent="HjMFWm3QQqRg6Sux3UhU-64">
          <mxGeometry x="360" y="960" width="80" height="80" as="geometry" />
        </mxCell>
        <mxCell id="HjMFWm3QQqRg6Sux3UhU-54" style="edgeStyle=orthogonalEdgeStyle;rounded=0;orthogonalLoop=1;jettySize=auto;html=1;exitX=1;exitY=0.5;exitDx=0;exitDy=0;exitPerimeter=0;entryX=0;entryY=0.5;entryDx=0;entryDy=0;" edge="1" parent="HjMFWm3QQqRg6Sux3UhU-64" source="HjMFWm3QQqRg6Sux3UhU-55" target="HjMFWm3QQqRg6Sux3UhU-52">
          <mxGeometry relative="1" as="geometry" />
        </mxCell>
        <mxCell id="HjMFWm3QQqRg6Sux3UhU-55" value="Build Job Run" style="sketch=0;points=[[0,0,0],[0.25,0,0],[0.5,0,0],[0.75,0,0],[1,0,0],[0,1,0],[0.25,1,0],[0.5,1,0],[0.75,1,0],[1,1,0],[0,0.25,0],[0,0.5,0],[0,0.75,0],[1,0.25,0],[1,0.5,0],[1,0.75,0]];outlineConnect=0;gradientDirection=north;fillColor=#f8cecc;strokeColor=#b85450;dashed=0;verticalLabelPosition=bottom;verticalAlign=top;align=center;html=1;fontSize=12;fontStyle=0;aspect=fixed;shape=mxgraph.aws4.resourceIcon;resIcon=mxgraph.aws4.codebuild;" vertex="1" parent="HjMFWm3QQqRg6Sux3UhU-64">
          <mxGeometry x="80" y="960" width="80" height="80" as="geometry" />
        </mxCell>
        <mxCell id="HjMFWm3QQqRg6Sux3UhU-56" value="CloudFormation&lt;br&gt;Stack" style="sketch=0;points=[[0,0,0],[0.25,0,0],[0.5,0,0],[0.75,0,0],[1,0,0],[0,1,0],[0.25,1,0],[0.5,1,0],[0.75,1,0],[1,1,0],[0,0.25,0],[0,0.5,0],[0,0.75,0],[1,0.25,0],[1,0.5,0],[1,0.75,0]];points=[[0,0,0],[0.25,0,0],[0.5,0,0],[0.75,0,0],[1,0,0],[0,1,0],[0.25,1,0],[0.5,1,0],[0.75,1,0],[1,1,0],[0,0.25,0],[0,0.5,0],[0,0.75,0],[1,0.25,0],[1,0.5,0],[1,0.75,0]];outlineConnect=0;gradientDirection=north;fillColor=#f8cecc;strokeColor=#b85450;dashed=0;verticalLabelPosition=bottom;verticalAlign=top;align=center;html=1;fontSize=12;fontStyle=0;aspect=fixed;shape=mxgraph.aws4.resourceIcon;resIcon=mxgraph.aws4.cloudformation;" vertex="1" parent="HjMFWm3QQqRg6Sux3UhU-64">
          <mxGeometry x="240" y="960" width="80" height="80" as="geometry" />
        </mxCell>
        <mxCell id="HjMFWm3QQqRg6Sux3UhU-63" style="edgeStyle=orthogonalEdgeStyle;rounded=0;orthogonalLoop=1;jettySize=auto;html=1;exitX=0.5;exitY=1;exitDx=0;exitDy=0;exitPerimeter=0;entryX=0;entryY=0.5;entryDx=0;entryDy=0;entryPerimeter=0;" edge="1" parent="HjMFWm3QQqRg6Sux3UhU-64" source="HjMFWm3QQqRg6Sux3UhU-57" target="HjMFWm3QQqRg6Sux3UhU-55">
          <mxGeometry relative="1" as="geometry" />
        </mxCell>
        <mxCell id="HjMFWm3QQqRg6Sux3UhU-57" value="Approve?" style="strokeWidth=2;html=1;shape=mxgraph.flowchart.decision;whiteSpace=wrap;fillColor=#e1d5e7;strokeColor=#9673a6;" vertex="1" parent="HjMFWm3QQqRg6Sux3UhU-64">
          <mxGeometry x="80" y="800" width="80" height="80" as="geometry" />
        </mxCell>
        <mxCell id="HjMFWm3QQqRg6Sux3UhU-61" style="edgeStyle=orthogonalEdgeStyle;rounded=0;orthogonalLoop=1;jettySize=auto;html=1;exitX=0;exitY=0.75;exitDx=0;exitDy=0;exitPerimeter=0;entryX=0.5;entryY=0;entryDx=0;entryDy=0;entryPerimeter=0;" edge="1" parent="HjMFWm3QQqRg6Sux3UhU-64" source="HjMFWm3QQqRg6Sux3UhU-50" target="HjMFWm3QQqRg6Sux3UhU-57">
          <mxGeometry relative="1" as="geometry" />
        </mxCell>
        <mxCell id="HjMFWm3QQqRg6Sux3UhU-66" value="release/project1" style="shape=image;verticalLabelPosition=bottom;labelBackgroundColor=default;verticalAlign=top;aspect=fixed;imageAspect=0;image=data:image/svg+xml,PHN2ZyB4bWxucz0iaHR0cDovL3d3dy53My5vcmcvMjAwMC9zdmciIGhlaWdodD0iNDhweCIgd2lkdGg9IjQ4cHgiIHZpZXdCb3g9IjAgMCA0OCA0OCI+PHBhdGggZD0iTTQyLjIsMjIuMUwyNS45LDUuOEMyNS40LDUuMywyNC43LDUsMjQsNWMwLDAsMCwwLDAsMGMtMC43LDAtMS40LDAuMy0xLjksMC44bC0zLjUsMy41bDQuMSw0LjFjMC40LTAuMiwwLjgtMC4zLDEuMy0wLjNjMS43LDAsMywxLjMsMywzYzAsMC41LTAuMSwwLjktMC4zLDEuM2w0LDRjMC40LTAuMiwwLjgtMC4zLDEuMy0wLjNjMS43LDAsMywxLjMsMywzcy0xLjMsMy0zLDNjLTEuNywwLTMtMS4zLTMtM2MwLTAuNSwwLjEtMC45LDAuMy0xLjNsLTQtNGMtMC4xLDAtMC4yLDAuMS0wLjMsMC4xdjEwLjRjMS4yLDAuNCwyLDEuNSwyLDIuOGMwLDEuNy0xLjMsMy0zLDNzLTMtMS4zLTMtM2MwLTEuMywwLjgtMi40LDItMi44VjE4LjhjLTEuMi0wLjQtMi0xLjUtMi0yLjhjMC0wLjUsMC4xLTAuOSwwLjMtMS4zbC00LjEtNC4xTDUuOCwyMi4xQzUuMywyMi42LDUsMjMuMyw1LDI0YzAsMC43LDAuMywxLjQsMC44LDEuOWwxNi4zLDE2LjNjMCwwLDAsMCwwLDBjMC41LDAuNSwxLjIsMC44LDEuOSwwLjhzMS40LTAuMywxLjktMC44bDE2LjMtMTYuM2MwLjUtMC41LDAuOC0xLjIsMC44LTEuOUM0MywyMy4zLDQyLjcsMjIuNiw0Mi4yLDIyLjF6IiBmaWxsPSIjRjQ1MTFFIi8+PC9zdmc+;" vertex="1" parent="HjMFWm3QQqRg6Sux3UhU-64">
          <mxGeometry x="80" y="80" width="80" height="80" as="geometry" />
        </mxCell>
        <mxCell id="HjMFWm3QQqRg6Sux3UhU-65" value="CodeBuild &lt;br&gt;Project1" style="sketch=0;points=[[0,0,0],[0.25,0,0],[0.5,0,0],[0.75,0,0],[1,0,0],[0,1,0],[0.25,1,0],[0.5,1,0],[0.75,1,0],[1,1,0],[0,0.25,0],[0,0.5,0],[0,0.75,0],[1,0.25,0],[1,0.5,0],[1,0.75,0]];outlineConnect=0;fontColor=#232F3E;gradientColor=#4D72F3;gradientDirection=north;fillColor=#3334B9;strokeColor=#ffffff;dashed=0;verticalLabelPosition=bottom;verticalAlign=top;align=center;html=1;fontSize=12;fontStyle=0;aspect=fixed;shape=mxgraph.aws4.resourceIcon;resIcon=mxgraph.aws4.codebuild;" vertex="1" parent="ACQcI9eZP0zotltc9_C3-1">
          <mxGeometry x="240" y="2320" width="80" height="80" as="geometry" />
        </mxCell>
        <mxCell id="HjMFWm3QQqRg6Sux3UhU-69" style="edgeStyle=orthogonalEdgeStyle;rounded=0;orthogonalLoop=1;jettySize=auto;html=1;exitX=1;exitY=0.5;exitDx=0;exitDy=0;entryX=0;entryY=0.5;entryDx=0;entryDy=0;entryPerimeter=0;" edge="1" parent="ACQcI9eZP0zotltc9_C3-1" source="HjMFWm3QQqRg6Sux3UhU-67" target="HjMFWm3QQqRg6Sux3UhU-65">
          <mxGeometry relative="1" as="geometry" />
        </mxCell>
        <mxCell id="HjMFWm3QQqRg6Sux3UhU-67" value="${semantic_name}/project1" style="shape=image;verticalLabelPosition=bottom;labelBackgroundColor=default;verticalAlign=top;aspect=fixed;imageAspect=0;image=data:image/svg+xml,PHN2ZyB4bWxucz0iaHR0cDovL3d3dy53My5vcmcvMjAwMC9zdmciIGhlaWdodD0iNDhweCIgd2lkdGg9IjQ4cHgiIHZpZXdCb3g9IjAgMCA0OCA0OCI+PHBhdGggZD0iTTQyLjIsMjIuMUwyNS45LDUuOEMyNS40LDUuMywyNC43LDUsMjQsNWMwLDAsMCwwLDAsMGMtMC43LDAtMS40LDAuMy0xLjksMC44bC0zLjUsMy41bDQuMSw0LjFjMC40LTAuMiwwLjgtMC4zLDEuMy0wLjNjMS43LDAsMywxLjMsMywzYzAsMC41LTAuMSwwLjktMC4zLDEuM2w0LDRjMC40LTAuMiwwLjgtMC4zLDEuMy0wLjNjMS43LDAsMywxLjMsMywzcy0xLjMsMy0zLDNjLTEuNywwLTMtMS4zLTMtM2MwLTAuNSwwLjEtMC45LDAuMy0xLjNsLTQtNGMtMC4xLDAtMC4yLDAuMS0wLjMsMC4xdjEwLjRjMS4yLDAuNCwyLDEuNSwyLDIuOGMwLDEuNy0xLjMsMy0zLDNzLTMtMS4zLTMtM2MwLTEuMywwLjgtMi40LDItMi44VjE4LjhjLTEuMi0wLjQtMi0xLjUtMi0yLjhjMC0wLjUsMC4xLTAuOSwwLjMtMS4zbC00LjEtNC4xTDUuOCwyMi4xQzUuMywyMi42LDUsMjMuMyw1LDI0YzAsMC43LDAuMywxLjQsMC44LDEuOWwxNi4zLDE2LjNjMCwwLDAsMCwwLDBjMC41LDAuNSwxLjIsMC44LDEuOSwwLjhzMS40LTAuMywxLjktMC44bDE2LjMtMTYuM2MwLjUtMC41LDAuOC0xLjIsMC44LTEuOUM0MywyMy4zLDQyLjcsMjIuNiw0Mi4yLDIyLjF6IiBmaWxsPSIjRjQ1MTFFIi8+PC9zdmc+;" vertex="1" parent="ACQcI9eZP0zotltc9_C3-1">
          <mxGeometry x="80" y="2320" width="80" height="80" as="geometry" />
        </mxCell>
        <mxCell id="HjMFWm3QQqRg6Sux3UhU-71" style="edgeStyle=orthogonalEdgeStyle;rounded=0;orthogonalLoop=1;jettySize=auto;html=1;exitX=1;exitY=0.5;exitDx=0;exitDy=0;entryX=0;entryY=0.5;entryDx=0;entryDy=0;entryPerimeter=0;" edge="1" parent="ACQcI9eZP0zotltc9_C3-1" source="HjMFWm3QQqRg6Sux3UhU-70" target="HjMFWm3QQqRg6Sux3UhU-12">
          <mxGeometry relative="1" as="geometry" />
        </mxCell>
        <mxCell id="HjMFWm3QQqRg6Sux3UhU-70" value="${semantic_name}/project1" style="shape=image;verticalLabelPosition=bottom;labelBackgroundColor=default;verticalAlign=top;aspect=fixed;imageAspect=0;image=data:image/svg+xml,PHN2ZyB4bWxucz0iaHR0cDovL3d3dy53My5vcmcvMjAwMC9zdmciIGhlaWdodD0iNDhweCIgd2lkdGg9IjQ4cHgiIHZpZXdCb3g9IjAgMCA0OCA0OCI+PHBhdGggZD0iTTQyLjIsMjIuMUwyNS45LDUuOEMyNS40LDUuMywyNC43LDUsMjQsNWMwLDAsMCwwLDAsMGMtMC43LDAtMS40LDAuMy0xLjksMC44bC0zLjUsMy41bDQuMSw0LjFjMC40LTAuMiwwLjgtMC4zLDEuMy0wLjNjMS43LDAsMywxLjMsMywzYzAsMC41LTAuMSwwLjktMC4zLDEuM2w0LDRjMC40LTAuMiwwLjgtMC4zLDEuMy0wLjNjMS43LDAsMywxLjMsMywzcy0xLjMsMy0zLDNjLTEuNywwLTMtMS4zLTMtM2MwLTAuNSwwLjEtMC45LDAuMy0xLjNsLTQtNGMtMC4xLDAtMC4yLDAuMS0wLjMsMC4xdjEwLjRjMS4yLDAuNCwyLDEuNSwyLDIuOGMwLDEuNy0xLjMsMy0zLDNzLTMtMS4zLTMtM2MwLTEuMywwLjgtMi40LDItMi44VjE4LjhjLTEuMi0wLjQtMi0xLjUtMi0yLjhjMC0wLjUsMC4xLTAuOSwwLjMtMS4zbC00LjEtNC4xTDUuOCwyMi4xQzUuMywyMi42LDUsMjMuMyw1LDI0YzAsMC43LDAuMywxLjQsMC44LDEuOWwxNi4zLDE2LjNjMCwwLDAsMCwwLDBjMC41LDAuNSwxLjIsMC44LDEuOSwwLjhzMS40LTAuMywxLjktMC44bDE2LjMtMTYuM2MwLjUtMC41LDAuOC0xLjIsMC44LTEuOUM0MywyMy4zLDQyLjcsMjIuNiw0Mi4yLDIyLjF6IiBmaWxsPSIjRjQ1MTFFIi8+PC9zdmc+;" vertex="1" parent="ACQcI9eZP0zotltc9_C3-1">
          <mxGeometry x="80" y="1640" width="80" height="80" as="geometry" />
        </mxCell>
      </root>
    </mxGraphModel>
  </diagram>
</mxfile>
